<svg width="26" height="26" viewBox="0 0 26 26" fill="none" xmlns="http://www.w3.org/2000/svg">
<path d="M12.7645 7.06309C9.21738 7.06309 6.35625 9.92486 6.35625 13.4728C6.35625 17.0207 9.21738 19.8825 12.7645 19.8825C16.3116 19.8825 19.1728 17.0207 19.1728 13.4728C19.1728 9.92486 16.3116 7.06309 12.7645 7.06309ZM12.7645 17.6399C10.4723 17.6399 8.59831 15.7711 8.59831 13.4728C8.59831 11.1744 10.4667 9.30565 12.7645 9.30565C15.0623 9.30565 16.9307 11.1744 16.9307 13.4728C16.9307 15.7711 15.0568 17.6399 12.7645 17.6399V17.6399ZM20.9296 6.80091C20.9296 7.6321 20.2603 8.29594 19.4349 8.29594C18.6039 8.29594 17.9402 7.62652 17.9402 6.80091C17.9402 5.97529 18.6095 5.30587 19.4349 5.30587C20.2603 5.30587 20.9296 5.97529 20.9296 6.80091ZM25.1739 8.31825C25.0791 6.31558 24.6217 4.54162 23.1549 3.08005C21.6937 1.61849 19.9201 1.16105 17.9179 1.06064C15.8543 0.943491 9.66914 0.943491 7.60556 1.06064C5.6089 1.15547 3.83534 1.61291 2.36852 3.07447C0.901708 4.53604 0.449951 6.31 0.34956 8.31268C0.232438 10.3767 0.232438 16.5633 0.34956 18.6273C0.444374 20.63 0.901708 22.4039 2.36852 23.8655C3.83534 25.3271 5.60333 25.7845 7.60556 25.8849C9.66914 26.0021 15.8543 26.0021 17.9179 25.8849C19.9201 25.7901 21.6937 25.3326 23.1549 23.8655C24.6162 22.4039 25.0735 20.63 25.1739 18.6273C25.291 16.5633 25.291 10.3823 25.1739 8.31825V8.31825ZM22.508 20.842C22.0729 21.9353 21.2308 22.7777 20.132 23.2184C18.4868 23.8711 14.5827 23.7205 12.7645 23.7205C10.9463 23.7205 7.03668 23.8655 5.39697 23.2184C4.30383 22.7833 3.46166 21.9409 3.02106 20.842C2.36852 19.1963 2.51911 15.2914 2.51911 13.4728C2.51911 11.6542 2.3741 7.74367 3.02106 6.10359C3.45609 5.01021 4.29825 4.16786 5.39697 3.72716C7.04225 3.07447 10.9463 3.22509 12.7645 3.22509C14.5827 3.22509 18.4923 3.08005 20.132 3.72716C21.2252 4.16228 22.0674 5.00463 22.508 6.10359C23.1605 7.74925 23.0099 11.6542 23.0099 13.4728C23.0099 15.2914 23.1605 19.2019 22.508 20.842Z" fill="black"/>
</svg>
