<svg width="4256" height="485" viewBox="0 0 4256 485" fill="none" xmlns="http://www.w3.org/2000/svg">
<path fill-rule="evenodd" clip-rule="evenodd" d="M97 282.316L97 58.3155H105L105 282.316H97ZM5.00001 282.316L5 58.3155H13L13 282.316H5.00001Z" fill="black"/>
<path d="M105 58.3155C105 45.0547 99.7321 32.337 90.3553 22.9602C80.9785 13.5834 68.2608 8.31554 55 8.31554C41.7392 8.31554 29.0215 13.5834 19.6447 22.9602C10.2678 32.337 5 45.0547 5 58.3155L12.9901 58.3155C12.9901 47.1738 17.4162 36.4884 25.2945 28.6101C33.1729 20.7317 43.8583 16.3057 55 16.3057C66.1417 16.3057 76.8271 20.7317 84.7055 28.6101C92.5838 36.4885 97.0099 47.1738 97.0099 58.3155H105Z" fill="black"/>
<path fill-rule="evenodd" clip-rule="evenodd" d="M97 202.316L97 426.316H105L105 202.316H97ZM5.00001 202.316L5 426.316H13L13 202.316H5.00001Z" fill="black"/>
<path d="M105 426.316C105 439.576 99.7321 452.294 90.3553 461.671C80.9785 471.048 68.2608 476.316 55 476.316C41.7392 476.316 29.0215 471.048 19.6447 461.671C10.2678 452.294 5 439.576 5 426.316H12.9901C12.9901 437.457 17.4162 448.143 25.2945 456.021C33.1729 463.899 43.8583 468.325 55 468.325C66.1417 468.325 76.8271 463.899 84.7055 456.021C92.5838 448.143 97.0099 437.457 97.0099 426.316H105Z" fill="black"/>
<path fill-rule="evenodd" clip-rule="evenodd" d="M55.0372 99.8178H243V107.818H55.0372V99.8178ZM55.9704 7.8225L243 7.82248V15.8225L55.9704 15.8225V7.8225Z" fill="black"/>
<path d="M242.502 200.36C255.835 200.36 268.621 195.063 278.048 185.636C287.476 176.209 292.772 163.422 292.772 150.09C292.772 136.758 287.476 123.971 278.048 114.544C268.621 105.116 255.835 99.8201 242.502 99.8201V107.853C253.704 107.853 264.447 112.303 272.368 120.224C280.289 128.145 284.739 138.888 284.739 150.09C284.739 161.292 280.289 172.035 272.368 179.956C264.447 187.876 253.704 192.326 242.502 192.326V200.36Z" fill="black"/>
<path d="M56.0117 7.82272C42.7516 7.68821 29.9811 12.8268 20.5097 22.108C11.0382 31.3892 5.64166 44.0528 5.50715 57.313C5.37264 70.5731 10.5112 83.3436 19.7924 92.815C29.0737 102.286 41.7373 107.683 54.9974 107.818L55.0785 99.8279C43.9373 99.7148 33.2974 95.1807 25.4993 87.2228C17.7013 79.2649 13.3839 68.5352 13.4969 57.394C13.6099 46.2529 18.1441 35.613 26.102 27.8149C34.0598 20.0168 44.7896 15.6994 55.9307 15.8124L56.0117 7.82272Z" fill="black"/>
<path d="M55.9999 192.316C42.7391 192.316 30.0214 197.583 20.6446 206.96C11.2678 216.337 5.99992 229.055 5.99992 242.316C5.99992 255.576 11.2678 268.294 20.6446 277.671C30.0214 287.048 42.7391 292.316 55.9999 292.316V284.325C44.8582 284.325 34.1728 279.899 26.2944 272.021C18.4161 264.143 13.99 253.457 13.99 242.316C13.99 231.174 18.4161 220.488 26.2945 212.61C34.1728 204.732 44.8582 200.306 55.9999 200.306V192.316Z" fill="black"/>
<path fill-rule="evenodd" clip-rule="evenodd" d="M55.0372 384.813H243V376.813H55.0372V384.813ZM55.9704 476.809H243V468.809H55.9704V476.809Z" fill="black"/>
<path d="M242.502 284.271C255.835 284.271 268.621 289.568 278.048 298.995C287.476 308.423 292.772 321.209 292.772 334.541C292.772 347.874 287.476 360.66 278.048 370.087C268.621 379.515 255.835 384.811 242.502 384.811V376.778C253.704 376.778 264.447 372.328 272.368 364.407C280.289 356.486 284.739 345.743 284.739 334.541C284.739 323.339 280.289 312.596 272.368 304.676C264.447 296.755 253.704 292.305 242.502 292.305V284.271Z" fill="black"/>
<path d="M56.0117 476.808C42.7516 476.943 29.9811 471.804 20.5097 462.523C11.0382 453.242 5.64166 440.578 5.50715 427.318C5.37264 414.058 10.5112 401.287 19.7924 391.816C29.0737 382.345 41.7373 376.948 54.9974 376.814L55.0785 384.803C43.9373 384.916 33.2974 389.45 25.4993 397.408C17.7013 405.366 13.3839 416.096 13.4969 427.237C13.6099 438.378 18.1441 449.018 26.102 456.816C34.0598 464.614 44.7896 468.932 55.9307 468.819L56.0117 476.808Z" fill="black"/>
<path d="M55.9999 292.316C42.7391 292.316 30.0214 287.048 20.6446 277.671C11.2678 268.294 5.99992 255.576 5.99992 242.316C5.99992 229.055 11.2678 216.337 20.6446 206.96C30.0214 197.583 42.7391 192.316 55.9999 192.316V200.306C44.8582 200.306 34.1728 204.732 26.2945 212.61C18.4161 220.488 13.99 231.174 13.99 242.316C13.99 253.457 18.4161 264.143 26.2944 272.021C34.1728 279.899 44.8582 284.325 55.9999 284.325V292.316Z" fill="black"/>
<path fill-rule="evenodd" clip-rule="evenodd" d="M243 200.316H56L55.9999 192.316H243V200.316ZM243 292.316H55.9999L56 284.316H243V292.316Z" fill="black"/>
<path fill-rule="evenodd" clip-rule="evenodd" d="M243 284.316H56L55.9999 292.316H243V284.316ZM243 192.316H55.9999L56 200.316H243V192.316Z" fill="black"/>
<path d="M243 292.316C260.991 292.316 278.806 289.13 295.428 281.968C312.049 274.807 327.152 264.311 339.874 251.078C352.595 237.846 362.687 222.137 369.571 204.848C376.456 187.559 380 169.029 380 150.316C380 131.602 376.456 113.072 369.571 95.7831C362.687 78.4943 352.595 62.7852 339.874 49.5528C327.152 36.3205 312.049 25.824 295.428 18.6627C278.806 11.5014 260.991 7.81554 243 7.81554V15.8155C259.912 15.8155 276.658 19.8303 292.282 26.5619C307.906 33.2935 322.103 43.1602 334.061 55.5986C346.02 68.037 355.505 82.8035 361.977 99.0551C368.449 115.307 371.78 132.725 371.78 150.316C371.78 167.906 368.449 185.324 361.977 201.576C355.505 217.828 346.02 232.594 334.061 245.033C322.103 257.471 307.906 267.338 292.282 274.069C276.658 280.801 259.912 284.316 243 284.316V292.316Z" fill="black"/>
<path d="M243 192.316C260.991 192.316 278.806 195.501 295.428 202.663C312.049 209.824 327.152 220.32 339.874 233.553C352.595 246.785 362.687 262.494 369.571 279.783C376.456 297.072 380 315.602 380 334.316C380 353.029 376.456 371.559 369.571 388.848C362.687 406.137 352.595 421.846 339.874 435.078C327.152 448.311 312.049 458.807 295.428 465.968C278.806 473.13 260.991 476.816 243 476.816V468.816C259.912 468.816 276.658 464.801 292.282 458.069C307.906 451.338 322.103 441.471 334.061 429.033C346.02 416.594 355.505 401.828 361.977 385.576C368.449 369.324 371.78 351.906 371.78 334.316C371.78 316.725 368.449 299.307 361.977 283.055C355.505 266.804 346.02 252.037 334.061 239.599C322.103 227.16 307.906 217.293 292.282 210.562C276.658 203.83 259.912 200.316 243 200.316V192.316Z" fill="black"/>
<path fill-rule="evenodd" clip-rule="evenodd" d="M610 282.316V58.3155H618V282.316H610ZM518 282.316V58.3155H526V282.316H518Z" fill="black"/>
<path d="M618 58.3155C618 45.0547 612.732 32.337 603.355 22.9602C593.979 13.5834 581.261 8.31554 568 8.31554C554.739 8.31554 542.021 13.5834 532.645 22.9602C523.268 32.337 518 45.0547 518 58.3155L525.99 58.3155C525.99 47.1738 530.416 36.4884 538.295 28.6101C546.173 20.7317 556.858 16.3057 568 16.3057C579.142 16.3057 589.827 20.7317 597.705 28.6101C605.584 36.4885 610.01 47.1738 610.01 58.3155H618Z" fill="black"/>
<path fill-rule="evenodd" clip-rule="evenodd" d="M610 203.316V427.316H618V203.316H610ZM518 203.316V427.316H526V203.316H518Z" fill="black"/>
<path d="M618 427.316C618 440.576 612.732 453.294 603.355 462.671C593.979 472.048 581.261 477.316 568 477.316C554.739 477.316 542.021 472.048 532.645 462.671C523.268 453.294 518 440.576 518 427.316H525.99C525.99 438.457 530.416 449.143 538.295 457.021C546.173 464.899 556.858 469.325 568 469.325C579.142 469.325 589.827 464.899 597.705 457.021C605.584 449.143 610.01 438.457 610.01 427.316H618Z" fill="black"/>
<path fill-rule="evenodd" clip-rule="evenodd" d="M792 16.3155L568 16.3155V8.31554L792 8.31553V16.3155ZM792 108.316L568 108.316V100.316L792 100.316V108.316Z" fill="black"/>
<path d="M568 8.31554C554.739 8.31554 542.021 13.5834 532.645 22.9602C523.268 32.337 518 45.0547 518 58.3155C518 71.5764 523.268 84.2941 532.645 93.6709C542.021 103.048 554.739 108.316 568 108.316V100.325C556.858 100.325 546.173 95.8994 538.294 88.021C530.416 80.1426 525.99 69.4572 525.99 58.3155C525.99 47.1738 530.416 36.4884 538.295 28.6101C546.173 20.7317 556.858 16.3057 568 16.3057V8.31554Z" fill="black"/>
<path d="M792 108.316C805.261 108.316 817.979 103.048 827.355 93.6709C836.732 84.2941 842 71.5764 842 58.3155C842 45.0547 836.732 32.337 827.355 22.9602C817.979 13.5834 805.261 8.31553 792 8.31553V16.3057C803.142 16.3057 813.827 20.7317 821.705 28.6101C829.584 36.4885 834.01 47.1738 834.01 58.3155C834.01 69.4573 829.584 80.1426 821.705 88.021C813.827 95.8994 803.142 100.325 792 100.325V108.316Z" fill="black"/>
<path fill-rule="evenodd" clip-rule="evenodd" d="M792 469.316H568V477.316H792V469.316ZM792 377.316H568V385.316H792V377.316Z" fill="black"/>
<path d="M568 477.316C554.739 477.316 542.021 472.048 532.645 462.671C523.268 453.294 518 440.576 518 427.316C518 414.055 523.268 401.337 532.645 391.96C542.021 382.583 554.739 377.316 568 377.316V385.306C556.858 385.306 546.173 389.732 538.294 397.61C530.416 405.488 525.99 416.174 525.99 427.316C525.99 438.457 530.416 449.143 538.295 457.021C546.173 464.899 556.858 469.325 568 469.325V477.316Z" fill="black"/>
<path d="M792 377.316C805.261 377.316 817.979 382.583 827.355 391.96C836.732 401.337 842 414.055 842 427.316C842 440.576 836.732 453.294 827.355 462.671C817.979 472.048 805.261 477.316 792 477.316V469.325C803.142 469.325 813.827 464.899 821.705 457.021C829.584 449.143 834.01 438.457 834.01 427.316C834.01 416.174 829.584 405.488 821.705 397.61C813.827 389.732 803.142 385.306 792 385.306V377.316Z" fill="black"/>
<path fill-rule="evenodd" clip-rule="evenodd" d="M792 284.316H568V292.316H792V284.316ZM792 192.316L568 192.316V200.316L792 200.316V192.316Z" fill="black"/>
<path d="M568 292.316C554.739 292.316 542.021 287.048 532.645 277.671C523.268 268.294 518 255.576 518 242.316C518 229.055 523.268 216.337 532.645 206.96C542.021 197.583 554.739 192.316 568 192.316V200.306C556.858 200.306 546.173 204.732 538.294 212.61C530.416 220.488 525.99 231.174 525.99 242.316C525.99 253.457 530.416 264.143 538.294 272.021C546.173 279.899 556.858 284.325 568 284.325V292.316Z" fill="black"/>
<path d="M792 192.316C805.261 192.316 817.979 197.583 827.355 206.96C836.732 216.337 842 229.055 842 242.316C842 255.576 836.732 268.294 827.355 277.671C817.979 287.048 805.261 292.316 792 292.316V284.325C803.142 284.325 813.827 279.899 821.705 272.021C829.584 264.143 834.01 253.457 834.01 242.316C834.01 231.174 829.584 220.488 821.705 212.61C813.827 204.732 803.142 200.306 792 200.306V192.316Z" fill="black"/>
<path fill-rule="evenodd" clip-rule="evenodd" d="M1072 281.316V57.3155H1080V281.316H1072ZM980 281.316V57.3155H988V281.316H980Z" fill="black"/>
<path fill-rule="evenodd" clip-rule="evenodd" d="M1072 203.316V427.316H1080V203.316H1072ZM980 203.316V427.316H988V203.316H980Z" fill="black"/>
<path d="M1080 57.3155C1080 44.0547 1074.73 31.337 1065.36 21.9602C1055.98 12.5834 1043.26 7.31554 1030 7.31554C1016.74 7.31554 1004.02 12.5834 994.645 21.9602C985.268 31.337 980 44.0547 980 57.3155L987.99 57.3155C987.99 46.1738 992.416 35.4884 1000.29 27.6101C1008.17 19.7317 1018.86 15.3057 1030 15.3057C1041.14 15.3057 1051.83 19.7317 1059.71 27.6101C1067.58 35.4885 1072.01 46.1738 1072.01 57.3155H1080Z" fill="black"/>
<path d="M1080 427.316C1080 440.576 1074.73 453.294 1065.36 462.671C1055.98 472.048 1043.26 477.316 1030 477.316C1016.74 477.316 1004.02 472.048 994.645 462.671C985.268 453.294 980 440.576 980 427.316H987.99C987.99 438.457 992.416 449.143 1000.29 457.021C1008.17 464.899 1018.86 469.325 1030 469.325C1041.14 469.325 1051.83 464.899 1059.71 457.021C1067.58 449.143 1072.01 438.457 1072.01 427.316H1080Z" fill="black"/>
<path d="M1218 292.316C1235.99 292.316 1253.81 289.13 1270.43 281.968C1287.05 274.807 1302.15 264.311 1314.87 251.078C1327.6 237.846 1337.69 222.137 1344.57 204.848C1351.46 187.559 1355 169.029 1355 150.316C1355 131.602 1351.46 113.072 1344.57 95.7831C1337.69 78.4943 1327.6 62.7852 1314.87 49.5528C1302.15 36.3205 1287.05 25.824 1270.43 18.6627C1253.81 11.5014 1235.99 7.81554 1218 7.81554V15.8155C1234.91 15.8155 1251.66 19.8303 1267.28 26.5619C1282.91 33.2935 1297.1 43.1602 1309.06 55.5986C1321.02 68.037 1330.51 82.8035 1336.98 99.0551C1343.45 115.307 1346.78 132.725 1346.78 150.316C1346.78 167.906 1343.45 185.324 1336.98 201.576C1330.51 217.828 1321.02 232.594 1309.06 245.033C1297.1 257.471 1282.91 267.338 1267.28 274.069C1251.66 280.801 1234.91 284.316 1218 284.316V292.316Z" fill="black"/>
<path fill-rule="evenodd" clip-rule="evenodd" d="M1030.04 99.8178H1218V107.818H1030.04V99.8178ZM1030.97 7.8225L1218 7.82248V15.8225L1030.97 15.8225V7.8225Z" fill="black"/>
<path d="M1217.5 200.36C1230.83 200.36 1243.62 195.063 1253.05 185.636C1262.48 176.209 1267.77 163.422 1267.77 150.09C1267.77 136.758 1262.48 123.971 1253.05 114.544C1243.62 105.116 1230.83 99.8201 1217.5 99.8201V107.853C1228.7 107.853 1239.45 112.303 1247.37 120.224C1255.29 128.145 1259.74 138.888 1259.74 150.09C1259.74 161.292 1255.29 172.035 1247.37 179.956C1239.45 187.876 1228.7 192.326 1217.5 192.326V200.36Z" fill="black"/>
<path d="M1031.01 7.82272C1017.75 7.68821 1004.98 12.8268 995.51 22.108C986.038 31.3892 980.642 44.0528 980.507 57.313C980.373 70.5731 985.511 83.3436 994.792 92.815C1004.07 102.286 1016.74 107.683 1030 107.818L1030.08 99.8279C1018.94 99.7148 1008.3 95.1807 1000.5 87.2228C992.701 79.2649 988.384 68.5352 988.497 57.394C988.61 46.2529 993.144 35.613 1001.1 27.8149C1009.06 20.0168 1019.79 15.6994 1030.93 15.8124L1031.01 7.82272Z" fill="black"/>
<path d="M1031 192.316C1017.74 192.316 1005.02 197.583 995.645 206.96C986.268 216.337 981 229.055 981 242.316C981 255.576 986.268 268.294 995.645 277.671C1005.02 287.048 1017.74 292.316 1031 292.316V284.325C1019.86 284.325 1009.17 279.899 1001.29 272.021C993.416 264.143 988.99 253.457 988.99 242.316C988.99 231.174 993.416 220.488 1001.29 212.61C1009.17 204.732 1019.86 200.306 1031 200.306V192.316Z" fill="black"/>
<path fill-rule="evenodd" clip-rule="evenodd" d="M1218 284.316H1031L1031 292.316H1218V284.316ZM1218 192.316H1031L1031 200.316H1218V192.316Z" fill="black"/>
<path fill-rule="evenodd" clip-rule="evenodd" d="M1270.71 450.532L1142.23 267.042L1135.68 271.631L1264.16 455.121L1270.71 450.532ZM1346.07 397.763L1217.59 214.273L1211.04 218.862L1339.52 402.352L1346.07 397.763Z" fill="black"/>
<path d="M1135.68 271.631C1128.07 260.768 1125.09 247.329 1127.4 234.27C1129.7 221.21 1137.09 209.6 1147.96 201.994C1158.82 194.388 1172.26 191.409 1185.32 193.712C1198.38 196.014 1209.99 203.411 1217.59 214.273L1211.05 218.856C1204.66 209.729 1194.9 203.515 1183.93 201.58C1172.96 199.646 1161.67 202.149 1152.54 208.54C1143.41 214.93 1137.2 224.685 1135.26 235.657C1133.33 246.629 1135.83 257.921 1142.22 267.048L1135.68 271.631Z" fill="black"/>
<path d="M1346.07 397.763C1353.68 408.626 1356.66 422.065 1354.36 435.124C1352.06 448.184 1344.66 459.794 1333.8 467.4C1322.93 475.006 1309.49 477.985 1296.43 475.682C1283.38 473.38 1271.77 465.983 1264.16 455.121L1270.7 450.538C1277.1 459.665 1286.85 465.879 1297.82 467.814C1308.79 469.748 1320.09 467.245 1329.21 460.854C1338.34 454.464 1344.55 444.709 1346.49 433.737C1348.42 422.765 1345.92 411.473 1339.53 402.346L1346.07 397.763Z" fill="black"/>
<path fill-rule="evenodd" clip-rule="evenodd" d="M1585 282V58.0001H1593V282H1585ZM1493 282V58.0001H1501V282H1493Z" fill="black"/>
<path d="M1593 58.0001C1593 44.7392 1587.73 32.0215 1578.36 22.6447C1568.98 13.2679 1556.26 8.00006 1543 8.00006C1529.74 8.00006 1517.02 13.2679 1507.64 22.6447C1498.27 32.0215 1493 44.7392 1493 58.0001L1500.99 58.0001C1500.99 46.8583 1505.42 36.173 1513.29 28.2946C1521.17 20.4162 1531.86 15.9902 1543 15.9902C1554.14 15.9902 1564.83 20.4162 1572.71 28.2946C1580.58 36.173 1585.01 46.8584 1585.01 58.0001H1593Z" fill="black"/>
<path fill-rule="evenodd" clip-rule="evenodd" d="M1585 203V427H1593V203H1585ZM1493 203V427H1501V203H1493Z" fill="black"/>
<path d="M1593 427C1593 440.261 1587.73 452.979 1578.36 462.355C1568.98 471.732 1556.26 477 1543 477C1529.74 477 1517.02 471.732 1507.64 462.355C1498.27 452.979 1493 440.261 1493 427H1500.99C1500.99 438.142 1505.42 448.827 1513.29 456.706C1521.17 464.584 1531.86 469.01 1543 469.01C1554.14 469.01 1564.83 464.584 1572.71 456.706C1580.58 448.827 1585.01 438.142 1585.01 427H1593Z" fill="black"/>
<path fill-rule="evenodd" clip-rule="evenodd" d="M1767 16.0001L1543 16.0001V8.00006L1767 8.00005V16.0001ZM1767 108L1543 108V100L1767 100V108Z" fill="black"/>
<path d="M1543 8.00006C1529.74 8.00006 1517.02 13.2679 1507.64 22.6447C1498.27 32.0215 1493 44.7392 1493 58.0001C1493 71.2609 1498.27 83.9786 1507.64 93.3554C1517.02 102.732 1529.74 108 1543 108V100.01C1531.86 100.01 1521.17 95.5839 1513.29 87.7055C1505.42 79.8271 1500.99 69.1418 1500.99 58.0001C1500.99 46.8583 1505.42 36.173 1513.29 28.2946C1521.17 20.4162 1531.86 15.9902 1543 15.9902V8.00006Z" fill="black"/>
<path d="M1767 108C1780.26 108 1792.98 102.732 1802.36 93.3554C1811.73 83.9786 1817 71.2609 1817 58.0001C1817 44.7392 1811.73 32.0215 1802.36 22.6447C1792.98 13.2679 1780.26 8.00005 1767 8.00005V15.9902C1778.14 15.9902 1788.83 20.4162 1796.71 28.2946C1804.58 36.173 1809.01 46.8584 1809.01 58.0001C1809.01 69.1418 1804.58 79.8271 1796.71 87.7055C1788.83 95.5839 1778.14 100.01 1767 100.01V108Z" fill="black"/>
<path fill-rule="evenodd" clip-rule="evenodd" d="M1767 469H1543V477H1767V469ZM1767 377H1543V385H1767V377Z" fill="black"/>
<path d="M1543 477C1529.74 477 1517.02 471.732 1507.64 462.355C1498.27 452.979 1493 440.261 1493 427C1493 413.739 1498.27 401.022 1507.64 391.645C1517.02 382.268 1529.74 377 1543 377V384.99C1531.86 384.99 1521.17 389.416 1513.29 397.295C1505.42 405.173 1500.99 415.858 1500.99 427C1500.99 438.142 1505.42 448.827 1513.29 456.706C1521.17 464.584 1531.86 469.01 1543 469.01V477Z" fill="black"/>
<path d="M1767 377C1780.26 377 1792.98 382.268 1802.36 391.645C1811.73 401.022 1817 413.739 1817 427C1817 440.261 1811.73 452.979 1802.36 462.355C1792.98 471.732 1780.26 477 1767 477V469.01C1778.14 469.01 1788.83 464.584 1796.71 456.706C1804.58 448.827 1809.01 438.142 1809.01 427C1809.01 415.858 1804.58 405.173 1796.71 397.295C1788.83 389.416 1778.14 384.99 1767 384.99V377Z" fill="black"/>
<path fill-rule="evenodd" clip-rule="evenodd" d="M1767 284H1543V292H1767V284ZM1767 192L1543 192V200L1767 200V192Z" fill="black"/>
<path d="M1543 292C1529.74 292 1517.02 286.732 1507.64 277.355C1498.27 267.979 1493 255.261 1493 242C1493 228.739 1498.27 216.022 1507.64 206.645C1517.02 197.268 1529.74 192 1543 192V199.99C1531.86 199.99 1521.17 204.416 1513.29 212.295C1505.42 220.173 1500.99 230.858 1500.99 242C1500.99 253.142 1505.42 263.827 1513.29 271.706C1521.17 279.584 1531.86 284.01 1543 284.01V292Z" fill="black"/>
<path d="M1767 192C1780.26 192 1792.98 197.268 1802.36 206.645C1811.73 216.022 1817 228.739 1817 242C1817 255.261 1811.73 267.979 1802.36 277.355C1792.98 286.732 1780.26 292 1767 292V284.01C1778.14 284.01 1788.83 279.584 1796.71 271.706C1804.58 263.827 1809.01 253.142 1809.01 242C1809.01 230.858 1804.58 220.173 1796.71 212.295C1788.83 204.416 1778.14 199.99 1767 199.99V192Z" fill="black"/>
<path fill-rule="evenodd" clip-rule="evenodd" d="M2280.96 100.502H2093V108.502H2280.96V100.502ZM2280.03 8.50702L2093 8.50701V16.507L2280.03 16.507V8.50702Z" fill="black"/>
<path d="M2093.5 201.044C2080.17 201.044 2067.38 195.748 2057.95 186.32C2048.52 176.893 2043.23 164.107 2043.23 150.774C2043.23 137.442 2048.52 124.656 2057.95 115.228C2067.38 105.801 2080.17 100.505 2093.5 100.505V108.538C2082.3 108.538 2071.55 112.988 2063.63 120.909C2055.71 128.83 2051.26 139.573 2051.26 150.774C2051.26 161.976 2055.71 172.719 2063.63 180.64C2071.55 188.561 2082.3 193.011 2093.5 193.011V201.044Z" fill="black"/>
<path d="M2279.99 8.50724C2293.25 8.37273 2306.02 13.5113 2315.49 22.7925C2324.96 32.0738 2330.36 44.7374 2330.49 57.9975C2330.63 71.2576 2325.49 84.0281 2316.21 93.4996C2306.93 102.971 2294.26 108.368 2281 108.502L2280.92 100.512C2292.06 100.399 2302.7 95.8652 2310.5 87.9073C2318.3 79.9494 2322.62 69.2197 2322.5 58.0785C2322.39 46.9374 2317.86 36.2975 2309.9 28.4994C2301.94 20.7014 2291.21 16.3839 2280.07 16.497L2279.99 8.50724Z" fill="black"/>
<path d="M2194 193C2207.26 193 2219.98 198.268 2229.36 207.645C2238.73 217.022 2244 229.739 2244 243C2244 256.261 2238.73 268.979 2229.36 278.355C2219.98 287.732 2207.26 293 2194 293V285.01C2205.14 285.01 2215.83 280.584 2223.71 272.706C2231.58 264.827 2236.01 254.142 2236.01 243C2236.01 231.858 2231.58 221.173 2223.71 213.295C2215.83 205.416 2205.14 200.99 2194 200.99V193Z" fill="black"/>
<path d="M2093 293C2075.01 293 2057.19 289.814 2040.57 282.653C2023.95 275.492 2008.85 264.995 1996.13 251.763C1983.4 238.53 1973.31 222.821 1966.43 205.532C1959.54 188.244 1956 169.713 1956 151C1956 132.287 1959.54 113.757 1966.43 96.4677C1973.31 79.1788 1983.4 63.4697 1996.13 50.2373C2008.85 37.005 2023.95 26.5085 2040.57 19.3472C2057.19 12.1859 2075.01 8.50006 2093 8.50006V16.5001C2076.09 16.5001 2059.34 20.5148 2043.72 27.2464C2028.09 33.978 2013.9 43.8447 2001.94 56.2831C1989.98 68.7215 1980.49 83.488 1974.02 99.7396C1967.55 115.991 1964.22 133.41 1964.22 151C1964.22 168.591 1967.55 186.009 1974.02 202.261C1980.49 218.512 1989.98 233.279 2001.94 245.717C2013.9 258.155 2028.09 268.022 2043.72 274.754C2059.34 281.485 2076.09 285 2093 285V293Z" fill="black"/>
<path fill-rule="evenodd" clip-rule="evenodd" d="M2093 285H2194V293H2093V285ZM2093 193H2194V201H2093V193Z" fill="black"/>
<path d="M2193.5 385.5C2206.83 385.5 2219.62 380.204 2229.05 370.776C2238.48 361.349 2243.77 348.563 2243.77 335.23C2243.77 321.898 2238.48 309.112 2229.05 299.684C2219.62 290.257 2206.83 284.961 2193.5 284.961V292.994C2204.7 292.994 2215.45 297.444 2223.37 305.365C2231.29 313.285 2235.74 324.029 2235.74 335.23C2235.74 346.432 2231.29 357.175 2223.37 365.096C2215.45 373.017 2204.7 377.467 2193.5 377.467V385.5Z" fill="black"/>
<path d="M2092.5 193C2079.24 193 2066.53 198.268 2057.15 207.645C2047.77 217.022 2042.5 229.739 2042.5 243C2042.5 256.261 2047.77 268.979 2057.15 278.355C2066.53 287.732 2079.24 293 2092.5 293V285.01C2081.36 285.01 2070.68 280.584 2062.8 272.706C2054.92 264.827 2050.49 254.142 2050.49 243C2050.49 231.858 2054.92 221.173 2062.8 213.295C2070.68 205.416 2081.36 200.99 2092.5 200.99V193Z" fill="black"/>
<path d="M2007 377.5C1993.74 377.5 1981.02 382.768 1971.64 392.144C1962.27 401.521 1957 414.239 1957 427.5C1957 440.761 1962.27 453.478 1971.64 462.855C1981.02 472.232 1993.74 477.5 2007 477.5V469.51C1995.86 469.51 1985.17 465.084 1977.29 457.205C1969.42 449.327 1964.99 438.641 1964.99 427.5C1964.99 416.358 1969.42 405.673 1977.29 397.794C1985.17 389.916 1995.86 385.49 2007 385.49V377.5Z" fill="black"/>
<path d="M2194 477.5C2211.99 477.5 2229.81 474.314 2246.43 467.153C2263.05 459.992 2278.15 449.495 2290.87 436.263C2303.6 423.03 2313.69 407.321 2320.57 390.032C2327.46 372.744 2331 354.213 2331 335.5C2331 316.787 2327.46 298.257 2320.57 280.968C2313.69 263.679 2303.6 247.97 2290.87 234.737C2278.15 221.505 2263.05 211.009 2246.43 203.847C2229.81 196.686 2211.99 193 2194 193V201C2210.91 201 2227.66 205.015 2243.28 211.746C2258.91 218.478 2273.1 228.345 2285.06 240.783C2297.02 253.221 2306.51 267.988 2312.98 284.24C2319.45 300.491 2322.78 317.909 2322.78 335.5C2322.78 353.091 2319.45 370.509 2312.98 386.76C2306.51 403.012 2297.02 417.779 2285.06 430.217C2273.1 442.655 2258.91 452.522 2243.28 459.254C2227.66 465.985 2210.91 469.5 2194 469.5V477.5Z" fill="black"/>
<path fill-rule="evenodd" clip-rule="evenodd" d="M2194 469.5L2007 469.5V477.5L2194 477.5V469.5ZM2194 377.5H2007V385.5H2194V377.5Z" fill="black"/>
<path fill-rule="evenodd" clip-rule="evenodd" d="M2561.08 280.316V56.3156H2569.08V280.316H2561.08ZM2469.08 280.316V56.3156H2477.08V280.316H2469.08Z" fill="black"/>
<path d="M2569.08 56.3156C2569.08 43.0548 2563.81 30.3371 2554.44 20.9603C2545.06 11.5835 2532.34 6.31561 2519.08 6.31561C2505.82 6.31561 2493.1 11.5835 2483.72 20.9603C2474.35 30.3371 2469.08 43.0548 2469.08 56.3156L2477.07 56.3156C2477.07 45.1739 2481.5 34.4885 2489.37 26.6101C2497.25 18.7318 2507.94 14.3057 2519.08 14.3057C2530.22 14.3057 2540.91 18.7318 2548.79 26.6101C2556.66 34.4885 2561.09 45.1739 2561.09 56.3156H2569.08Z" fill="black"/>
<path fill-rule="evenodd" clip-rule="evenodd" d="M2561.08 205.316V429.316H2569.08V205.316H2561.08ZM2469.08 205.316V429.316H2477.08V205.316H2469.08Z" fill="black"/>
<path d="M2569.08 429.316C2569.08 442.576 2563.81 455.294 2554.44 464.671C2545.06 474.048 2532.34 479.316 2519.08 479.316C2505.82 479.316 2493.1 474.048 2483.72 464.671C2474.35 455.294 2469.08 442.576 2469.08 429.316H2477.07C2477.07 440.457 2481.5 451.143 2489.37 459.021C2497.25 466.899 2507.94 471.326 2519.08 471.326C2530.22 471.326 2540.91 466.899 2548.79 459.021C2556.66 451.143 2561.09 440.457 2561.09 429.316H2569.08Z" fill="black"/>
<path fill-rule="evenodd" clip-rule="evenodd" d="M2824.08 280.316V56.3156H2832.08V280.316H2824.08ZM2732.08 280.316V56.3156H2740.08V280.316H2732.08Z" fill="black"/>
<path d="M2832.08 56.3156C2832.08 43.0548 2826.81 30.3371 2817.43 20.9603C2808.06 11.5835 2795.34 6.31564 2782.08 6.31563C2768.82 6.31563 2756.1 11.5835 2746.72 20.9603C2737.35 30.3371 2732.08 43.0548 2732.08 56.3156L2740.07 56.3156C2740.07 45.1739 2744.5 34.4885 2752.37 26.6102C2760.25 18.7318 2770.94 14.3058 2782.08 14.3058C2793.22 14.3058 2803.91 18.7318 2811.78 26.6102C2819.66 34.4885 2824.09 45.1739 2824.09 56.3156H2832.08Z" fill="black"/>
<path fill-rule="evenodd" clip-rule="evenodd" d="M2824.08 205.316V429.316H2832.08V205.316H2824.08ZM2732.08 205.316V429.316H2740.08V205.316H2732.08Z" fill="black"/>
<path d="M2832.08 429.316C2832.08 442.576 2826.81 455.294 2817.43 464.671C2808.06 474.048 2795.34 479.316 2782.08 479.316C2768.82 479.316 2756.1 474.048 2746.72 464.671C2737.35 455.294 2732.08 442.576 2732.08 429.316H2740.07C2740.07 440.457 2744.5 451.143 2752.37 459.021C2760.25 466.899 2770.94 471.326 2782.08 471.326C2793.22 471.326 2803.91 466.899 2811.78 459.021C2819.66 451.143 2824.09 440.457 2824.09 429.316H2832.08Z" fill="black"/>
<path fill-rule="evenodd" clip-rule="evenodd" d="M2485.31 79.7266L2747.09 453.585L2740.54 458.174L2478.76 84.3153L2485.31 79.7266ZM2560.67 26.9576L2822.45 400.816L2815.9 405.405L2554.12 31.5462L2560.67 26.9576Z" fill="black"/>
<path d="M2740.38 458.121C2747.99 468.983 2759.6 476.38 2772.66 478.682C2785.72 480.985 2799.16 478.006 2810.02 470.399C2820.88 462.793 2828.28 451.184 2830.58 438.124C2832.88 425.065 2829.9 411.626 2822.3 400.763L2815.75 405.346C2822.14 414.473 2824.65 425.764 2822.71 436.737C2820.78 447.709 2814.56 457.464 2805.43 463.854C2796.31 470.245 2785.02 472.748 2774.04 470.814C2763.07 468.879 2753.32 462.664 2746.93 453.538L2740.38 458.121Z" fill="black"/>
<path d="M2560.67 26.9576C2553.07 16.095 2541.46 8.69877 2528.4 6.39605C2515.34 4.09334 2501.9 7.07274 2491.04 14.6788C2480.17 22.2849 2472.78 33.8947 2470.48 46.954C2468.17 60.0134 2471.15 73.4526 2478.76 84.3153L2485.3 79.7323C2478.91 70.6056 2476.41 59.3139 2478.34 48.3415C2480.28 37.3691 2486.49 27.6146 2495.62 21.224C2504.75 14.8333 2516.04 12.3301 2527.01 14.2648C2537.98 16.1995 2547.74 22.4138 2554.13 31.5406L2560.67 26.9576Z" fill="black"/>
<path fill-rule="evenodd" clip-rule="evenodd" d="M3062 282V58.0001H3070V282H3062ZM2970 282V58.0001H2978V282H2970Z" fill="black"/>
<path d="M3070 58.0001C3070 44.7392 3064.73 32.0215 3055.36 22.6447C3045.98 13.2679 3033.26 8.00006 3020 8.00006C3006.74 8.00006 2994.02 13.2679 2984.64 22.6447C2975.27 32.0215 2970 44.7392 2970 58.0001L2977.99 58.0001C2977.99 46.8583 2982.42 36.173 2990.29 28.2946C2998.17 20.4162 3008.86 15.9902 3020 15.9902C3031.14 15.9902 3041.83 20.4162 3049.71 28.2946C3057.58 36.173 3062.01 46.8584 3062.01 58.0001H3070Z" fill="black"/>
<path fill-rule="evenodd" clip-rule="evenodd" d="M3062 203V427H3070V203H3062ZM2970 203V427H2978V203H2970Z" fill="black"/>
<path d="M3070 427C3070 440.261 3064.73 452.979 3055.36 462.355C3045.98 471.732 3033.26 477 3020 477C3006.74 477 2994.02 471.732 2984.64 462.355C2975.27 452.979 2970 440.261 2970 427H2977.99C2977.99 438.142 2982.42 448.827 2990.29 456.706C2998.17 464.584 3008.86 469.01 3020 469.01C3031.14 469.01 3041.83 464.584 3049.71 456.706C3057.58 448.827 3062.01 438.142 3062.01 427H3070Z" fill="black"/>
<path fill-rule="evenodd" clip-rule="evenodd" d="M3244 16.0001L3020 16.0001V8.00006L3244 8.00005V16.0001ZM3244 108L3020 108V100L3244 100V108Z" fill="black"/>
<path d="M3020 8.00006C3006.74 8.00006 2994.02 13.2679 2984.64 22.6447C2975.27 32.0215 2970 44.7392 2970 58.0001C2970 71.2609 2975.27 83.9786 2984.64 93.3554C2994.02 102.732 3006.74 108 3020 108V100.01C3008.86 100.01 2998.17 95.5839 2990.29 87.7055C2982.42 79.8271 2977.99 69.1418 2977.99 58.0001C2977.99 46.8583 2982.42 36.173 2990.29 28.2946C2998.17 20.4162 3008.86 15.9902 3020 15.9902V8.00006Z" fill="black"/>
<path d="M3244 108C3257.26 108 3269.98 102.732 3279.36 93.3554C3288.73 83.9786 3294 71.2609 3294 58.0001C3294 44.7392 3288.73 32.0215 3279.36 22.6447C3269.98 13.2679 3257.26 8.00005 3244 8.00005V15.9902C3255.14 15.9902 3265.83 20.4162 3273.71 28.2946C3281.58 36.173 3286.01 46.8584 3286.01 58.0001C3286.01 69.1418 3281.58 79.8271 3273.71 87.7055C3265.83 95.5839 3255.14 100.01 3244 100.01V108Z" fill="black"/>
<path fill-rule="evenodd" clip-rule="evenodd" d="M3244 469H3020V477H3244V469ZM3244 377H3020V385H3244V377Z" fill="black"/>
<path d="M3020 477C3006.74 477 2994.02 471.732 2984.64 462.355C2975.27 452.979 2970 440.261 2970 427C2970 413.739 2975.27 401.022 2984.64 391.645C2994.02 382.268 3006.74 377 3020 377V384.99C3008.86 384.99 2998.17 389.416 2990.29 397.295C2982.42 405.173 2977.99 415.858 2977.99 427C2977.99 438.142 2982.42 448.827 2990.29 456.706C2998.17 464.584 3008.86 469.01 3020 469.01V477Z" fill="black"/>
<path d="M3244 377C3257.26 377 3269.98 382.268 3279.36 391.645C3288.73 401.022 3294 413.739 3294 427C3294 440.261 3288.73 452.979 3279.36 462.355C3269.98 471.732 3257.26 477 3244 477V469.01C3255.14 469.01 3265.83 464.584 3273.71 456.706C3281.58 448.827 3286.01 438.142 3286.01 427C3286.01 415.858 3281.58 405.173 3273.71 397.295C3265.83 389.416 3255.14 384.99 3244 384.99V377Z" fill="black"/>
<path fill-rule="evenodd" clip-rule="evenodd" d="M3244 284H3020V292H3244V284ZM3244 192L3020 192V200L3244 200V192Z" fill="black"/>
<path d="M3020 292C3006.74 292 2994.02 286.732 2984.64 277.355C2975.27 267.979 2970 255.261 2970 242C2970 228.739 2975.27 216.022 2984.64 206.645C2994.02 197.268 3006.74 192 3020 192V199.99C3008.86 199.99 2998.17 204.416 2990.29 212.295C2982.42 220.173 2977.99 230.858 2977.99 242C2977.99 253.142 2982.42 263.827 2990.29 271.706C2998.17 279.584 3008.86 284.01 3020 284.01V292Z" fill="black"/>
<path d="M3244 192C3257.26 192 3269.98 197.268 3279.36 206.645C3288.73 216.022 3294 228.739 3294 242C3294 255.261 3288.73 267.979 3279.36 277.355C3269.98 286.732 3257.26 292 3244 292V284.01C3255.14 284.01 3265.83 279.584 3273.71 271.706C3281.58 263.827 3286.01 253.142 3286.01 242C3286.01 230.858 3281.58 220.173 3273.71 212.295C3265.83 204.416 3255.14 199.99 3244 199.99V192Z" fill="black"/>
<path fill-rule="evenodd" clip-rule="evenodd" d="M3598.23 252.212L3521.61 41.7209L3529.13 38.9848L3605.74 249.476L3598.23 252.212ZM3511.78 283.678L3435.16 73.1868L3442.68 70.4506L3519.29 280.942L3511.78 283.678Z" fill="black"/>
<path d="M3529.13 38.9848C3524.6 26.5237 3515.3 16.3746 3503.28 10.7704C3491.26 5.1661 3477.51 4.56566 3465.05 9.10113C3452.59 13.6366 3442.44 22.9365 3436.83 34.9548C3431.23 46.9732 3430.63 60.7257 3435.16 73.1868L3442.67 70.454C3438.86 59.9842 3439.36 48.4294 3444.07 38.3316C3448.78 28.2338 3457.31 20.4201 3467.78 16.6094C3478.25 12.7987 3489.8 13.3032 3499.9 18.0119C3510 22.7206 3517.81 31.2478 3521.62 41.7175L3529.13 38.9848Z" fill="black"/>
<path fill-rule="evenodd" clip-rule="evenodd" d="M3580.51 203.736L3657.13 414.228L3664.64 411.491L3588.03 201L3580.51 203.736ZM3494.06 235.202L3570.67 445.693L3578.19 442.957L3501.58 232.466L3494.06 235.202Z" fill="black"/>
<path d="M3664.64 411.491C3669.18 423.953 3668.58 437.705 3662.97 449.723C3657.37 461.742 3647.22 471.042 3634.76 475.577C3622.3 480.113 3608.55 479.512 3596.53 473.908C3584.51 468.304 3575.21 458.155 3570.67 445.693L3578.18 442.961C3581.99 453.431 3589.81 461.958 3599.9 466.666C3610 471.375 3621.56 471.88 3632.03 468.069C3642.5 464.258 3651.02 456.444 3655.73 446.347C3660.44 436.249 3660.95 424.694 3657.14 414.224L3664.64 411.491Z" fill="black"/>
<path fill-rule="evenodd" clip-rule="evenodd" d="M3637.64 252.212L3714.25 41.7209L3706.74 38.9847L3630.12 249.476L3637.64 252.212ZM3724.09 283.678L3800.7 73.1867L3793.19 70.4505L3716.57 280.942L3724.09 283.678Z" fill="black"/>
<path d="M3706.74 38.9847C3711.27 26.5236 3720.57 16.3746 3732.59 10.7703C3744.61 5.16604 3758.36 4.5656 3770.82 9.10106C3783.28 13.6365 3793.43 22.9364 3799.04 34.9548C3804.64 46.9732 3805.24 60.7256 3800.7 73.1867L3793.2 70.4539C3797.01 59.9841 3796.5 48.4294 3791.79 38.3316C3787.09 28.2337 3778.56 20.42 3768.09 16.6093C3757.62 12.7986 3746.06 13.3031 3735.97 18.0118C3725.87 22.7205 3718.05 31.2477 3714.24 41.7175L3706.74 38.9847Z" fill="black"/>
<path fill-rule="evenodd" clip-rule="evenodd" d="M3655.35 203.736L3578.74 414.228L3571.22 411.491L3647.84 201L3655.35 203.736ZM3741.81 235.202L3665.19 445.693L3657.68 442.957L3734.29 232.466L3741.81 235.202Z" fill="black"/>
<path d="M3571.22 411.491C3566.69 423.953 3567.29 437.705 3572.89 449.723C3578.5 461.742 3588.65 471.042 3601.11 475.577C3613.57 480.113 3627.32 479.512 3639.34 473.908C3651.36 468.304 3660.66 458.155 3665.19 445.693L3657.69 442.961C3653.87 453.43 3646.06 461.958 3635.96 466.666C3625.86 471.375 3614.31 471.879 3603.84 468.069C3593.37 464.258 3584.84 456.444 3580.14 446.347C3575.43 436.249 3574.92 424.694 3578.73 414.224L3571.22 411.491Z" fill="black"/>
<path fill-rule="evenodd" clip-rule="evenodd" d="M4045.23 233.466L3968.61 443.957L3976.13 446.694L4052.74 236.202L4045.23 233.466ZM3958.78 202L3882.16 412.492L3889.68 415.228L3966.29 204.737L3958.78 202Z" fill="black"/>
<path d="M3976.13 446.694C3971.6 459.155 3962.3 469.304 3950.28 474.908C3938.26 480.512 3924.51 481.113 3912.05 476.577C3899.59 472.042 3889.44 462.742 3883.83 450.724C3878.23 438.705 3877.63 424.953 3882.16 412.492L3889.67 415.224C3885.86 425.694 3886.36 437.249 3891.07 447.347C3895.78 457.445 3904.31 465.258 3914.78 469.069C3925.25 472.88 3936.8 472.375 3946.9 467.666C3957 462.958 3964.81 454.431 3968.62 443.961L3976.13 446.694Z" fill="black"/>
<path fill-rule="evenodd" clip-rule="evenodd" d="M4027.51 281.942L4104.13 71.4507L4111.64 74.1869L4035.03 284.678L4027.51 281.942ZM3941.06 250.476L4017.67 39.9849L4025.19 42.721L3948.58 253.212L3941.06 250.476Z" fill="black"/>
<path d="M4111.64 74.1869C4116.18 61.7258 4115.58 47.9733 4109.97 35.955C4104.37 23.9366 4094.22 14.6367 4081.76 10.1012C4069.3 5.56576 4055.55 6.16621 4043.53 11.7705C4031.51 17.3747 4022.21 27.5238 4017.67 39.9849L4025.18 42.7176C4028.99 32.2479 4036.81 23.7207 4046.9 19.012C4057 14.3033 4068.56 13.7988 4079.03 17.6095C4089.5 21.4202 4098.02 29.2339 4102.73 39.3317C4107.44 49.4295 4107.95 60.9843 4104.14 71.4541L4111.64 74.1869Z" fill="black"/>
<path fill-rule="evenodd" clip-rule="evenodd" d="M4084.64 233.466L4161.25 443.957L4153.74 446.694L4077.12 236.202L4084.64 233.466ZM4171.09 202L4247.7 412.492L4240.19 415.228L4163.57 204.737L4171.09 202Z" fill="black"/>
<path d="M4153.74 446.694C4158.27 459.155 4167.57 469.304 4179.59 474.908C4191.61 480.512 4205.36 481.113 4217.82 476.577C4230.28 472.042 4240.43 462.742 4246.04 450.724C4251.64 438.705 4252.24 424.953 4247.7 412.492L4240.2 415.224C4244.01 425.694 4243.5 437.249 4238.79 447.347C4234.09 457.445 4225.56 465.258 4215.09 469.069C4204.62 472.88 4193.06 472.375 4182.97 467.667C4172.87 462.958 4165.05 454.431 4161.24 443.961L4153.74 446.694Z" fill="black"/>
<path fill-rule="evenodd" clip-rule="evenodd" d="M4102.35 281.942L4025.74 71.4508L4018.22 74.1869L4094.84 284.678L4102.35 281.942ZM4188.81 250.476L4112.19 39.9849L4104.68 42.7211L4181.29 253.212L4188.81 250.476Z" fill="black"/>
<path d="M4018.22 74.1869C4013.69 61.7258 4014.29 47.9734 4019.89 35.955C4025.5 23.9366 4035.65 14.6368 4048.11 10.1013C4060.57 5.56582 4074.32 6.16627 4086.34 11.7705C4098.36 17.3748 4107.66 27.5238 4112.19 39.9849L4104.69 42.7177C4100.87 32.2479 4093.06 23.7207 4082.96 19.012C4072.86 14.3034 4061.31 13.7989 4050.84 17.6096C4040.37 21.4202 4031.84 29.234 4027.14 39.3318C4022.43 49.4296 4021.92 60.9844 4025.73 71.4541L4018.22 74.1869Z" fill="black"/>
<path fill-rule="evenodd" clip-rule="evenodd" d="M4162 358H3968V366H4162V358ZM4162 266H3968V274H4162V266Z" fill="black"/>
<path d="M3971 366C3957.74 366 3945.02 360.732 3935.64 351.356C3926.27 341.979 3921 329.261 3921 316C3921 302.739 3926.27 290.022 3935.64 280.645C3945.02 271.268 3957.74 266 3971 266V273.99C3959.86 273.99 3949.17 278.416 3941.29 286.295C3933.42 294.173 3928.99 304.859 3928.99 316C3928.99 327.142 3933.42 337.827 3941.29 345.706C3949.17 353.584 3959.86 358.01 3971 358.01V366Z" fill="black"/>
<path d="M4159 266C4172.26 266 4184.98 271.268 4194.36 280.645C4203.73 290.022 4209 302.739 4209 316C4209 329.261 4203.73 341.979 4194.36 351.356C4184.98 360.732 4172.26 366 4159 366V358.01C4170.14 358.01 4180.83 353.584 4188.71 345.706C4196.58 337.827 4201.01 327.142 4201.01 316C4201.01 304.859 4196.58 294.173 4188.71 286.295C4180.83 278.416 4170.14 273.99 4159 273.99V266Z" fill="black"/>
<path d="M105 58.3155H97L97 282.316H105L105 58.3155ZM105 58.3155C105 45.0547 99.7321 32.337 90.3553 22.9602C80.9785 13.5834 68.2608 8.31554 55 8.31554C41.7392 8.31554 29.0215 13.5834 19.6447 22.9602C10.2678 32.337 5 45.0547 5 58.3155M105 58.3155H97.0099C97.0099 47.1738 92.5838 36.4885 84.7055 28.6101C76.8271 20.7317 66.1417 16.3057 55 16.3057C43.8583 16.3057 33.1729 20.7317 25.2945 28.6101C17.4162 36.4884 12.9901 47.1738 12.9901 58.3155L5 58.3155M5 58.3155L5.00001 282.316H13L13 58.3155H5ZM105 426.316H97L97 202.316H105L105 426.316ZM105 426.316C105 439.576 99.7321 452.294 90.3553 461.671C80.9785 471.048 68.2608 476.316 55 476.316C41.7392 476.316 29.0215 471.048 19.6447 461.671C10.2678 452.294 5 439.576 5 426.316M105 426.316H97.0099C97.0099 437.457 92.5838 448.143 84.7055 456.021C76.8271 463.899 66.1417 468.325 55 468.325C43.8583 468.325 33.1729 463.899 25.2945 456.021C17.4162 448.143 12.9901 437.457 12.9901 426.316H5M5 426.316L5.00001 202.316H13L13 426.316H5ZM55.9999 192.316C42.7391 192.316 30.0214 197.583 20.6446 206.96C11.2678 216.337 5.99992 229.055 5.99992 242.316C5.99992 255.576 11.2678 268.294 20.6446 277.671C30.0214 287.048 42.7391 292.316 55.9999 292.316M55.9999 192.316V200.306C44.8582 200.306 34.1728 204.732 26.2945 212.61C18.4161 220.488 13.99 231.174 13.99 242.316C13.99 253.457 18.4161 264.143 26.2944 272.021C34.1728 279.899 44.8582 284.325 55.9999 284.325V292.316M55.9999 192.316L56 200.316H243M55.9999 192.316H243M55.9999 292.316H243M55.9999 292.316L56 284.316H243M243 200.316V192.316M243 200.316C259.912 200.316 276.658 203.83 292.282 210.562C307.906 217.293 322.103 227.16 334.061 239.599C346.02 252.037 355.505 266.804 361.977 283.055C368.449 299.307 371.78 316.725 371.78 334.316C371.78 351.906 368.449 369.324 361.977 385.576C355.505 401.828 346.02 416.594 334.061 429.033C322.103 441.471 307.906 451.338 292.282 458.069C276.658 464.801 259.912 468.816 243 468.816V476.816C260.991 476.816 278.806 473.13 295.428 465.968C312.049 458.807 327.152 448.311 339.874 435.078C352.595 421.846 362.687 406.137 369.571 388.848C376.456 371.559 380 353.029 380 334.316C380 315.602 376.456 297.072 369.571 279.783C362.687 262.494 352.595 246.785 339.874 233.553C327.152 220.32 312.049 209.824 295.428 202.663C278.806 195.501 260.991 192.316 243 192.316M243 292.316V284.316M243 292.316C260.991 292.316 278.806 289.13 295.428 281.968C312.049 274.807 327.152 264.311 339.874 251.078C352.595 237.846 362.687 222.137 369.571 204.848C376.456 187.559 380 169.029 380 150.316C380 131.602 376.456 113.072 369.571 95.7831C362.687 78.4943 352.595 62.7852 339.874 49.5528C327.152 36.3205 312.049 25.824 295.428 18.6627C278.806 11.5014 260.991 7.81554 243 7.81554V15.8155C259.912 15.8155 276.658 19.8303 292.282 26.5619C307.906 33.2935 322.103 43.1602 334.061 55.5986C346.02 68.037 355.505 82.8035 361.977 99.0551C368.449 115.307 371.78 132.725 371.78 150.316C371.78 167.906 368.449 185.324 361.977 201.576C355.505 217.828 346.02 232.594 334.061 245.033C322.103 257.471 307.906 267.338 292.282 274.069C276.658 280.801 259.912 284.316 243 284.316M618 58.3155H610V282.316H618V58.3155ZM618 58.3155C618 45.0547 612.732 32.337 603.355 22.9602C593.979 13.5834 581.261 8.31554 568 8.31554M618 58.3155H610.01C610.01 47.1738 605.584 36.4885 597.705 28.6101C589.827 20.7317 579.142 16.3057 568 16.3057M518 58.3155V282.316H526V58.3155H518ZM518 58.3155C518 45.0547 523.268 32.337 532.645 22.9602C542.021 13.5834 554.739 8.31554 568 8.31554M518 58.3155L525.99 58.3155M518 58.3155C518 71.5764 523.268 84.2941 532.645 93.6709C542.021 103.048 554.739 108.316 568 108.316M568 8.31554V16.3155L792 16.3155V8.31553M568 8.31554L792 8.31553M568 8.31554V16.3057M525.99 58.3155C525.99 47.1738 530.416 36.4884 538.295 28.6101C546.173 20.7317 556.858 16.3057 568 16.3057M525.99 58.3155C525.99 69.4572 530.416 80.1426 538.294 88.021C546.173 95.8994 556.858 100.325 568 100.325V108.316M618 427.316H610V203.316H618V427.316ZM618 427.316C618 440.576 612.732 453.294 603.355 462.671C593.979 472.048 581.261 477.316 568 477.316M618 427.316H610.01C610.01 438.457 605.584 449.143 597.705 457.021C589.827 464.899 579.142 469.325 568 469.325M518 427.316V203.316H526V427.316H518ZM518 427.316C518 440.576 523.268 453.294 532.645 462.671C542.021 472.048 554.739 477.316 568 477.316M518 427.316H525.99M518 427.316C518 414.055 523.268 401.337 532.645 391.96C542.021 382.583 554.739 377.316 568 377.316M568 477.316V469.316H792V477.316M568 477.316H792M568 477.316V469.325M525.99 427.316C525.99 438.457 530.416 449.143 538.295 457.021C546.173 464.899 556.858 469.325 568 469.325M525.99 427.316C525.99 416.174 530.416 405.488 538.294 397.61C546.173 389.732 556.858 385.306 568 385.306V377.316M792 8.31553C805.261 8.31553 817.979 13.5834 827.355 22.9602C836.732 32.337 842 45.0547 842 58.3155C842 71.5764 836.732 84.2941 827.355 93.6709C817.979 103.048 805.261 108.316 792 108.316M792 8.31553V16.3057C803.142 16.3057 813.827 20.7317 821.705 28.6101C829.584 36.4885 834.01 47.1738 834.01 58.3155C834.01 69.4573 829.584 80.1426 821.705 88.021C813.827 95.8994 803.142 100.325 792 100.325V108.316M568 108.316L792 108.316M568 108.316V100.316L792 100.316V108.316M792 477.316C805.261 477.316 817.979 472.048 827.355 462.671C836.732 453.294 842 440.576 842 427.316C842 414.055 836.732 401.337 827.355 391.96C817.979 382.583 805.261 377.316 792 377.316M792 477.316V469.325C803.142 469.325 813.827 464.899 821.705 457.021C829.584 449.143 834.01 438.457 834.01 427.316C834.01 416.174 829.584 405.488 821.705 397.61C813.827 389.732 803.142 385.306 792 385.306V377.316M568 377.316H792M568 377.316V385.316H792V377.316M568 292.316V284.316H792V292.316M568 292.316H792M568 292.316C554.739 292.316 542.021 287.048 532.645 277.671C523.268 268.294 518 255.576 518 242.316C518 229.055 523.268 216.337 532.645 206.96C542.021 197.583 554.739 192.316 568 192.316M568 292.316V284.325C556.858 284.325 546.173 279.899 538.294 272.021C530.416 264.143 525.99 253.457 525.99 242.316C525.99 231.174 530.416 220.488 538.294 212.61C546.173 204.732 556.858 200.306 568 200.306V192.316M792 292.316C805.261 292.316 817.979 287.048 827.355 277.671C836.732 268.294 842 255.576 842 242.316C842 229.055 836.732 216.337 827.355 206.96C817.979 197.583 805.261 192.316 792 192.316M792 292.316V284.325C803.142 284.325 813.827 279.899 821.705 272.021C829.584 264.143 834.01 253.457 834.01 242.316C834.01 231.174 829.584 220.488 821.705 212.61C813.827 204.732 803.142 200.306 792 200.306V192.316M568 192.316L792 192.316M568 192.316V200.316L792 200.316V192.316M1080 57.3155H1072V281.316H1080V57.3155ZM1080 57.3155C1080 44.0547 1074.73 31.337 1065.36 21.9602C1055.98 12.5834 1043.26 7.31554 1030 7.31554C1016.74 7.31554 1004.02 12.5834 994.645 21.9602C985.268 31.337 980 44.0547 980 57.3155M1080 57.3155H1072.01C1072.01 46.1738 1067.58 35.4885 1059.71 27.6101C1051.83 19.7317 1041.14 15.3057 1030 15.3057C1018.86 15.3057 1008.17 19.7317 1000.29 27.6101C992.416 35.4884 987.99 46.1738 987.99 57.3155L980 57.3155M980 57.3155V281.316H988V57.3155H980ZM1080 427.316H1072V203.316H1080V427.316ZM1080 427.316C1080 440.576 1074.73 453.294 1065.36 462.671C1055.98 472.048 1043.26 477.316 1030 477.316C1016.74 477.316 1004.02 472.048 994.645 462.671C985.268 453.294 980 440.576 980 427.316M1080 427.316H1072.01C1072.01 438.457 1067.58 449.143 1059.71 457.021C1051.83 464.899 1041.14 469.325 1030 469.325C1018.86 469.325 1008.17 464.899 1000.29 457.021C992.416 449.143 987.99 438.457 987.99 427.316H980M980 427.316V203.316H988V427.316H980ZM1218 292.316C1235.99 292.316 1253.81 289.13 1270.43 281.968C1287.05 274.807 1302.15 264.311 1314.87 251.078C1327.6 237.846 1337.69 222.137 1344.57 204.848C1351.46 187.559 1355 169.029 1355 150.316C1355 131.602 1351.46 113.072 1344.57 95.7831C1337.69 78.4943 1327.6 62.7852 1314.87 49.5528C1302.15 36.3205 1287.05 25.824 1270.43 18.6627C1253.81 11.5014 1235.99 7.81554 1218 7.81554V15.8155C1234.91 15.8155 1251.66 19.8303 1267.28 26.5619C1282.91 33.2935 1297.1 43.1602 1309.06 55.5986C1321.02 68.037 1330.51 82.8035 1336.98 99.0551C1343.45 115.307 1346.78 132.725 1346.78 150.316C1346.78 167.906 1343.45 185.324 1336.98 201.576C1330.51 217.828 1321.02 232.594 1309.06 245.033C1297.1 257.471 1282.91 267.338 1267.28 274.069C1251.66 280.801 1234.91 284.316 1218 284.316M1218 292.316V284.316M1218 292.316H1031M1218 284.316H1031L1031 292.316M1031 192.316C1017.74 192.316 1005.02 197.583 995.645 206.96C986.268 216.337 981 229.055 981 242.316C981 255.576 986.268 268.294 995.645 277.671C1005.02 287.048 1017.74 292.316 1031 292.316M1031 192.316V200.306C1019.86 200.306 1009.17 204.732 1001.29 212.61C993.416 220.488 988.99 231.174 988.99 242.316C988.99 253.457 993.416 264.143 1001.29 272.021C1009.17 279.899 1019.86 284.325 1031 284.325V292.316M1031 192.316H1218V200.316H1031L1031 192.316ZM1135.68 271.631L1142.23 267.042L1270.71 450.532L1264.16 455.121M1135.68 271.631L1264.16 455.121M1135.68 271.631C1128.07 260.768 1125.09 247.329 1127.4 234.27C1129.7 221.21 1137.09 209.6 1147.96 201.994C1158.82 194.388 1172.26 191.409 1185.32 193.712C1198.38 196.014 1209.99 203.411 1217.59 214.273M1135.68 271.631L1142.22 267.048C1135.83 257.921 1133.33 246.629 1135.26 235.657C1137.2 224.685 1143.41 214.93 1152.54 208.54C1161.67 202.149 1172.96 199.646 1183.93 201.58C1194.9 203.515 1204.66 209.729 1211.05 218.856L1217.59 214.273M1264.16 455.121C1271.77 465.983 1283.38 473.38 1296.43 475.682C1309.49 477.985 1322.93 475.006 1333.8 467.4C1344.66 459.794 1352.06 448.184 1354.36 435.124C1356.66 422.065 1353.68 408.626 1346.07 397.763M1264.16 455.121L1270.7 450.538C1277.1 459.665 1286.85 465.879 1297.82 467.814C1308.79 469.748 1320.09 467.245 1329.21 460.854C1338.34 454.464 1344.55 444.709 1346.49 433.737C1348.42 422.765 1345.92 411.473 1339.53 402.346L1346.07 397.763M1217.59 214.273L1346.07 397.763M1217.59 214.273L1211.04 218.862L1339.52 402.352L1346.07 397.763M1593 58.0001H1585V282H1593V58.0001ZM1593 58.0001C1593 44.7392 1587.73 32.0215 1578.36 22.6447C1568.98 13.2679 1556.26 8.00006 1543 8.00006M1593 58.0001H1585.01C1585.01 46.8584 1580.58 36.173 1572.71 28.2946C1564.83 20.4162 1554.14 15.9902 1543 15.9902M1493 58.0001V282H1501V58.0001H1493ZM1493 58.0001C1493 44.7392 1498.27 32.0215 1507.64 22.6447C1517.02 13.2679 1529.74 8.00006 1543 8.00006M1493 58.0001L1500.99 58.0001M1493 58.0001C1493 71.2609 1498.27 83.9786 1507.64 93.3554C1517.02 102.732 1529.74 108 1543 108M1543 8.00006V16.0001L1767 16.0001V8.00005M1543 8.00006L1767 8.00005M1543 8.00006V15.9902M1500.99 58.0001C1500.99 46.8583 1505.42 36.173 1513.29 28.2946C1521.17 20.4162 1531.86 15.9902 1543 15.9902M1500.99 58.0001C1500.99 69.1418 1505.42 79.8271 1513.29 87.7055C1521.17 95.5839 1531.86 100.01 1543 100.01V108M1593 427H1585V203H1593V427ZM1593 427C1593 440.261 1587.73 452.979 1578.36 462.355C1568.98 471.732 1556.26 477 1543 477M1593 427H1585.01C1585.01 438.142 1580.58 448.827 1572.71 456.706C1564.83 464.584 1554.14 469.01 1543 469.01M1493 427V203H1501V427H1493ZM1493 427C1493 440.261 1498.27 452.979 1507.64 462.355C1517.02 471.732 1529.74 477 1543 477M1493 427H1500.99M1493 427C1493 413.739 1498.27 401.022 1507.64 391.645C1517.02 382.268 1529.74 377 1543 377M1543 477V469H1767V477M1543 477H1767M1543 477V469.01M1500.99 427C1500.99 438.142 1505.42 448.827 1513.29 456.706C1521.17 464.584 1531.86 469.01 1543 469.01M1500.99 427C1500.99 415.858 1505.42 405.173 1513.29 397.295C1521.17 389.416 1531.86 384.99 1543 384.99V377M1767 8.00005C1780.26 8.00005 1792.98 13.2679 1802.36 22.6447C1811.73 32.0215 1817 44.7392 1817 58.0001C1817 71.2609 1811.73 83.9786 1802.36 93.3554C1792.98 102.732 1780.26 108 1767 108M1767 8.00005V15.9902C1778.14 15.9902 1788.83 20.4162 1796.71 28.2946C1804.58 36.173 1809.01 46.8584 1809.01 58.0001C1809.01 69.1418 1804.58 79.8271 1796.71 87.7055C1788.83 95.5839 1778.14 100.01 1767 100.01V108M1543 108L1767 108M1543 108V100L1767 100V108M1767 477C1780.26 477 1792.98 471.732 1802.36 462.355C1811.73 452.979 1817 440.261 1817 427C1817 413.739 1811.73 401.022 1802.36 391.645C1792.98 382.268 1780.26 377 1767 377M1767 477V469.01C1778.14 469.01 1788.83 464.584 1796.71 456.706C1804.58 448.827 1809.01 438.142 1809.01 427C1809.01 415.858 1804.58 405.173 1796.71 397.295C1788.83 389.416 1778.14 384.99 1767 384.99V377M1543 377H1767M1543 377V385H1767V377M1543 292V284H1767V292M1543 292H1767M1543 292C1529.74 292 1517.02 286.732 1507.64 277.355C1498.27 267.979 1493 255.261 1493 242C1493 228.739 1498.27 216.022 1507.64 206.645C1517.02 197.268 1529.74 192 1543 192M1543 292V284.01C1531.86 284.01 1521.17 279.584 1513.29 271.706C1505.42 263.827 1500.99 253.142 1500.99 242C1500.99 230.858 1505.42 220.173 1513.29 212.295C1521.17 204.416 1531.86 199.99 1543 199.99V192M1767 292C1780.26 292 1792.98 286.732 1802.36 277.355C1811.73 267.979 1817 255.261 1817 242C1817 228.739 1811.73 216.022 1802.36 206.645C1792.98 197.268 1780.26 192 1767 192M1767 292V284.01C1778.14 284.01 1788.83 279.584 1796.71 271.706C1804.58 263.827 1809.01 253.142 1809.01 242C1809.01 230.858 1804.58 220.173 1796.71 212.295C1788.83 204.416 1778.14 199.99 1767 199.99V192M1543 192L1767 192M1543 192V200L1767 200V192M2194 193C2207.26 193 2219.98 198.268 2229.36 207.645C2238.73 217.022 2244 229.739 2244 243C2244 256.261 2238.73 268.979 2229.36 278.355C2219.98 287.732 2207.26 293 2194 293M2194 193V200.99C2205.14 200.99 2215.83 205.416 2223.71 213.295C2231.58 221.173 2236.01 231.858 2236.01 243C2236.01 254.142 2231.58 264.827 2223.71 272.706C2215.83 280.584 2205.14 285.01 2194 285.01V293M2194 193H2093V201H2194M2194 193V201M2194 193C2211.99 193 2229.81 196.686 2246.43 203.847C2263.05 211.009 2278.15 221.505 2290.87 234.737C2303.6 247.97 2313.69 263.679 2320.57 280.968C2327.46 298.257 2331 316.787 2331 335.5C2331 354.213 2327.46 372.744 2320.57 390.032C2313.69 407.321 2303.6 423.03 2290.87 436.263C2278.15 449.495 2263.05 459.992 2246.43 467.153C2229.81 474.314 2211.99 477.5 2194 477.5M2194 293V285H2093M2194 293H2093M2093 293C2075.01 293 2057.19 289.814 2040.57 282.653C2023.95 275.492 2008.85 264.995 1996.13 251.763C1983.4 238.53 1973.31 222.821 1966.43 205.532C1959.54 188.244 1956 169.713 1956 151C1956 132.287 1959.54 113.757 1966.43 96.4677C1973.31 79.1788 1983.4 63.4697 1996.13 50.2373C2008.85 37.005 2023.95 26.5085 2040.57 19.3472C2057.19 12.1859 2075.01 8.50006 2093 8.50006V16.5001C2076.09 16.5001 2059.34 20.5148 2043.72 27.2464C2028.09 33.978 2013.9 43.8447 2001.94 56.2831C1989.98 68.7215 1980.49 83.488 1974.02 99.7396C1967.55 115.991 1964.22 133.409 1964.22 151C1964.22 168.591 1967.55 186.009 1974.02 202.261C1980.49 218.512 1989.98 233.279 2001.94 245.717C2013.9 258.155 2028.09 268.022 2043.72 274.754C2059.34 281.485 2076.09 285 2093 285M2093 293V285M2194 201C2210.91 201 2227.66 205.015 2243.28 211.746C2258.91 218.478 2273.1 228.345 2285.06 240.783C2297.02 253.222 2306.51 267.988 2312.98 284.24C2319.45 300.491 2322.78 317.909 2322.78 335.5C2322.78 353.091 2319.45 370.509 2312.98 386.76C2306.51 403.012 2297.02 417.779 2285.06 430.217C2273.1 442.655 2258.91 452.522 2243.28 459.254C2227.66 465.985 2210.91 469.5 2194 469.5M2007 377.5C1993.74 377.5 1981.02 382.768 1971.64 392.144C1962.27 401.521 1957 414.239 1957 427.5C1957 440.761 1962.27 453.478 1971.64 462.855C1981.02 472.232 1993.74 477.5 2007 477.5M2007 377.5V385.49C1995.86 385.49 1985.17 389.916 1977.29 397.794C1969.42 405.673 1964.99 416.358 1964.99 427.5C1964.99 438.641 1969.42 449.327 1977.29 457.205C1985.17 465.084 1995.86 469.51 2007 469.51V477.5M2007 377.5H2194V385.5H2007V377.5ZM2007 477.5V469.5L2194 469.5M2007 477.5L2194 477.5M2194 477.5V469.5M2569.08 56.3156H2561.08V280.316H2569.08V56.3156ZM2569.08 56.3156C2569.08 43.0548 2563.81 30.3371 2554.44 20.9603C2545.06 11.5835 2532.34 6.31561 2519.08 6.31561C2505.82 6.31561 2493.1 11.5835 2483.72 20.9603C2474.35 30.3371 2469.08 43.0548 2469.08 56.3156M2569.08 56.3156H2561.09C2561.09 45.1739 2556.66 34.4885 2548.79 26.6101C2540.91 18.7318 2530.22 14.3057 2519.08 14.3057C2507.94 14.3057 2497.25 18.7318 2489.37 26.6101C2481.5 34.4885 2477.07 45.1739 2477.07 56.3156L2469.08 56.3156M2469.08 56.3156V280.316H2477.08V56.3156H2469.08ZM2569.08 429.316H2561.08V205.316H2569.08V429.316ZM2569.08 429.316C2569.08 442.576 2563.81 455.294 2554.44 464.671C2545.06 474.048 2532.34 479.316 2519.08 479.316C2505.82 479.316 2493.1 474.048 2483.72 464.671C2474.35 455.294 2469.08 442.576 2469.08 429.316M2569.08 429.316H2561.09C2561.09 440.457 2556.66 451.143 2548.79 459.021C2540.91 466.899 2530.22 471.325 2519.08 471.326C2507.94 471.326 2497.25 466.899 2489.37 459.021C2481.5 451.143 2477.07 440.457 2477.07 429.316H2469.08M2469.08 429.316V205.316H2477.08V429.316H2469.08ZM2832.08 56.3156H2824.08V280.316H2832.08V56.3156ZM2832.08 56.3156C2832.08 43.0548 2826.81 30.3371 2817.43 20.9603C2808.06 11.5835 2795.34 6.31564 2782.08 6.31563C2768.82 6.31563 2756.1 11.5835 2746.72 20.9603C2737.35 30.3371 2732.08 43.0548 2732.08 56.3156M2832.08 56.3156H2824.09C2824.09 45.1739 2819.66 34.4885 2811.78 26.6102C2803.91 18.7318 2793.22 14.3058 2782.08 14.3058C2770.94 14.3058 2760.25 18.7318 2752.37 26.6102C2744.5 34.4885 2740.07 45.1739 2740.07 56.3156L2732.08 56.3156M2732.08 56.3156V280.316H2740.08V56.3156H2732.08ZM2832.08 429.316H2824.08V205.316H2832.08V429.316ZM2832.08 429.316C2832.08 442.576 2826.81 455.294 2817.43 464.671C2808.06 474.048 2795.34 479.316 2782.08 479.316C2768.82 479.316 2756.1 474.048 2746.72 464.671C2737.35 455.294 2732.08 442.576 2732.08 429.316M2832.08 429.316H2824.09C2824.09 440.457 2819.66 451.143 2811.78 459.021C2803.91 466.899 2793.22 471.325 2782.08 471.326C2770.94 471.326 2760.25 466.899 2752.37 459.021C2744.5 451.143 2740.07 440.457 2740.07 429.316H2732.08M2732.08 429.316V205.316H2740.08V429.316H2732.08ZM2478.76 84.3153L2740.54 458.174L2747.09 453.585L2485.31 79.7266L2478.76 84.3153ZM2478.76 84.3153C2471.15 73.4526 2468.17 60.0134 2470.48 46.954C2472.78 33.8947 2480.17 22.2849 2491.04 14.6788C2501.9 7.07274 2515.34 4.09334 2528.4 6.39605C2541.46 8.69877 2553.07 16.095 2560.67 26.9576M2478.76 84.3153L2485.3 79.7323C2478.91 70.6056 2476.41 59.3139 2478.34 48.3415C2480.28 37.3691 2486.49 27.6146 2495.62 21.224C2504.75 14.8333 2516.04 12.3301 2527.01 14.2648C2537.98 16.1995 2547.74 22.4138 2554.13 31.5406L2560.67 26.9576M2560.67 26.9576L2822.45 400.816L2815.9 405.405L2554.12 31.5462L2560.67 26.9576ZM3070 58.0001H3062V282H3070V58.0001ZM3070 58.0001C3070 44.7392 3064.73 32.0215 3055.36 22.6447C3045.98 13.2679 3033.26 8.00006 3020 8.00006M3070 58.0001H3062.01C3062.01 46.8584 3057.58 36.173 3049.71 28.2946C3041.83 20.4162 3031.14 15.9902 3020 15.9902M2970 58.0001V282H2978V58.0001H2970ZM2970 58.0001C2970 44.7392 2975.27 32.0215 2984.64 22.6447C2994.02 13.2679 3006.74 8.00006 3020 8.00006M2970 58.0001L2977.99 58.0001M2970 58.0001C2970 71.2609 2975.27 83.9786 2984.64 93.3554C2994.02 102.732 3006.74 108 3020 108M3020 8.00006V16.0001L3244 16.0001V8.00005M3020 8.00006L3244 8.00005M3020 8.00006V15.9902M2977.99 58.0001C2977.99 46.8583 2982.42 36.173 2990.29 28.2946C2998.17 20.4162 3008.86 15.9902 3020 15.9902M2977.99 58.0001C2977.99 69.1418 2982.42 79.8271 2990.29 87.7055C2998.17 95.5839 3008.86 100.01 3020 100.01V108M3070 427H3062V203H3070V427ZM3070 427C3070 440.261 3064.73 452.979 3055.36 462.355C3045.98 471.732 3033.26 477 3020 477M3070 427H3062.01C3062.01 438.142 3057.58 448.827 3049.71 456.706C3041.83 464.584 3031.14 469.01 3020 469.01M2970 427V203H2978V427H2970ZM2970 427C2970 440.261 2975.27 452.979 2984.64 462.355C2994.02 471.732 3006.74 477 3020 477M2970 427H2977.99M2970 427C2970 413.739 2975.27 401.022 2984.64 391.645C2994.02 382.268 3006.74 377 3020 377M3020 477V469H3244V477M3020 477H3244M3020 477V469.01M2977.99 427C2977.99 438.142 2982.42 448.827 2990.29 456.706C2998.17 464.584 3008.86 469.01 3020 469.01M2977.99 427C2977.99 415.858 2982.42 405.173 2990.29 397.295C2998.17 389.416 3008.86 384.99 3020 384.99V377M3244 8.00005C3257.26 8.00005 3269.98 13.2679 3279.36 22.6447C3288.73 32.0215 3294 44.7392 3294 58.0001C3294 71.2609 3288.73 83.9786 3279.36 93.3554C3269.98 102.732 3257.26 108 3244 108M3244 8.00005V15.9902C3255.14 15.9902 3265.83 20.4162 3273.71 28.2946C3281.58 36.173 3286.01 46.8584 3286.01 58.0001C3286.01 69.1418 3281.58 79.8271 3273.71 87.7055C3265.83 95.5839 3255.14 100.01 3244 100.01V108M3020 108L3244 108M3020 108V100L3244 100V108M3244 477C3257.26 477 3269.98 471.732 3279.36 462.355C3288.73 452.979 3294 440.261 3294 427C3294 413.739 3288.73 401.022 3279.36 391.645C3269.98 382.268 3257.26 377 3244 377M3244 477V469.01C3255.14 469.01 3265.83 464.584 3273.71 456.706C3281.58 448.827 3286.01 438.142 3286.01 427C3286.01 415.858 3281.58 405.173 3273.71 397.295C3265.83 389.416 3255.14 384.99 3244 384.99V377M3020 377H3244M3020 377V385H3244V377M3020 292V284H3244V292M3020 292H3244M3020 292C3006.74 292 2994.02 286.732 2984.64 277.355C2975.27 267.979 2970 255.261 2970 242C2970 228.739 2975.27 216.022 2984.64 206.645C2994.02 197.268 3006.74 192 3020 192M3020 292V284.01C3008.86 284.01 2998.17 279.584 2990.29 271.706C2982.42 263.827 2977.99 253.142 2977.99 242C2977.99 230.858 2982.42 220.173 2990.29 212.295C2998.17 204.416 3008.86 199.99 3020 199.99V192M3244 292C3257.26 292 3269.98 286.732 3279.36 277.355C3288.73 267.979 3294 255.261 3294 242C3294 228.739 3288.73 216.022 3279.36 206.645C3269.98 197.268 3257.26 192 3244 192M3244 292V284.01C3255.14 284.01 3265.83 279.584 3273.71 271.706C3281.58 263.827 3286.01 253.142 3286.01 242C3286.01 230.858 3281.58 220.173 3273.71 212.295C3265.83 204.416 3255.14 199.99 3244 199.99V192M3020 192L3244 192M3020 192V200L3244 200V192M3529.13 38.9848L3521.61 41.7209L3598.23 252.212L3605.74 249.476L3529.13 38.9848ZM3529.13 38.9848C3524.6 26.5237 3515.3 16.3746 3503.28 10.7704C3491.26 5.1661 3477.51 4.56566 3465.05 9.10113C3452.59 13.6366 3442.44 22.9365 3436.83 34.9548C3431.23 46.9732 3430.63 60.7257 3435.16 73.1868M3529.13 38.9848L3521.62 41.7175C3517.81 31.2478 3510 22.7206 3499.9 18.0119C3489.8 13.3032 3478.25 12.7987 3467.78 16.6094C3457.31 20.4201 3448.78 28.2338 3444.07 38.3316C3439.36 48.4294 3438.86 59.9842 3442.67 70.454L3435.16 73.1868M3435.16 73.1868L3511.78 283.678L3519.29 280.942L3442.68 70.4506L3435.16 73.1868ZM3664.64 411.491L3657.13 414.228L3580.51 203.736L3588.03 201L3664.64 411.491ZM3664.64 411.491C3669.18 423.953 3668.58 437.705 3662.97 449.723C3657.37 461.742 3647.22 471.042 3634.76 475.577C3622.3 480.113 3608.55 479.512 3596.53 473.908C3584.51 468.304 3575.21 458.155 3570.67 445.693M3664.64 411.491L3657.14 414.224C3660.95 424.694 3660.44 436.249 3655.73 446.347C3651.02 456.444 3642.5 464.258 3632.03 468.069C3621.56 471.88 3610 471.375 3599.9 466.666C3589.81 461.958 3581.99 453.431 3578.18 442.961L3570.67 445.693M3570.67 445.693L3494.06 235.202L3501.58 232.466L3578.19 442.957L3570.67 445.693ZM3706.74 38.9847L3714.25 41.7209L3637.64 252.212L3630.12 249.476L3706.74 38.9847ZM3706.74 38.9847C3711.27 26.5236 3720.57 16.3746 3732.59 10.7703C3744.61 5.16604 3758.36 4.5656 3770.82 9.10106C3783.28 13.6365 3793.43 22.9364 3799.04 34.9548C3804.64 46.9732 3805.24 60.7256 3800.7 73.1867M3706.74 38.9847L3714.24 41.7175C3718.05 31.2477 3725.87 22.7205 3735.97 18.0118C3746.06 13.3031 3757.62 12.7986 3768.09 16.6093C3778.56 20.42 3787.09 28.2337 3791.79 38.3316C3796.5 48.4294 3797.01 59.9841 3793.2 70.4539L3800.7 73.1867M3800.7 73.1867L3724.09 283.678L3716.57 280.942L3793.19 70.4505L3800.7 73.1867ZM3571.22 411.491L3578.74 414.228L3655.35 203.736L3647.84 201L3571.22 411.491ZM3571.22 411.491C3566.69 423.953 3567.29 437.705 3572.89 449.723C3578.5 461.742 3588.65 471.042 3601.11 475.577C3613.57 480.113 3627.32 479.512 3639.34 473.908C3651.36 468.304 3660.66 458.155 3665.19 445.693M3571.22 411.491L3578.73 414.224C3574.92 424.694 3575.43 436.249 3580.14 446.347C3584.84 456.444 3593.37 464.258 3603.84 468.069C3614.31 471.879 3625.87 471.375 3635.96 466.666C3646.06 461.958 3653.87 453.43 3657.69 442.961L3665.19 445.693M3665.19 445.693L3741.81 235.202L3734.29 232.466L3657.68 442.957L3665.19 445.693ZM3976.13 446.694L3968.61 443.957L4045.23 233.466L4052.74 236.202L3976.13 446.694ZM3976.13 446.694C3971.6 459.155 3962.3 469.304 3950.28 474.908C3938.26 480.512 3924.51 481.113 3912.05 476.577C3899.59 472.042 3889.44 462.742 3883.83 450.724C3878.23 438.705 3877.63 424.953 3882.16 412.492M3976.13 446.694L3968.62 443.961C3964.81 454.431 3957 462.958 3946.9 467.666C3936.8 472.375 3925.25 472.88 3914.78 469.069C3904.31 465.258 3895.78 457.445 3891.07 447.347C3886.36 437.249 3885.86 425.694 3889.67 415.224L3882.16 412.492M3882.16 412.492L3958.78 202L3966.29 204.737L3889.68 415.228L3882.16 412.492ZM4111.64 74.1869L4104.13 71.4507L4027.51 281.942L4035.03 284.678L4111.64 74.1869ZM4111.64 74.1869C4116.18 61.7258 4115.58 47.9733 4109.97 35.955C4104.37 23.9366 4094.22 14.6367 4081.76 10.1012C4069.3 5.56576 4055.55 6.16621 4043.53 11.7705C4031.51 17.3747 4022.21 27.5238 4017.67 39.9849M4111.64 74.1869L4104.14 71.4541C4107.95 60.9843 4107.44 49.4295 4102.73 39.3317C4098.02 29.2339 4089.5 21.4202 4079.03 17.6095C4068.56 13.7988 4057 14.3033 4046.9 19.012C4036.81 23.7207 4028.99 32.2479 4025.18 42.7176L4017.67 39.9849M4017.67 39.9849L3941.06 250.476L3948.58 253.212L4025.19 42.721L4017.67 39.9849ZM4153.74 446.694L4161.25 443.957L4084.64 233.466L4077.12 236.202L4153.74 446.694ZM4153.74 446.694C4158.27 459.155 4167.57 469.304 4179.59 474.908C4191.61 480.512 4205.36 481.113 4217.82 476.577C4230.28 472.042 4240.43 462.742 4246.04 450.724C4251.64 438.705 4252.24 424.953 4247.7 412.492M4153.74 446.694L4161.24 443.961C4165.05 454.431 4172.87 462.958 4182.97 467.667C4193.06 472.375 4204.62 472.88 4215.09 469.069C4225.56 465.258 4234.09 457.445 4238.79 447.347C4243.5 437.249 4244.01 425.694 4240.2 415.224L4247.7 412.492M4247.7 412.492L4171.09 202L4163.57 204.737L4240.19 415.228L4247.7 412.492ZM4018.22 74.1869L4025.74 71.4508L4102.35 281.942L4094.84 284.678L4018.22 74.1869ZM4018.22 74.1869C4013.69 61.7258 4014.29 47.9734 4019.89 35.955C4025.5 23.9366 4035.65 14.6368 4048.11 10.1013C4060.57 5.56582 4074.32 6.16627 4086.34 11.7705C4098.36 17.3748 4107.66 27.5238 4112.19 39.9849M4018.22 74.1869L4025.73 71.4541C4021.92 60.9844 4022.43 49.4296 4027.14 39.3318C4031.84 29.234 4040.37 21.4202 4050.84 17.6096C4061.31 13.7989 4072.87 14.3034 4082.96 19.012C4093.06 23.7207 4100.87 32.2479 4104.69 42.7177L4112.19 39.9849M4112.19 39.9849L4188.81 250.476L4181.29 253.212L4104.68 42.7211L4112.19 39.9849ZM243 99.8178H55.0372V107.818H243V99.8178ZM243 7.82248L55.9704 7.8225V15.8225L243 15.8225V7.82248ZM242.502 200.36C255.835 200.36 268.621 195.063 278.048 185.636C287.476 176.209 292.772 163.422 292.772 150.09C292.772 136.758 287.476 123.971 278.048 114.544C268.621 105.116 255.835 99.8201 242.502 99.8201V107.853C253.704 107.853 264.447 112.303 272.368 120.224C280.289 128.145 284.739 138.888 284.739 150.09C284.739 161.292 280.289 172.035 272.368 179.956C264.447 187.876 253.704 192.326 242.502 192.326V200.36ZM56.0117 7.82272C42.7516 7.68821 29.9811 12.8268 20.5097 22.108C11.0382 31.3892 5.64166 44.0528 5.50715 57.313C5.37264 70.5731 10.5112 83.3436 19.7924 92.815C29.0737 102.286 41.7373 107.683 54.9974 107.818L55.0785 99.8279C43.9373 99.7148 33.2974 95.1807 25.4993 87.2228C17.7013 79.2649 13.3839 68.5352 13.4969 57.394C13.6099 46.2529 18.1441 35.613 26.102 27.8149C34.0598 20.0168 44.7896 15.6994 55.9307 15.8124L56.0117 7.82272ZM243 384.813H55.0372V376.813H243V384.813ZM243 476.809H55.9704V468.809H243V476.809ZM242.502 284.271C255.835 284.271 268.621 289.568 278.048 298.995C287.476 308.423 292.772 321.209 292.772 334.541C292.772 347.874 287.476 360.66 278.048 370.087C268.621 379.515 255.835 384.811 242.502 384.811V376.778C253.704 376.778 264.447 372.328 272.368 364.407C280.289 356.486 284.739 345.743 284.739 334.541C284.739 323.339 280.289 312.596 272.368 304.676C264.447 296.755 253.704 292.305 242.502 292.305V284.271ZM56.0117 476.808C42.7516 476.943 29.9811 471.804 20.5097 462.523C11.0382 453.242 5.64166 440.578 5.50715 427.318C5.37264 414.058 10.5112 401.287 19.7924 391.816C29.0737 382.345 41.7373 376.948 54.9974 376.814L55.0785 384.803C43.9373 384.916 33.2974 389.45 25.4993 397.408C17.7013 405.366 13.3839 416.096 13.4969 427.237C13.6099 438.378 18.1441 449.018 26.102 456.816C34.0598 464.614 44.7896 468.932 55.9307 468.819L56.0117 476.808ZM1218 99.8178H1030.04V107.818H1218V99.8178ZM1218 7.82248L1030.97 7.8225V15.8225L1218 15.8225V7.82248ZM1217.5 200.36C1230.83 200.36 1243.62 195.063 1253.05 185.636C1262.48 176.209 1267.77 163.422 1267.77 150.09C1267.77 136.758 1262.48 123.971 1253.05 114.544C1243.62 105.116 1230.83 99.8201 1217.5 99.8201V107.853C1228.7 107.853 1239.45 112.303 1247.37 120.224C1255.29 128.145 1259.74 138.888 1259.74 150.09C1259.74 161.292 1255.29 172.035 1247.37 179.956C1239.45 187.876 1228.7 192.326 1217.5 192.326V200.36ZM1031.01 7.82272C1017.75 7.68821 1004.98 12.8268 995.51 22.108C986.038 31.3892 980.642 44.0528 980.507 57.313C980.373 70.5731 985.511 83.3436 994.792 92.815C1004.07 102.286 1016.74 107.683 1030 107.818L1030.08 99.8279C1018.94 99.7148 1008.3 95.1807 1000.5 87.2228C992.701 79.2649 988.384 68.5352 988.497 57.394C988.61 46.2529 993.144 35.613 1001.1 27.8149C1009.06 20.0168 1019.79 15.6994 1030.93 15.8124L1031.01 7.82272ZM2093 100.502H2280.96V108.502H2093V100.502ZM2093 8.50701L2280.03 8.50702V16.507L2093 16.507V8.50701ZM2093.5 201.044C2080.17 201.044 2067.38 195.748 2057.95 186.32C2048.52 176.893 2043.23 164.107 2043.23 150.774C2043.23 137.442 2048.52 124.656 2057.95 115.228C2067.38 105.801 2080.17 100.505 2093.5 100.505V108.538C2082.3 108.538 2071.55 112.988 2063.63 120.909C2055.71 128.83 2051.26 139.573 2051.26 150.774C2051.26 161.976 2055.71 172.719 2063.63 180.64C2071.55 188.561 2082.3 193.011 2093.5 193.011V201.044ZM2279.99 8.50724C2293.25 8.37273 2306.02 13.5113 2315.49 22.7925C2324.96 32.0738 2330.36 44.7374 2330.49 57.9975C2330.63 71.2576 2325.49 84.0281 2316.21 93.4996C2306.93 102.971 2294.26 108.368 2281 108.502L2280.92 100.512C2292.06 100.399 2302.7 95.8652 2310.5 87.9073C2318.3 79.9494 2322.62 69.2197 2322.5 58.0785C2322.39 46.9374 2317.86 36.2975 2309.9 28.4994C2301.94 20.7014 2291.21 16.3839 2280.07 16.497L2279.99 8.50724ZM2193.5 385.5C2206.83 385.5 2219.62 380.204 2229.05 370.776C2238.48 361.349 2243.77 348.563 2243.77 335.23C2243.77 321.898 2238.48 309.112 2229.05 299.684C2219.62 290.257 2206.83 284.961 2193.5 284.961V292.994C2204.7 292.994 2215.45 297.444 2223.37 305.365C2231.29 313.286 2235.74 324.029 2235.74 335.23C2235.74 346.432 2231.29 357.175 2223.37 365.096C2215.45 373.017 2204.7 377.467 2193.5 377.467V385.5ZM2092.5 193C2079.24 193 2066.53 198.268 2057.15 207.645C2047.77 217.022 2042.5 229.739 2042.5 243C2042.5 256.261 2047.77 268.979 2057.15 278.355C2066.53 287.732 2079.24 293 2092.5 293V285.01C2081.36 285.01 2070.68 280.584 2062.8 272.706C2054.92 264.827 2050.49 254.142 2050.49 243C2050.49 231.858 2054.92 221.173 2062.8 213.295C2070.68 205.416 2081.36 200.99 2092.5 200.99V193ZM2740.38 458.121C2747.99 468.983 2759.6 476.38 2772.66 478.682C2785.72 480.985 2799.15 478.006 2810.02 470.399C2820.88 462.793 2828.28 451.184 2830.58 438.124C2832.88 425.065 2829.9 411.626 2822.3 400.763L2815.75 405.346C2822.14 414.473 2824.65 425.764 2822.71 436.737C2820.78 447.709 2814.56 457.464 2805.43 463.854C2796.31 470.245 2785.02 472.748 2774.04 470.814C2763.07 468.879 2753.32 462.664 2746.93 453.538L2740.38 458.121ZM3968 358H4162V366H3968V358ZM3968 266H4162V274H3968V266ZM3971 366C3957.74 366 3945.02 360.732 3935.64 351.356C3926.27 341.979 3921 329.261 3921 316C3921 302.739 3926.27 290.022 3935.64 280.645C3945.02 271.268 3957.74 266 3971 266V273.99C3959.86 273.99 3949.17 278.416 3941.29 286.295C3933.42 294.173 3928.99 304.859 3928.99 316C3928.99 327.142 3933.42 337.827 3941.29 345.706C3949.17 353.584 3959.86 358.01 3971 358.01V366ZM4159 266C4172.26 266 4184.98 271.268 4194.36 280.645C4203.73 290.022 4209 302.739 4209 316C4209 329.261 4203.73 341.979 4194.36 351.356C4184.98 360.732 4172.26 366 4159 366V358.01C4170.14 358.01 4180.83 353.584 4188.71 345.706C4196.58 337.827 4201.01 327.142 4201.01 316C4201.01 304.859 4196.58 294.173 4188.71 286.295C4180.83 278.416 4170.14 273.99 4159 273.99V266Z" stroke="black" stroke-width="10"/>
</svg>
