<svg width="26" height="26" viewBox="0 0 26 26" fill="none" xmlns="http://www.w3.org/2000/svg">
<path d="M2.01901 2.73007C0.261719 4.48736 0.261719 7.31603 0.261719 12.9728V13.9728C0.261719 19.6295 0.261719 22.4582 2.01901 24.2155C3.7763 25.9728 6.60497 25.9728 12.2617 25.9728H13.2617C18.9185 25.9728 21.7472 25.9728 23.5044 24.2155C25.2617 22.4582 25.2617 19.6295 25.2617 13.9728V12.9728C25.2617 7.31603 25.2617 4.48736 23.5044 2.73007C21.7472 0.972778 18.9185 0.972778 13.2617 0.972778H12.2617C6.60497 0.972778 3.7763 0.972778 2.01901 2.73007ZM4.48047 8.57696H7.33465C7.4284 13.3478 9.53253 15.3686 11.1992 15.7853V8.57696H13.8867V12.6915C15.5325 12.5145 17.2617 10.6395 17.845 8.57696H20.5325C20.3127 9.64661 19.8744 10.6593 19.2453 11.552C18.6162 12.4445 17.8098 13.1977 16.8763 13.7645C17.9185 14.2819 18.8391 15.0146 19.5771 15.9142C20.3151 16.8139 20.8538 17.8599 21.1575 18.9832H18.1992C17.9266 18.0075 17.3719 17.1341 16.6046 16.4724C15.8374 15.8109 14.8919 15.3906 13.8867 15.2645V18.9832H13.5638C7.8659 18.9832 4.61589 15.077 4.48047 8.57696Z" fill="black"/>
</svg>
