<svg width="305" height="36" viewBox="0 0 305 36" fill="none" xmlns="http://www.w3.org/2000/svg">
<path fill-rule="evenodd" clip-rule="evenodd" d="M6.4894 20.7909L6.4894 5.07397L7.05371 5.07397L7.05371 20.7909L6.4894 20.7909ZM-0.000157258 20.7909L-0.000157949 5.07397L0.564152 5.07397L0.564152 20.7909L-0.000157258 20.7909Z" fill="white"/>
<path d="M7.05387 5.07391C7.05387 4.14347 6.68228 3.25113 6.02085 2.59321C5.35943 1.93529 4.46234 1.56567 3.52694 1.56567C2.59153 1.56567 1.69444 1.93529 1.03302 2.59321C0.371587 3.25113 1.41242e-07 4.14347 0 5.07391H0.563613C0.563613 4.29216 0.87582 3.54242 1.43155 2.98963C1.98728 2.43685 2.74101 2.1263 3.52694 2.1263C4.31286 2.1263 5.06659 2.43685 5.62232 2.98963C6.17805 3.54242 6.49026 4.29216 6.49026 5.07391H7.05387Z" fill="white"/>
<path fill-rule="evenodd" clip-rule="evenodd" d="M6.4894 15.1776L6.4894 30.8945L7.05371 30.8945L7.05371 15.1776L6.4894 15.1776ZM-0.000157258 15.1776L-0.000157949 30.8945L0.564152 30.8945L0.564152 15.1776L-0.000157258 15.1776Z" fill="white"/>
<path d="M7.05387 30.8946C7.05387 31.825 6.68228 32.7174 6.02085 33.3753C5.35943 34.0332 4.46234 34.4028 3.52694 34.4028C2.59153 34.4028 1.69444 34.0332 1.03302 33.3753C0.371587 32.7174 1.41242e-07 31.825 0 30.8946H0.563613C0.563613 31.6764 0.87582 32.4261 1.43155 32.9789C1.98728 33.5317 2.74101 33.8422 3.52694 33.8422C4.31286 33.8422 5.06659 33.5317 5.62232 32.9789C6.17805 32.4261 6.49026 31.6764 6.49026 30.8946H7.05387Z" fill="white"/>
<path fill-rule="evenodd" clip-rule="evenodd" d="M3.52935 7.98582L16.788 7.98582L16.788 8.54714L3.52935 8.54714L3.52935 7.98582ZM3.59518 1.531L16.788 1.531L16.788 2.09232L3.59518 2.09232L3.59518 1.531Z" fill="white"/>
<path d="M16.7529 15.0404C17.6933 15.0404 18.5952 14.6688 19.2602 14.0073C19.9252 13.3459 20.2988 12.4487 20.2988 11.5132C20.2988 10.5778 19.9252 9.68064 19.2602 9.01917C18.5952 8.3577 17.6933 7.98608 16.7529 7.98608V8.54973C17.543 8.54973 18.3008 8.86196 18.8596 9.41773C19.4183 9.97349 19.7322 10.7273 19.7322 11.5132C19.7322 12.2992 19.4183 13.053 18.8596 13.6088C18.3008 14.1645 17.543 14.4768 16.7529 14.4768V15.0404Z" fill="white"/>
<path d="M3.5983 1.53095C2.66295 1.52151 1.76214 1.88206 1.09403 2.53327C0.42593 3.18448 0.0452628 4.07302 0.0357747 5.00342C0.0262866 5.93381 0.388755 6.82985 1.04344 7.49441C1.69813 8.15897 2.5914 8.53762 3.52675 8.54706L3.53247 7.98646C2.74659 7.97853 1.99606 7.66039 1.446 7.10203C0.895932 6.54367 0.591387 5.79082 0.599359 5.0091C0.607331 4.22739 0.927166 3.48084 1.48851 2.93369C2.04984 2.38654 2.8067 2.08361 3.59259 2.09154L3.5983 1.53095Z" fill="white"/>
<path d="M3.59725 14.476C2.66185 14.476 1.76476 14.8456 1.10333 15.5035C0.441899 16.1614 0.0703126 17.0538 0.0703125 17.9842C0.0703124 18.9146 0.441899 19.807 1.10333 20.4649C1.76476 21.1228 2.66185 21.4924 3.59725 21.4924V20.9318C2.81133 20.9318 2.05759 20.6213 1.50186 20.0685C0.946132 19.5157 0.633926 18.7659 0.633926 17.9842C0.633926 17.2024 0.946132 16.4527 1.50186 15.8999C2.05759 15.3471 2.81133 15.0366 3.59725 15.0366V14.476Z" fill="white"/>
<path fill-rule="evenodd" clip-rule="evenodd" d="M3.52935 27.9824L16.788 27.9824L16.788 27.4211L3.52935 27.4211L3.52935 27.9824ZM3.59518 34.4373L16.788 34.4373L16.788 33.8759L3.59518 33.8759L3.59518 34.4373Z" fill="white"/>
<path d="M16.7529 20.9279C17.6933 20.9279 18.5952 21.2995 19.2602 21.9609C19.9252 22.6224 20.2988 23.5196 20.2988 24.455C20.2988 25.3905 19.9252 26.2876 19.2602 26.9491C18.5952 27.6106 17.6933 27.9822 16.7529 27.9822V27.4185C17.543 27.4185 18.3008 27.1063 18.8596 26.5505C19.4183 25.9948 19.7322 25.241 19.7322 24.455C19.7322 23.669 19.4183 22.9153 18.8596 22.3595C18.3008 21.8037 17.543 21.4915 16.7529 21.4915V20.9279Z" fill="white"/>
<path d="M3.5983 34.4373C2.66295 34.4468 1.76214 34.0862 1.09403 33.435C0.42593 32.7838 0.0452628 31.8952 0.0357747 30.9648C0.0262866 30.0344 0.388755 29.1384 1.04344 28.4739C1.69813 27.8093 2.5914 27.4306 3.52675 27.4212L3.53247 27.9818C2.74659 27.9897 1.99606 28.3079 1.446 28.8662C0.895932 29.4246 0.591387 30.1774 0.599359 30.9592C0.607331 31.7409 0.927166 32.4874 1.48851 33.0346C2.04984 33.5817 2.8067 33.8846 3.59259 33.8767L3.5983 34.4373Z" fill="white"/>
<path d="M3.59725 21.4923C2.66185 21.4923 1.76476 21.1227 1.10333 20.4648C0.441899 19.8068 0.0703126 18.9145 0.0703125 17.9841C0.0703124 17.0536 0.441899 16.1613 1.10333 15.5034C1.76476 14.8454 2.66185 14.4758 3.59725 14.4758V15.0365C2.81133 15.0365 2.05759 15.347 1.50186 15.8998C0.946132 16.4526 0.633926 17.2023 0.633926 17.9841C0.633926 18.7658 0.946132 19.5156 1.50186 20.0683C2.05759 20.6211 2.81133 20.9317 3.59725 20.9317V21.4923Z" fill="white"/>
<path fill-rule="evenodd" clip-rule="evenodd" d="M16.7884 15.0374H3.59766V14.4761H16.7884V15.0374ZM16.7884 21.4925H3.59766V20.9312H16.7884V21.4925Z" fill="white"/>
<path fill-rule="evenodd" clip-rule="evenodd" d="M16.7884 20.9311H3.59766V21.4924H16.7884V20.9311ZM16.7884 14.476H3.59766V15.0373H16.7884V14.476Z" fill="white"/>
<path d="M16.7883 21.4924C18.0574 21.4924 19.3141 21.2688 20.4865 20.7664C21.659 20.2639 22.7243 19.5274 23.6217 18.599C24.5191 17.6705 25.2309 16.5683 25.7165 15.3552C26.2022 14.1422 26.4521 12.842 26.4521 11.529C26.4521 10.216 26.2022 8.91581 25.7165 7.70274C25.2309 6.48967 24.5191 5.38745 23.6217 4.459C22.7243 3.53056 21.659 2.79408 20.4865 2.29161C19.3141 1.78914 18.0574 1.53052 16.7883 1.53052V2.09184C17.9813 2.09184 19.1625 2.37353 20.2646 2.84585C21.3668 3.31817 22.3682 4.01046 23.2117 4.8832C24.0552 5.75594 24.7243 6.79203 25.1808 7.93232C25.6374 9.0726 25.8723 10.2948 25.8723 11.529C25.8723 12.7632 25.6374 13.9854 25.1808 15.1257C24.7243 16.266 24.0552 17.302 23.2117 18.1748C22.3682 19.0475 21.3668 19.7398 20.2646 20.2121C19.1625 20.6845 17.9813 20.9311 16.7883 20.9311V21.4924Z" fill="white"/>
<path d="M16.7883 14.4759C18.0574 14.4759 19.3141 14.6994 20.4865 15.2019C21.659 15.7044 22.7243 16.4408 23.6217 17.3693C24.5191 18.2977 25.2309 19.3999 25.7165 20.613C26.2022 21.8261 26.4521 23.1263 26.4521 24.4393C26.4521 25.7523 26.2022 27.0524 25.7165 28.2655C25.2309 29.4786 24.5191 30.5808 23.6217 31.5093C22.7243 32.4377 21.659 33.1742 20.4865 33.6767C19.3141 34.1791 18.0574 34.4377 16.7883 34.4377V33.8764C17.9813 33.8764 19.1625 33.5947 20.2646 33.1224C21.3668 32.6501 22.3682 31.9578 23.2117 31.0851C24.0552 30.2123 24.7243 29.1762 25.1808 28.0359C25.6374 26.8957 25.8723 25.6735 25.8723 24.4393C25.8723 23.205 25.6374 21.9829 25.1808 20.8426C24.7243 19.7023 24.0552 18.6662 23.2117 17.7935C22.3682 16.9207 21.3668 16.2284 20.2646 15.7561C19.1625 15.2838 17.9813 15.0372 16.7883 15.0372V14.4759Z" fill="white"/>
<path fill-rule="evenodd" clip-rule="evenodd" d="M42.6759 20.7909L42.6759 5.07397L43.2402 5.07397L43.2402 20.7909L42.6759 20.7909ZM36.1864 20.7909L36.1864 5.07397L36.7507 5.07397L36.7507 20.7909L36.1864 20.7909Z" fill="white"/>
<path d="M43.2404 5.07391C43.2404 4.14347 42.8688 3.25113 42.2074 2.59321C41.5459 1.93529 40.6489 1.56567 39.7135 1.56567C38.7781 1.56567 37.881 1.93529 37.2195 2.59321C36.5581 3.25113 36.1865 4.14347 36.1865 5.07391H36.7501C36.7501 4.29216 37.0623 3.54242 37.6181 2.98963C38.1738 2.43685 38.9275 2.1263 39.7135 2.1263C40.4994 2.1263 41.2531 2.43685 41.8088 2.98963C42.3646 3.54242 42.6768 4.29216 42.6768 5.07391H43.2404Z" fill="white"/>
<path fill-rule="evenodd" clip-rule="evenodd" d="M42.6759 15.2477L42.6759 30.9646L43.2402 30.9646L43.2402 15.2477L42.6759 15.2477ZM36.1864 15.2477L36.1864 30.9646L36.7507 30.9646L36.7507 15.2477L36.1864 15.2477Z" fill="white"/>
<path d="M43.2404 30.9647C43.2404 31.8951 42.8688 32.7874 42.2074 33.4454C41.5459 34.1033 40.6489 34.4729 39.7135 34.4729C38.7781 34.4729 37.881 34.1033 37.2195 33.4454C36.5581 32.7874 36.1865 31.8951 36.1865 30.9647H36.7501C36.7501 31.7464 37.0623 32.4962 37.6181 33.0489C38.1738 33.6017 38.9275 33.9123 39.7135 33.9123C40.4994 33.9123 41.2531 33.6017 41.8088 33.0489C42.3646 32.4962 42.6768 31.7464 42.6768 30.9647H43.2404Z" fill="white"/>
<path fill-rule="evenodd" clip-rule="evenodd" d="M55.514 2.12699L39.7134 2.12699L39.7134 1.56567L55.514 1.56567L55.514 2.12699ZM55.514 8.58215L39.7134 8.58215L39.7134 8.02083L55.514 8.02083L55.514 8.58215Z" fill="white"/>
<path d="M39.7135 1.56556C38.7781 1.56556 37.881 1.93517 37.2195 2.5931C36.5581 3.25102 36.1865 4.14335 36.1865 5.07379C36.1865 6.00424 36.5581 6.89657 37.2195 7.55449C37.881 8.21241 38.7781 8.58203 39.7135 8.58203V8.02141C38.9275 8.02141 38.1738 7.71085 37.6181 7.15807C37.0623 6.60529 36.7501 5.85555 36.7501 5.07379C36.7501 4.29204 37.0623 3.5423 37.6181 2.98952C38.1738 2.43673 38.9275 2.12618 39.7135 2.12618V1.56556Z" fill="white"/>
<path d="M55.5141 8.58215C56.4495 8.58215 57.3466 8.21253 58.008 7.55461C58.6694 6.89669 59.041 6.00435 59.041 5.07391C59.041 4.14347 58.6694 3.25114 58.008 2.59321C57.3466 1.93529 56.4495 1.56567 55.5141 1.56567V2.1263C56.3 2.1263 57.0537 2.43685 57.6095 2.98963C58.1652 3.54242 58.4774 4.29216 58.4774 5.07391C58.4774 5.85567 58.1652 6.6054 57.6095 7.15819C57.0537 7.71097 56.3 8.02152 55.5141 8.02152V8.58215Z" fill="white"/>
<path fill-rule="evenodd" clip-rule="evenodd" d="M55.514 33.9118L39.7134 33.9118L39.7134 34.4731L55.514 34.4731L55.514 33.9118ZM55.514 27.4567L39.7134 27.4567L39.7134 28.018L55.514 28.018L55.514 27.4567Z" fill="white"/>
<path d="M39.7135 34.473C38.7781 34.473 37.881 34.1034 37.2195 33.4455C36.5581 32.7876 36.1865 31.8952 36.1865 30.9648C36.1865 30.0343 36.5581 29.142 37.2195 28.4841C37.881 27.8262 38.7781 27.4565 39.7135 27.4565V28.0172C38.9275 28.0172 38.1738 28.3277 37.6181 28.8805C37.0623 29.4333 36.7501 30.183 36.7501 30.9648C36.7501 31.7465 37.0623 32.4963 37.6181 33.0491C38.1738 33.6018 38.9275 33.9124 39.7135 33.9124V34.473Z" fill="white"/>
<path d="M55.5141 27.4567C56.4495 27.4567 57.3466 27.8263 58.008 28.4842C58.6694 29.1421 59.041 30.0345 59.041 30.9649C59.041 31.8954 58.6694 32.7877 58.008 33.4456C57.3466 34.1035 56.4495 34.4731 55.5141 34.4731V33.9125C56.3 33.9125 57.0537 33.602 57.6095 33.0492C58.1652 32.4964 58.4774 31.7467 58.4774 30.9649C58.4774 30.1832 58.1652 29.4334 57.6095 28.8806C57.0537 28.3278 56.3 28.0173 55.5141 28.0173V27.4567Z" fill="white"/>
<path fill-rule="evenodd" clip-rule="evenodd" d="M55.514 20.9311L39.7134 20.9311L39.7134 21.4924L55.514 21.4924L55.514 20.9311ZM55.514 14.476L39.7134 14.476L39.7134 15.0373L55.514 15.0373L55.514 14.476Z" fill="white"/>
<path d="M39.7135 21.4925C38.7781 21.4925 37.881 21.1229 37.2195 20.465C36.5581 19.8071 36.1865 18.9148 36.1865 17.9843C36.1865 17.0539 36.5581 16.1615 37.2195 15.5036C37.881 14.8457 38.7781 14.4761 39.7135 14.4761V15.0367C38.9275 15.0367 38.1738 15.3473 37.6181 15.9C37.0623 16.4528 36.7501 17.2026 36.7501 17.9843C36.7501 18.7661 37.0623 19.5158 37.6181 20.0686C38.1738 20.6214 38.9275 20.9319 39.7135 20.9319V21.4925Z" fill="white"/>
<path d="M55.5141 14.476C56.4495 14.476 57.3466 14.8456 58.008 15.5035C58.6694 16.1614 59.041 17.0538 59.041 17.9842C59.041 18.9146 58.6694 19.807 58.008 20.4649C57.3466 21.1228 56.4495 21.4924 55.5141 21.4924V20.9318C56.3 20.9318 57.0537 20.6213 57.6095 20.0685C58.1652 19.5157 58.4774 18.766 58.4774 17.9842C58.4774 17.2024 58.1652 16.4527 57.6095 15.8999C57.0537 15.3471 56.3 15.0366 55.5141 15.0366V14.476Z" fill="white"/>
<path fill-rule="evenodd" clip-rule="evenodd" d="M75.2648 20.7206L75.2648 5.00366L75.8291 5.00366L75.8291 20.7206L75.2648 20.7206ZM68.7752 20.7206L68.7752 5.00366L69.3395 5.00366L69.3395 20.7206L68.7752 20.7206Z" fill="white"/>
<path fill-rule="evenodd" clip-rule="evenodd" d="M75.2648 15.2477L75.2648 30.9646L75.8291 30.9646L75.8291 15.2477L75.2648 15.2477ZM68.7752 15.2477L68.7752 30.9646L69.3395 30.9646L69.3395 15.2477L68.7752 15.2477Z" fill="white"/>
<path d="M75.8293 5.0036C75.8293 4.07316 75.4577 3.18082 74.7962 2.5229C74.1348 1.86498 73.2377 1.49536 72.3023 1.49536C71.3669 1.49536 70.4698 1.86498 69.8084 2.5229C69.147 3.18082 68.7754 4.07316 68.7754 5.0036H69.339C69.339 4.22184 69.6512 3.47211 70.2069 2.91932C70.7627 2.36654 71.5164 2.05599 72.3023 2.05599C73.0882 2.05599 73.842 2.36654 74.3977 2.91932C74.9534 3.47211 75.2656 4.22184 75.2656 5.0036H75.8293Z" fill="white"/>
<path d="M75.8293 30.9647C75.8293 31.8951 75.4577 32.7874 74.7962 33.4454C74.1348 34.1033 73.2377 34.4729 72.3023 34.4729C71.3669 34.4729 70.4698 34.1033 69.8084 33.4454C69.147 32.7874 68.7754 31.8951 68.7754 30.9647H69.339C69.339 31.7464 69.6512 32.4962 70.2069 33.0489C70.7627 33.6017 71.5164 33.9123 72.3023 33.9123C73.0882 33.9123 73.842 33.6017 74.3977 33.0489C74.9534 32.4962 75.2656 31.7464 75.2656 30.9647H75.8293Z" fill="white"/>
<path d="M85.5637 21.4924C86.8328 21.4924 88.0895 21.2688 89.2619 20.7664C90.4344 20.2639 91.4997 19.5274 92.3971 18.599C93.2944 17.6705 94.0063 16.5683 94.4919 15.3552C94.9776 14.1422 95.2275 12.842 95.2275 11.529C95.2275 10.216 94.9776 8.91581 94.4919 7.70274C94.0063 6.48967 93.2944 5.38745 92.3971 4.459C91.4997 3.53056 90.4344 2.79408 89.2619 2.29161C88.0895 1.78914 86.8328 1.53052 85.5637 1.53052V2.09184C86.7567 2.09184 87.9379 2.37353 89.04 2.84585C90.1421 3.31817 91.1436 4.01046 91.9871 4.8832C92.8306 5.75594 93.4997 6.79203 93.9562 7.93232C94.4127 9.0726 94.6477 10.2948 94.6477 11.529C94.6477 12.7632 94.4127 13.9854 93.9562 15.1257C93.4997 16.266 92.8306 17.302 91.9871 18.1748C91.1436 19.0475 90.1421 19.7398 89.04 20.2121C87.9379 20.6845 86.7567 20.9311 85.5637 20.9311V21.4924Z" fill="white"/>
<path fill-rule="evenodd" clip-rule="evenodd" d="M72.3052 7.98582L85.5639 7.98582L85.5639 8.54714L72.3052 8.54714L72.3052 7.98582ZM72.3711 1.531L85.5639 1.531L85.5639 2.09232L72.3711 2.09232L72.3711 1.531Z" fill="white"/>
<path d="M85.5283 15.0404C86.4687 15.0404 87.3706 14.6688 88.0356 14.0073C88.7006 13.3459 89.0742 12.4487 89.0742 11.5132C89.0742 10.5778 88.7006 9.68064 88.0356 9.01917C87.3706 8.3577 86.4687 7.98608 85.5283 7.98608V8.54973C86.3184 8.54973 87.0762 8.86196 87.6349 9.41773C88.1937 9.97349 88.5076 10.7273 88.5076 11.5132C88.5076 12.2992 88.1937 13.053 87.6349 13.6088C87.0762 14.1645 86.3184 14.4768 85.5283 14.4768V15.0404Z" fill="white"/>
<path d="M72.3737 1.53095C71.4383 1.52151 70.5375 1.88206 69.8694 2.53327C69.2013 3.18448 68.8207 4.07302 68.8112 5.00342C68.8017 5.93381 69.1641 6.82985 69.8188 7.49441C70.4735 8.15897 71.3668 8.53762 72.3021 8.54706L72.3079 7.98646C71.522 7.97853 70.7715 7.66039 70.2214 7.10203C69.6713 6.54367 69.3668 5.79082 69.3747 5.0091C69.3827 4.22739 69.7026 3.48084 70.2639 2.93369C70.8252 2.38654 71.5821 2.08361 72.368 2.09154L72.3737 1.53095Z" fill="white"/>
<path d="M72.3726 14.476C71.4372 14.476 70.5401 14.8456 69.8787 15.5035C69.2173 16.1614 68.8457 17.0538 68.8457 17.9842C68.8457 18.9146 69.2173 19.807 69.8787 20.4649C70.5401 21.1228 71.4372 21.4924 72.3726 21.4924V20.9318C71.5867 20.9318 70.833 20.6213 70.2773 20.0685C69.7215 19.5157 69.4093 18.766 69.4093 17.9842C69.4093 17.2024 69.7215 16.4527 70.2773 15.8999C70.833 15.3471 71.5867 15.0366 72.3726 15.0366V14.476Z" fill="white"/>
<path fill-rule="evenodd" clip-rule="evenodd" d="M85.5638 20.9311H72.373V21.4924H85.5638V20.9311ZM85.5638 14.476H72.373V15.0373H85.5638V14.476Z" fill="white"/>
<path fill-rule="evenodd" clip-rule="evenodd" d="M89.2825 32.5936L80.2196 19.7191L79.7573 20.041L88.8202 32.9155L89.2825 32.5936ZM94.5984 28.8911L85.5355 16.0165L85.0733 16.3385L94.1361 29.213L94.5984 28.8911Z" fill="white"/>
<path d="M79.757 20.0411C79.2205 19.2789 79.0103 18.336 79.1727 17.4196C79.3352 16.5033 79.8569 15.6887 80.6231 15.1551C81.3893 14.6214 82.3373 14.4123 83.2585 14.5739C84.1797 14.7355 84.9986 15.2544 85.5352 16.0166L85.0735 16.3382C84.6227 15.6978 83.9346 15.2618 83.1607 15.126C82.3867 14.9903 81.5902 15.1659 80.9464 15.6143C80.3026 16.0627 79.8643 16.7471 79.7278 17.517C79.5913 18.2869 79.7679 19.0791 80.2187 19.7195L79.757 20.0411Z" fill="white"/>
<path d="M94.598 28.891C95.1345 29.6532 95.3447 30.5962 95.1823 31.5125C95.0198 32.4288 94.4981 33.2434 93.7319 33.7771C92.9656 34.3107 92.0176 34.5198 91.0965 34.3582C90.1753 34.1967 89.3563 33.6777 88.8198 32.9155L89.2815 32.594C89.7323 33.2343 90.4203 33.6704 91.1943 33.8061C91.9683 33.9419 92.7648 33.7662 93.4086 33.3178C94.0524 32.8694 94.4907 32.185 94.6272 31.4151C94.7637 30.6453 94.5871 29.853 94.1363 29.2126L94.598 28.891Z" fill="white"/>
<path fill-rule="evenodd" clip-rule="evenodd" d="M111.451 20.7687L111.451 5.05176L112.015 5.05176L112.015 20.7687L111.451 20.7687ZM104.961 20.7687L104.961 5.05176L105.526 5.05176L105.526 20.7687L104.961 20.7687Z" fill="white"/>
<path d="M112.015 5.05169C112.015 4.12125 111.644 3.22892 110.982 2.571C110.321 1.91307 109.424 1.54346 108.488 1.54346C107.553 1.54346 106.656 1.91307 105.994 2.571C105.333 3.22892 104.961 4.12125 104.961 5.05169H105.525C105.525 4.26994 105.837 3.5202 106.393 2.96742C106.949 2.41463 107.702 2.10408 108.488 2.10408C109.274 2.10408 110.028 2.41463 110.584 2.96742C111.139 3.5202 111.452 4.26994 111.452 5.05169H112.015Z" fill="white"/>
<path fill-rule="evenodd" clip-rule="evenodd" d="M111.451 15.2255L111.451 30.9424L112.015 30.9424L112.015 15.2255L111.451 15.2255ZM104.961 15.2255L104.961 30.9424L105.526 30.9424L105.526 15.2255L104.961 15.2255Z" fill="white"/>
<path d="M112.015 30.9424C112.015 31.8729 111.644 32.7652 110.982 33.4231C110.321 34.0811 109.424 34.4507 108.488 34.4507C107.553 34.4507 106.656 34.0811 105.994 33.4231C105.333 32.7652 104.961 31.8729 104.961 30.9424H105.525C105.525 31.7242 105.837 32.4739 106.393 33.0267C106.949 33.5795 107.702 33.8901 108.488 33.8901C109.274 33.8901 110.028 33.5795 110.584 33.0267C111.139 32.4739 111.452 31.7242 111.452 30.9424H112.015Z" fill="white"/>
<path fill-rule="evenodd" clip-rule="evenodd" d="M124.289 2.10477L108.488 2.10477L108.488 1.54346L124.289 1.54346L124.289 2.10477ZM124.289 8.55993L108.488 8.55993L108.488 7.99861L124.289 7.99861L124.289 8.55993Z" fill="white"/>
<path d="M108.488 1.54334C107.553 1.54334 106.656 1.91296 105.994 2.57088C105.333 3.2288 104.961 4.12114 104.961 5.05158C104.961 5.98202 105.333 6.87435 105.994 7.53228C106.656 8.1902 107.553 8.55981 108.488 8.55981V7.99919C107.702 7.99919 106.949 7.68864 106.393 7.13585C105.837 6.58307 105.525 5.83333 105.525 5.05158C105.525 4.26982 105.837 3.52009 106.393 2.9673C106.949 2.41452 107.702 2.10397 108.488 2.10397V1.54334Z" fill="white"/>
<path d="M124.289 8.55993C125.224 8.55993 126.121 8.19031 126.783 7.53239C127.444 6.87447 127.816 5.98214 127.816 5.05169C127.816 4.12125 127.444 3.22892 126.783 2.571C126.121 1.91307 125.224 1.54346 124.289 1.54346V2.10408C125.075 2.10408 125.829 2.41463 126.384 2.96742C126.94 3.5202 127.252 4.26994 127.252 5.05169C127.252 5.83345 126.94 6.58319 126.384 7.13597C125.829 7.68875 125.075 7.99931 124.289 7.99931V8.55993Z" fill="white"/>
<path fill-rule="evenodd" clip-rule="evenodd" d="M124.289 33.8894L108.488 33.8894L108.488 34.4507L124.289 34.4507L124.289 33.8894ZM124.289 27.4342L108.488 27.4342L108.488 27.9955L124.289 27.9955L124.289 27.4342Z" fill="white"/>
<path d="M108.488 34.4508C107.553 34.4508 106.656 34.0812 105.994 33.4233C105.333 32.7653 104.961 31.873 104.961 30.9426C104.961 30.0121 105.333 29.1198 105.994 28.4619C106.656 27.8039 107.553 27.4343 108.488 27.4343V27.995C107.702 27.995 106.949 28.3055 106.393 28.8583C105.837 29.4111 105.525 30.1608 105.525 30.9426C105.525 31.7243 105.837 32.4741 106.393 33.0268C106.949 33.5796 107.702 33.8902 108.488 33.8902V34.4508Z" fill="white"/>
<path d="M124.289 27.4342C125.224 27.4342 126.121 27.8038 126.783 28.4617C127.444 29.1197 127.816 30.012 127.816 30.9424C127.816 31.8729 127.444 32.7652 126.783 33.4231C126.121 34.0811 125.224 34.4507 124.289 34.4507V33.8901C125.075 33.8901 125.829 33.5795 126.384 33.0267C126.94 32.4739 127.252 31.7242 127.252 30.9424C127.252 30.1607 126.94 29.411 126.384 28.8582C125.829 28.3054 125.075 27.9948 124.289 27.9948V27.4342Z" fill="white"/>
<path fill-rule="evenodd" clip-rule="evenodd" d="M124.289 20.9089L108.488 20.9089L108.488 21.4702L124.289 21.4702L124.289 20.9089ZM124.289 14.4537L108.488 14.4537L108.488 15.0151L124.289 15.0151L124.289 14.4537Z" fill="white"/>
<path d="M108.488 21.4703C107.553 21.4703 106.656 21.1007 105.994 20.4428C105.333 19.7849 104.961 18.8925 104.961 17.9621C104.961 17.0317 105.333 16.1393 105.994 15.4814C106.656 14.8235 107.553 14.4539 108.488 14.4539V15.0145C107.702 15.0145 106.949 15.325 106.393 15.8778C105.837 16.4306 105.525 17.1803 105.525 17.9621C105.525 18.7439 105.837 19.4936 106.393 20.0464C106.949 20.5992 107.702 20.9097 108.488 20.9097V21.4703Z" fill="white"/>
<path d="M124.289 14.4537C125.224 14.4537 126.121 14.8234 126.783 15.4813C127.444 16.1392 127.816 17.0315 127.816 17.962C127.816 18.8924 127.444 19.7848 126.783 20.4427C126.121 21.1006 125.224 21.4702 124.289 21.4702V20.9096C125.075 20.9096 125.829 20.599 126.384 20.0463C126.94 19.4935 127.252 18.7437 127.252 17.962C127.252 17.1802 126.94 16.4305 126.384 15.8777C125.829 15.3249 125.075 15.0144 124.289 15.0144V14.4537Z" fill="white"/>
<path fill-rule="evenodd" clip-rule="evenodd" d="M160.543 8.03392L147.285 8.03392L147.285 8.59524L160.543 8.59524L160.543 8.03392ZM160.478 1.5791L147.285 1.57909L147.285 2.14041L160.478 2.14041L160.478 1.5791Z" fill="white"/>
<path d="M147.32 15.0885C146.38 15.0885 145.478 14.7169 144.813 14.0554C144.148 13.394 143.774 12.4968 143.774 11.5613C143.774 10.6259 144.148 9.72873 144.813 9.06726C145.478 8.40579 146.38 8.03418 147.32 8.03418V8.59783C146.53 8.59783 145.772 8.91006 145.214 9.46582C144.655 10.0216 144.341 10.7754 144.341 11.5613C144.341 12.3473 144.655 13.1011 145.214 13.6569C145.772 14.2126 146.53 14.5249 147.32 14.5249V15.0885Z" fill="white"/>
<path d="M160.475 1.57904C161.41 1.56961 162.311 1.93015 162.979 2.58137C163.647 3.23258 164.028 4.12112 164.037 5.05151C164.047 5.98191 163.684 6.87795 163.03 7.54251C162.375 8.20707 161.482 8.58572 160.546 8.59516L160.541 8.03456C161.327 8.02663 162.077 7.70849 162.627 7.15013C163.177 6.59176 163.482 5.83892 163.474 5.0572C163.466 4.27549 163.146 3.52894 162.585 2.98179C162.023 2.43464 161.267 2.13171 160.481 2.13964L160.475 1.57904Z" fill="white"/>
<path d="M154.41 14.5241C155.345 14.5241 156.242 14.8937 156.904 15.5516C157.565 16.2095 157.937 17.1018 157.937 18.0323C157.937 18.9627 157.565 19.8551 156.904 20.513C156.242 21.1709 155.345 21.5405 154.41 21.5405V20.9799C155.196 20.9799 155.949 20.6694 156.505 20.1166C157.061 19.5638 157.373 18.814 157.373 18.0323C157.373 17.2505 157.061 16.5008 156.505 15.948C155.949 15.3952 155.196 15.0847 154.41 15.0847V14.5241Z" fill="white"/>
<path d="M147.285 21.5405C146.016 21.5405 144.759 21.3169 143.587 20.8145C142.414 20.312 141.349 19.5755 140.452 18.6471C139.554 17.7186 138.842 16.6164 138.357 15.4033C137.871 14.1903 137.621 12.8901 137.621 11.5771C137.621 10.2641 137.871 8.96391 138.357 7.75084C138.842 6.53777 139.554 5.43554 140.452 4.5071C141.349 3.57865 142.414 2.84217 143.587 2.3397C144.759 1.83723 146.016 1.57861 147.285 1.57861V2.13993C146.092 2.13993 144.911 2.42162 143.809 2.89394C142.706 3.36627 141.705 4.05856 140.862 4.9313C140.018 5.80404 139.349 6.84013 138.892 7.98041C138.436 9.1207 138.201 10.3429 138.201 11.5771C138.201 12.8113 138.436 14.0335 138.892 15.1738C139.349 16.3141 140.018 17.3501 140.862 18.2229C141.705 19.0956 142.706 19.7879 143.809 20.2602C144.911 20.7326 146.092 20.9792 147.285 20.9792V21.5405Z" fill="white"/>
<path fill-rule="evenodd" clip-rule="evenodd" d="M147.285 20.9792H154.409V21.5405H147.285V20.9792ZM147.285 14.5241H154.409V15.0854H147.285V14.5241Z" fill="white"/>
<path d="M154.374 28.0306C155.314 28.0306 156.216 27.659 156.881 26.9976C157.546 26.3361 157.92 25.4389 157.92 24.5035C157.92 23.568 157.546 22.6709 156.881 22.0094C156.216 21.3479 155.314 20.9763 154.374 20.9763V21.54C155.164 21.54 155.922 21.8522 156.481 22.408C157.039 22.9637 157.353 23.7175 157.353 24.5035C157.353 25.2895 157.039 26.0432 156.481 26.599C155.922 27.1548 155.164 27.467 154.374 27.467V28.0306Z" fill="white"/>
<path d="M147.25 14.5241C146.314 14.5241 145.417 14.8937 144.756 15.5516C144.094 16.2095 143.723 17.1018 143.723 18.0323C143.723 18.9627 144.094 19.8551 144.756 20.513C145.417 21.1709 146.314 21.5405 147.25 21.5405V20.9799C146.464 20.9799 145.71 20.6694 145.154 20.1166C144.598 19.5638 144.286 18.814 144.286 18.0323C144.286 17.2505 144.598 16.5008 145.154 15.948C145.71 15.3952 146.464 15.0847 147.25 15.0847V14.5241Z" fill="white"/>
<path d="M141.218 27.4694C140.283 27.4694 139.386 27.839 138.724 28.4969C138.063 29.1548 137.691 30.0472 137.691 30.9776C137.691 31.908 138.063 32.8004 138.724 33.4583C139.386 34.1162 140.283 34.4858 141.218 34.4858V33.9252C140.432 33.9252 139.679 33.6147 139.123 33.0619C138.567 32.5091 138.255 31.7594 138.255 30.9776C138.255 30.1958 138.567 29.4461 139.123 28.8933C139.679 28.3405 140.432 28.03 141.218 28.03V27.4694Z" fill="white"/>
<path d="M154.409 34.4858C155.678 34.4858 156.935 34.2623 158.107 33.7598C159.28 33.2573 160.345 32.5208 161.242 31.5924C162.14 30.6639 162.851 29.5617 163.337 28.3487C163.823 27.1356 164.073 25.8354 164.073 24.5224C164.073 23.2094 163.823 21.9092 163.337 20.6961C162.851 19.4831 162.14 18.3809 161.242 17.4524C160.345 16.524 159.28 15.7875 158.107 15.285C156.935 14.7825 155.678 14.5239 154.409 14.5239V15.0852C155.602 15.0852 156.783 15.3669 157.885 15.8393C158.987 16.3116 159.989 17.0039 160.832 17.8766C161.676 18.7493 162.345 19.7854 162.801 20.9257C163.258 22.066 163.493 23.2882 163.493 24.5224C163.493 25.7566 163.258 26.9788 162.801 28.1191C162.345 29.2594 161.676 30.2955 160.832 31.1682C159.989 32.0409 158.987 32.7332 157.885 33.2055C156.783 33.6779 155.602 33.9245 154.409 33.9245V34.4858Z" fill="white"/>
<path fill-rule="evenodd" clip-rule="evenodd" d="M154.409 33.9245H141.218V34.4858H154.409V33.9245ZM154.409 27.4694H141.218V28.0307H154.409V27.4694Z" fill="white"/>
<path fill-rule="evenodd" clip-rule="evenodd" d="M180.303 20.6505L180.303 4.93359L180.867 4.93359L180.867 20.6505L180.303 20.6505ZM173.813 20.6505L173.813 4.93359L174.378 4.93359L174.378 20.6505L173.813 20.6505Z" fill="white"/>
<path d="M180.867 4.93353C180.867 4.00309 180.495 3.11075 179.834 2.45283C179.172 1.79491 178.275 1.42529 177.34 1.42529C176.405 1.42529 175.507 1.79491 174.846 2.45283C174.185 3.11075 173.813 4.00309 173.813 4.93353H174.377C174.377 4.15177 174.689 3.40204 175.245 2.84925C175.8 2.29647 176.554 1.98592 177.34 1.98592C178.126 1.98592 178.88 2.29647 179.435 2.84925C179.991 3.40204 180.303 4.15177 180.303 4.93353H180.867Z" fill="white"/>
<path fill-rule="evenodd" clip-rule="evenodd" d="M180.303 15.3881L180.303 31.105L180.867 31.105L180.867 15.3881L180.303 15.3881ZM173.813 15.3881L173.813 31.105L174.378 31.105L174.378 15.3881L173.813 15.3881Z" fill="white"/>
<path d="M180.867 31.105C180.867 32.0355 180.495 32.9278 179.834 33.5857C179.172 34.2437 178.275 34.6133 177.34 34.6133C176.405 34.6133 175.507 34.2437 174.846 33.5857C174.185 32.9278 173.813 32.0355 173.813 31.105H174.377C174.377 31.8868 174.689 32.6365 175.245 33.1893C175.8 33.7421 176.554 34.0527 177.34 34.0527C178.126 34.0527 178.88 33.7421 179.435 33.1893C179.991 32.6365 180.303 31.8868 180.303 31.105H180.867Z" fill="white"/>
<path fill-rule="evenodd" clip-rule="evenodd" d="M198.854 20.6505L198.854 4.93359L199.418 4.93359L199.418 20.6505L198.854 20.6505ZM192.364 20.6505L192.364 4.93359L192.928 4.93359L192.928 20.6505L192.364 20.6505Z" fill="white"/>
<path d="M199.418 4.93353C199.418 4.00309 199.047 3.11075 198.385 2.45283C197.724 1.79491 196.827 1.42529 195.891 1.42529C194.956 1.42529 194.059 1.79491 193.397 2.45283C192.736 3.11075 192.364 4.00309 192.364 4.93353H192.928C192.928 4.15177 193.24 3.40204 193.796 2.84925C194.352 2.29647 195.105 1.98592 195.891 1.98592C196.677 1.98592 197.431 2.29647 197.987 2.84925C198.542 3.40204 198.855 4.15177 198.855 4.93353H199.418Z" fill="white"/>
<path fill-rule="evenodd" clip-rule="evenodd" d="M198.854 15.3881L198.854 31.105L199.418 31.105L199.418 15.3881L198.854 15.3881ZM192.364 15.3881L192.364 31.105L192.928 31.105L192.928 15.3881L192.364 15.3881Z" fill="white"/>
<path d="M199.418 31.105C199.418 32.0355 199.047 32.9278 198.385 33.5857C197.724 34.2437 196.827 34.6133 195.891 34.6133C194.956 34.6133 194.059 34.2437 193.397 33.5857C192.736 32.9278 192.364 32.0355 192.364 31.105H192.928C192.928 31.8868 193.24 32.6365 193.796 33.1893C194.352 33.7421 195.105 34.0527 195.891 34.0527C196.677 34.0527 197.431 33.7421 197.987 33.1893C198.542 32.6365 198.855 31.8868 198.855 31.105H199.418Z" fill="white"/>
<path fill-rule="evenodd" clip-rule="evenodd" d="M174.958 6.57647L193.424 32.8082L192.961 33.1301L174.496 6.89843L174.958 6.57647ZM180.274 2.87395L198.74 29.1056L198.277 29.4276L179.812 3.19591L180.274 2.87395Z" fill="white"/>
<path d="M192.95 33.1263C193.487 33.8885 194.306 34.4074 195.227 34.569C196.148 34.7306 197.096 34.5215 197.862 33.9878C198.629 33.4541 199.15 32.6396 199.313 31.7232C199.475 30.8069 199.265 29.864 198.728 29.1018L198.267 29.4234C198.718 30.0637 198.894 30.856 198.758 31.6259C198.621 32.3958 198.183 33.0802 197.539 33.5286C196.895 33.977 196.099 34.1526 195.325 34.0169C194.551 33.8811 193.863 33.4451 193.412 32.8047L192.95 33.1263Z" fill="white"/>
<path d="M180.274 2.87371C179.737 2.11154 178.918 1.59258 177.997 1.43101C177.076 1.26944 176.128 1.47849 175.362 2.01217C174.596 2.54585 174.074 3.36045 173.911 4.27675C173.749 5.19306 173.959 6.13602 174.496 6.89819L174.957 6.57663C174.507 5.93626 174.33 5.14398 174.466 4.3741C174.603 3.60423 175.041 2.91981 175.685 2.47141C176.329 2.02301 177.125 1.84737 177.899 1.98312C178.673 2.11887 179.361 2.55489 179.812 3.19527L180.274 2.87371Z" fill="white"/>
<path fill-rule="evenodd" clip-rule="evenodd" d="M215.637 20.7687L215.637 5.05176L216.201 5.05176L216.201 20.7687L215.637 20.7687ZM209.147 20.7687L209.147 5.05176L209.712 5.05176L209.712 20.7687L209.147 20.7687Z" fill="white"/>
<path d="M216.201 5.05169C216.201 4.12125 215.83 3.22892 215.168 2.571C214.507 1.91307 213.61 1.54346 212.674 1.54346C211.739 1.54346 210.842 1.91307 210.18 2.571C209.519 3.22892 209.147 4.12125 209.147 5.05169H209.711C209.711 4.26994 210.023 3.5202 210.579 2.96742C211.135 2.41463 211.888 2.10408 212.674 2.10408C213.46 2.10408 214.214 2.41463 214.77 2.96742C215.326 3.5202 215.638 4.26994 215.638 5.05169H216.201Z" fill="white"/>
<path fill-rule="evenodd" clip-rule="evenodd" d="M215.637 15.2255L215.637 30.9424L216.201 30.9424L216.201 15.2255L215.637 15.2255ZM209.147 15.2255L209.147 30.9424L209.712 30.9424L209.712 15.2255L209.147 15.2255Z" fill="white"/>
<path d="M216.201 30.9424C216.201 31.8729 215.83 32.7652 215.168 33.4231C214.507 34.0811 213.61 34.4507 212.674 34.4507C211.739 34.4507 210.842 34.0811 210.18 33.4231C209.519 32.7652 209.147 31.8729 209.147 30.9424H209.711C209.711 31.7242 210.023 32.4739 210.579 33.0267C211.135 33.5795 211.888 33.8901 212.674 33.8901C213.46 33.8901 214.214 33.5795 214.77 33.0267C215.326 32.4739 215.638 31.7242 215.638 30.9424H216.201Z" fill="white"/>
<path fill-rule="evenodd" clip-rule="evenodd" d="M228.475 2.10477L212.674 2.10477L212.674 1.54346L228.475 1.54346L228.475 2.10477ZM228.475 8.55993L212.674 8.55993L212.674 7.99861L228.475 7.99861L228.475 8.55993Z" fill="white"/>
<path d="M212.674 1.54334C211.739 1.54334 210.842 1.91296 210.18 2.57088C209.519 3.2288 209.147 4.12114 209.147 5.05158C209.147 5.98202 209.519 6.87435 210.18 7.53228C210.842 8.1902 211.739 8.55981 212.674 8.55981V7.99919C211.888 7.99919 211.135 7.68864 210.579 7.13585C210.023 6.58307 209.711 5.83333 209.711 5.05158C209.711 4.26982 210.023 3.52009 210.579 2.9673C211.135 2.41452 211.888 2.10397 212.674 2.10397V1.54334Z" fill="white"/>
<path d="M228.475 8.55993C229.41 8.55993 230.308 8.19031 230.969 7.53239C231.63 6.87447 232.002 5.98214 232.002 5.05169C232.002 4.12125 231.63 3.22892 230.969 2.571C230.308 1.91307 229.41 1.54346 228.475 1.54346V2.10408C229.261 2.10408 230.015 2.41463 230.57 2.96742C231.126 3.5202 231.438 4.26994 231.438 5.05169C231.438 5.83345 231.126 6.58319 230.57 7.13597C230.015 7.68875 229.261 7.99931 228.475 7.99931V8.55993Z" fill="white"/>
<path fill-rule="evenodd" clip-rule="evenodd" d="M228.475 33.8894L212.674 33.8894L212.674 34.4507L228.475 34.4507L228.475 33.8894ZM228.475 27.4342L212.674 27.4342L212.674 27.9955L228.475 27.9955L228.475 27.4342Z" fill="white"/>
<path d="M212.674 34.4508C211.739 34.4508 210.842 34.0812 210.18 33.4233C209.519 32.7653 209.147 31.873 209.147 30.9426C209.147 30.0121 209.519 29.1198 210.18 28.4619C210.842 27.8039 211.739 27.4343 212.674 27.4343V27.995C211.888 27.995 211.135 28.3055 210.579 28.8583C210.023 29.4111 209.711 30.1608 209.711 30.9426C209.711 31.7243 210.023 32.4741 210.579 33.0268C211.135 33.5796 211.888 33.8902 212.674 33.8902V34.4508Z" fill="white"/>
<path d="M228.475 27.4342C229.41 27.4342 230.308 27.8038 230.969 28.4617C231.63 29.1197 232.002 30.012 232.002 30.9424C232.002 31.8729 231.63 32.7652 230.969 33.4231C230.308 34.0811 229.41 34.4507 228.475 34.4507V33.8901C229.261 33.8901 230.015 33.5795 230.57 33.0267C231.126 32.4739 231.438 31.7242 231.438 30.9424C231.438 30.1607 231.126 29.411 230.57 28.8582C230.015 28.3054 229.261 27.9948 228.475 27.9948V27.4342Z" fill="white"/>
<path fill-rule="evenodd" clip-rule="evenodd" d="M228.475 20.9089L212.674 20.9089L212.674 21.4702L228.475 21.4702L228.475 20.9089ZM228.475 14.4537L212.674 14.4537L212.674 15.0151L228.475 15.0151L228.475 14.4537Z" fill="white"/>
<path d="M212.674 21.4703C211.739 21.4703 210.842 21.1007 210.18 20.4428C209.519 19.7849 209.147 18.8925 209.147 17.9621C209.147 17.0317 209.519 16.1393 210.18 15.4814C210.842 14.8235 211.739 14.4539 212.674 14.4539V15.0145C211.888 15.0145 211.135 15.325 210.579 15.8778C210.023 16.4306 209.711 17.1803 209.711 17.9621C209.711 18.7439 210.023 19.4936 210.579 20.0464C211.135 20.5992 211.888 20.9097 212.674 20.9097V21.4703Z" fill="white"/>
<path d="M228.475 14.4537C229.41 14.4537 230.308 14.8234 230.969 15.4813C231.63 16.1392 232.002 17.0315 232.002 17.962C232.002 18.8924 231.63 19.7848 230.969 20.4427C230.308 21.1006 229.41 21.4702 228.475 21.4702V20.9096C229.261 20.9096 230.015 20.599 230.57 20.0463C231.126 19.4935 231.438 18.7437 231.438 17.962C231.438 17.1802 231.126 16.4305 230.57 15.8777C230.015 15.3249 229.261 15.0144 228.475 15.0144V14.4537Z" fill="white"/>
<path fill-rule="evenodd" clip-rule="evenodd" d="M253.461 18.6786L248.057 3.90951L248.587 3.71753L253.992 18.4866L253.461 18.6786ZM247.363 20.8864L241.959 6.1173L242.489 5.92532L247.893 20.6944L247.363 20.8864Z" fill="white"/>
<path d="M248.588 3.71745C248.268 2.84312 247.612 2.13101 246.764 1.73779C245.916 1.34457 244.946 1.30244 244.067 1.62067C243.188 1.9389 242.472 2.59142 242.077 3.43469C241.682 4.27795 241.639 5.24289 241.959 6.11722L242.489 5.92548C242.22 5.19087 242.256 4.38013 242.588 3.67162C242.92 2.96311 243.521 2.41486 244.26 2.14748C244.998 1.88011 245.814 1.91551 246.526 2.24589C247.238 2.57627 247.789 3.17458 248.058 3.90919L248.588 3.71745Z" fill="white"/>
<path fill-rule="evenodd" clip-rule="evenodd" d="M252.212 15.2772L257.616 30.0462L258.146 29.8542L252.742 15.0852L252.212 15.2772ZM246.114 17.485L251.518 32.254L252.048 32.062L246.644 17.293L246.114 17.485Z" fill="white"/>
<path d="M258.146 29.8543C258.466 30.7287 258.424 31.6936 258.029 32.5369C257.633 33.3801 256.917 34.0327 256.038 34.3509C255.159 34.6691 254.189 34.627 253.342 34.2338C252.494 33.8405 251.838 33.1284 251.518 32.2541L252.047 32.0624C252.316 32.797 252.867 33.3953 253.58 33.7257C254.292 34.0561 255.107 34.0915 255.846 33.8241C256.584 33.5567 257.186 33.0085 257.518 32.2999C257.85 31.5914 257.885 30.7807 257.617 30.0461L258.146 29.8543Z" fill="white"/>
<path fill-rule="evenodd" clip-rule="evenodd" d="M256.242 18.6786L261.646 3.90951L261.116 3.71753L255.712 18.4866L256.242 18.6786ZM262.34 20.8864L267.744 6.1173L267.214 5.92532L261.81 20.6944L262.34 20.8864Z" fill="white"/>
<path d="M261.115 3.71745C261.435 2.84312 262.091 2.13101 262.939 1.73779C263.787 1.34457 264.757 1.30244 265.636 1.62067C266.515 1.9389 267.231 2.59142 267.626 3.43469C268.021 4.27796 268.064 5.24289 267.744 6.11722L267.214 5.92548C267.483 5.19087 267.448 4.38013 267.115 3.67162C266.783 2.96311 266.182 2.41486 265.443 2.14748C264.705 1.88011 263.89 1.91551 263.177 2.24589C262.465 2.57627 261.914 3.17458 261.645 3.90919L261.115 3.71745Z" fill="white"/>
<path fill-rule="evenodd" clip-rule="evenodd" d="M257.491 15.2772L252.087 30.0462L251.557 29.8542L256.961 15.0852L257.491 15.2772ZM263.589 17.485L258.185 32.254L257.655 32.062L263.059 17.293L263.589 17.485Z" fill="white"/>
<path d="M251.557 29.8543C251.237 30.7287 251.279 31.6936 251.675 32.5369C252.07 33.3801 252.786 34.0327 253.665 34.3509C254.544 34.6691 255.514 34.627 256.362 34.2338C257.209 33.8405 257.865 33.1284 258.185 32.2541L257.656 32.0624C257.387 32.797 256.836 33.3953 256.123 33.7257C255.411 34.0561 254.596 34.0915 253.858 33.8241C253.119 33.5567 252.518 33.0085 252.185 32.2999C251.853 31.5914 251.818 30.7807 252.086 30.0461L251.557 29.8543Z" fill="white"/>
<path fill-rule="evenodd" clip-rule="evenodd" d="M289.507 17.2931L284.103 32.0622L284.633 32.2542L290.037 17.4851L289.507 17.2931ZM283.408 15.0853L278.004 29.8544L278.535 30.0464L283.939 15.2773L283.408 15.0853Z" fill="white"/>
<path d="M284.633 32.2542C284.313 33.1286 283.657 33.8407 282.809 34.2339C281.961 34.6271 280.991 34.6692 280.112 34.351C279.233 34.0328 278.517 33.3803 278.122 32.537C277.727 31.6937 277.684 30.7288 278.004 29.8545L278.534 30.0462C278.265 30.7808 278.301 31.5916 278.633 32.3001C278.965 33.0086 279.566 33.5568 280.305 33.8242C281.043 34.0916 281.858 34.0562 282.571 33.7258C283.283 33.3954 283.834 32.7971 284.103 32.0625L284.633 32.2542Z" fill="white"/>
<path fill-rule="evenodd" clip-rule="evenodd" d="M288.257 20.6945L293.662 5.92545L294.192 6.11743L288.788 20.8865L288.257 20.6945ZM282.159 18.4867L287.563 3.71766L288.094 3.90964L282.69 18.6787L282.159 18.4867Z" fill="white"/>
<path d="M294.192 6.11734C294.512 5.24301 294.469 4.27807 294.074 3.43481C293.679 2.59154 292.963 1.93902 292.084 1.62079C291.205 1.30256 290.235 1.34469 289.387 1.73791C288.539 2.13113 287.883 2.84323 287.563 3.71756L288.093 3.90931C288.362 3.1747 288.913 2.57639 289.625 2.24601C290.337 1.91562 291.152 1.88023 291.891 2.1476C292.63 2.41498 293.231 2.96323 293.563 3.67174C293.895 4.38025 293.931 5.19098 293.662 5.92559L294.192 6.11734Z" fill="white"/>
<path fill-rule="evenodd" clip-rule="evenodd" d="M292.287 17.2934L297.691 32.0624L297.161 32.2544L291.756 17.4853L292.287 17.2934ZM298.385 15.0856L303.789 29.8546L303.259 30.0466L297.855 15.2775L298.385 15.0856Z" fill="white"/>
<path d="M297.161 32.2542C297.481 33.1286 298.137 33.8407 298.985 34.2339C299.832 34.6271 300.802 34.6692 301.681 34.351C302.56 34.0328 303.276 33.3803 303.672 32.537C304.067 31.6937 304.109 30.7288 303.789 29.8545L303.26 30.0462C303.529 30.7808 303.493 31.5916 303.161 32.3001C302.829 33.0086 302.227 33.5568 301.489 33.8242C300.75 34.0916 299.935 34.0562 299.223 33.7258C298.51 33.3954 297.959 32.7971 297.69 32.0625L297.161 32.2542Z" fill="white"/>
<path fill-rule="evenodd" clip-rule="evenodd" d="M293.536 20.6945L288.132 5.92545L287.602 6.11743L293.006 20.8865L293.536 20.6945ZM299.634 18.4867L294.23 3.71765L293.7 3.90964L299.104 18.6787L299.634 18.4867Z" fill="white"/>
<path d="M287.602 6.11734C287.282 5.24301 287.324 4.27807 287.719 3.43481C288.115 2.59154 288.831 1.93902 289.71 1.62079C290.589 1.30256 291.559 1.34469 292.407 1.73791C293.254 2.13113 293.91 2.84323 294.23 3.71756L293.701 3.90931C293.432 3.1747 292.881 2.57639 292.168 2.24601C291.456 1.91562 290.641 1.88023 289.902 2.1476C289.164 2.41498 288.562 2.96323 288.23 3.67174C287.898 4.38025 287.863 5.19098 288.131 5.92559L287.602 6.11734Z" fill="white"/>
<path fill-rule="evenodd" clip-rule="evenodd" d="M297.744 26.031L284.06 26.031L284.06 26.5923L297.744 26.5923L297.744 26.031ZM297.744 19.5758L284.06 19.5758L284.06 20.1371L297.744 20.1371L297.744 19.5758Z" fill="white"/>
<path d="M284.271 26.5924C283.336 26.5924 282.439 26.2228 281.777 25.5649C281.116 24.9069 280.744 24.0146 280.744 23.0842C280.744 22.1537 281.116 21.2614 281.777 20.6035C282.439 19.9455 283.336 19.5759 284.271 19.5759V20.1366C283.485 20.1366 282.731 20.4471 282.176 20.9999C281.62 21.5527 281.308 22.3024 281.308 23.0842C281.308 23.8659 281.62 24.6157 282.176 25.1684C282.731 25.7212 283.485 26.0318 284.271 26.0318V26.5924Z" fill="white"/>
<path d="M297.532 19.5758C298.468 19.5758 299.365 19.9454 300.026 20.6033C300.687 21.2613 301.059 22.1536 301.059 23.084C301.059 24.0145 300.687 24.9068 300.026 25.5647C299.365 26.2227 298.468 26.5923 297.532 26.5923V26.0317C298.318 26.0317 299.072 25.7211 299.628 25.1683C300.183 24.6155 300.495 23.8658 300.495 23.084C300.495 22.3023 300.183 21.5526 299.628 20.9998C299.072 20.447 298.318 20.1364 297.532 20.1364V19.5758Z" fill="white"/>
</svg>
