<svg width="68" height="68" viewBox="0 0 68 68" fill="none" xmlns="http://www.w3.org/2000/svg">
<g clip-path="url(#clip0_35_55)">
<path d="M31.6081 46.217C31.2516 46.2201 30.8987 46.1452 30.5742 45.9977C30.2496 45.8502 29.9612 45.6336 29.7291 45.363L16.8291 31.353C16.6031 31.1065 16.4281 30.8177 16.314 30.5034C16.1999 30.189 16.149 29.8552 16.1643 29.5211C16.1795 29.187 16.2606 28.8592 16.4028 28.5566C16.545 28.2539 16.7456 27.9823 16.9931 27.7573C17.2406 27.5324 17.53 27.3585 17.8449 27.2457C18.1597 27.1329 18.4937 27.0834 18.8277 27.1C19.1617 27.1166 19.4892 27.199 19.7913 27.3425C20.0934 27.4859 20.3642 27.6876 20.5881 27.936L31.6931 39.981L62.4471 9.31302C62.9268 8.85863 63.5649 8.60933 64.2256 8.61815C64.8863 8.62696 65.5175 8.89321 65.9849 9.36024C66.4523 9.82728 66.7191 10.4582 66.7285 11.1189C66.7379 11.7796 66.4891 12.4179 66.0351 12.898L33.4021 45.448C33.1766 45.6985 32.8994 45.8969 32.5896 46.0297C32.2799 46.1625 31.945 46.2264 31.6081 46.217V46.217Z" fill="#699F35"/>
<path d="M34 67.9999C24.9826 67.9999 16.3346 64.4178 9.95837 58.0416C3.58213 51.6653 0 43.0173 0 33.9999C0 24.9826 3.58213 16.3345 9.95837 9.95831C16.3346 3.58207 24.9826 -6.00077e-05 34 -6.00077e-05C34.3383 -0.00630121 34.6744 0.0557286 34.9882 0.182322C35.3019 0.308915 35.587 0.497473 35.8262 0.736724C36.0655 0.975975 36.254 1.26101 36.3806 1.57479C36.5072 1.88856 36.5692 2.22464 36.563 2.56294C36.5691 2.90115 36.507 3.23712 36.3803 3.55078C36.2537 3.86445 36.0651 4.14936 35.8259 4.3885C35.5866 4.62765 35.3016 4.81611 34.9879 4.94265C34.6742 5.06918 34.3382 5.13118 34 5.12494C28.2893 5.12514 22.707 6.81871 17.9588 9.9915C13.2107 13.1643 9.50999 17.6738 7.32471 22.9498C5.13943 28.2258 4.56771 34.0313 5.68185 39.6322C6.796 45.2331 9.54596 50.3779 13.584 54.4159C17.622 58.454 22.7668 61.2039 28.3677 62.3181C33.9686 63.4322 39.7741 62.8605 45.0501 60.6752C50.3261 58.4899 54.8356 54.7892 58.0084 50.0411C61.1812 45.2929 62.8748 39.7106 62.875 33.9999C62.8683 33.6592 62.9296 33.3205 63.0553 33.0037C63.1811 32.6869 63.3688 32.3984 63.6074 32.155C63.846 31.9116 64.1308 31.7183 64.445 31.5863C64.7592 31.4543 65.0967 31.3863 65.4375 31.3863C65.7783 31.3863 66.1158 31.4543 66.43 31.5863C66.7442 31.7183 67.029 31.9116 67.2676 32.155C67.5062 32.3984 67.6939 32.6869 67.8197 33.0037C67.9454 33.3205 68.0067 33.6592 68 33.9999C67.9765 43.0101 64.3868 51.6445 58.0157 58.0156C51.6445 64.3868 43.0101 67.9764 34 67.9999V67.9999Z" fill="#3D3D3D"/>
</g>
<defs>
<clipPath id="clip0_35_55">
<rect width="68" height="68" fill="white"/>
</clipPath>
</defs>
</svg>
