<svg width="26" height="26" viewBox="0 0 26 26" fill="none" xmlns="http://www.w3.org/2000/svg">
<path d="M21.5173 4.60559C19.1791 2.26184 16.0653 0.972778 12.7561 0.972778C5.92578 0.972778 0.367746 6.53081 0.367746 13.3612C0.367746 15.5431 0.936942 17.6748 2.01953 19.5554L0.261719 25.9728L6.8298 24.2484C8.63783 25.2362 10.6747 25.7551 12.7506 25.7551H12.7561C19.5809 25.7551 25.2617 20.1971 25.2617 13.3668C25.2617 10.0576 23.8555 6.94934 21.5173 4.60559ZM12.7561 23.6681C10.9035 23.6681 9.08984 23.1714 7.5106 22.2339L7.13672 22.0107L3.24163 23.0319L4.27958 19.2317L4.03404 18.8411C3.00167 17.2005 2.46038 15.3087 2.46038 13.3612C2.46038 7.68595 7.08091 3.06541 12.7617 3.06541C15.5128 3.06541 18.0965 4.13684 20.0385 6.08439C21.9805 8.03193 23.1747 10.6156 23.1691 13.3668C23.1691 19.0476 18.4314 23.6681 12.7561 23.6681ZM18.4035 15.956C18.0965 15.7998 16.5731 15.052 16.2885 14.9516C16.0039 14.8455 15.7974 14.7953 15.591 15.1078C15.3845 15.4203 14.793 16.1123 14.6088 16.3243C14.4302 16.5308 14.2461 16.5587 13.9392 16.4025C12.12 15.4929 10.9258 14.7786 9.726 12.7194C9.40792 12.1726 10.0441 12.2116 10.6356 11.0286C10.736 10.8221 10.6858 10.6435 10.6077 10.4873C10.5296 10.331 9.91016 8.8076 9.65346 8.18818C9.40234 7.5855 9.14565 7.66921 8.95591 7.65805C8.77734 7.64689 8.57087 7.64689 8.3644 7.64689C8.15792 7.64689 7.8231 7.72501 7.5385 8.03193C7.25391 8.34443 6.45592 9.0922 6.45592 10.6156C6.45592 12.1391 7.56641 13.6123 7.71708 13.8188C7.87333 14.0252 9.899 17.1502 13.0073 18.4951C14.9715 19.3433 15.7416 19.4159 16.7238 19.2708C17.3209 19.1815 18.5541 18.523 18.8108 17.7976C19.0675 17.0721 19.0675 16.4527 18.9894 16.3243C18.9169 16.1848 18.7104 16.1067 18.4035 15.956Z" fill="white"/>
</svg>
