<svg width="40" height="40" viewBox="0 0 40 40" fill="none" xmlns="http://www.w3.org/2000/svg">
<path d="M11.6641 0C5.23286 0 0 5.23595 0 11.6687V28.3344C0 34.7664 5.23595 40 11.6687 40H28.3344C34.7664 40 40 34.7641 40 28.3313V11.6641C40 5.23286 34.7641 0 28.3313 0H11.6641ZM32 6.4C32.8832 6.4 33.6 7.1168 33.6 8C33.6 8.8832 32.8832 9.6 32 9.6C31.1168 9.6 30.4 8.8832 30.4 8C30.4 7.1168 31.1168 6.4 32 6.4ZM20 9.6C25.736 9.6 30.4 14.264 30.4 20C30.4 25.736 25.7352 30.4 20 30.4C14.264 30.4 9.6 25.7352 9.6 20C9.6 14.2648 14.264 9.6 20 9.6ZM20 12.8C16.0232 12.8 12.8 16.0232 12.8 20C12.8 23.9768 16.0232 27.2 20 27.2C23.9768 27.2 27.2 23.9768 27.2 20C27.2 16.0232 23.9768 12.8 20 12.8Z" fill="white"/>
</svg>
