<svg width="1264" height="152" viewBox="0 0 1264 152" fill="none" xmlns="http://www.w3.org/2000/svg">
<path fill-rule="evenodd" clip-rule="evenodd" d="M24.7517 132.04V16.873C24.7517 11.8648 20.6939 7.80477 15.6884 7.80477C10.6829 7.80477 6.62517 11.8648 6.62517 16.873V132.04C6.62517 137.048 10.6829 141.108 15.6884 141.108C20.6939 141.108 24.7517 137.048 24.7517 132.04ZM15.6884 1.75928C7.34593 1.75928 0.583008 8.52593 0.583008 16.873V132.04C0.583008 140.387 7.34593 147.153 15.6884 147.153C24.0309 147.153 30.7938 140.387 30.7938 132.04V16.873C30.7938 8.52593 24.0309 1.75928 15.6884 1.75928Z" fill="black"/>
<path fill-rule="evenodd" clip-rule="evenodd" d="M103.298 103.301C103.299 103.379 103.299 103.457 103.3 103.535C103.299 103.613 103.299 103.691 103.298 103.769C102.984 147.154 58.9558 147.154 58.9558 147.154H16.2639C7.93372 147.154 1.1875 140.167 1.1875 131.548C1.1875 122.929 7.94043 115.942 16.2706 115.942L58.9558 115.942C58.956 115.942 72.7816 115.942 73.1273 103.769C73.1295 103.692 73.1312 103.614 73.1323 103.535C73.1312 103.457 73.1295 103.379 73.1273 103.301C72.7816 91.1288 58.956 91.1287 58.9558 91.1287L16.2706 91.1287C7.94043 91.1287 1.1875 84.1417 1.1875 75.5228C1.1875 66.904 7.93372 59.917 16.2639 59.917H58.9558C58.9558 59.917 102.984 59.917 103.298 103.301ZM58.9427 65.9333C58.9494 65.9334 58.9639 65.9335 58.9859 65.9339C59.0364 65.9347 59.1261 65.9365 59.2525 65.9407C59.5056 65.949 59.9044 65.9666 60.428 66.0035C61.4774 66.0774 63.0157 66.2283 64.8779 66.5345C68.631 67.1515 73.5445 68.3747 78.389 70.7616C83.2114 73.1375 87.8479 76.6053 91.2989 81.688C94.72 86.7268 97.2183 93.7058 97.2575 103.535C97.2183 113.365 94.72 120.344 91.2989 125.382C87.8479 130.465 83.2114 133.933 78.389 136.309C73.5445 138.696 68.631 139.919 64.8779 140.536C63.0157 140.842 61.4774 140.993 60.428 141.067C59.9044 141.104 59.5056 141.122 59.2525 141.13C59.1261 141.134 59.0364 141.136 58.9859 141.137C58.9638 141.137 58.9493 141.137 58.9426 141.137H16.2639C11.4905 141.137 7.22967 137.067 7.22967 131.548C7.22967 126.032 11.4938 121.958 16.2706 121.958L58.9558 121.958C59.2206 121.958 63.7364 121.957 68.4224 119.893C70.8343 118.831 73.5302 117.12 75.6471 114.358C77.8192 111.524 79.1134 107.928 79.1738 103.619L79.175 103.535L79.1738 103.451C79.1134 99.142 77.8192 95.5469 75.6471 92.7128C73.5302 89.9509 70.8343 88.2391 68.4224 87.1772C63.7364 85.114 59.2206 85.1124 58.9558 85.1124L16.2706 85.1124C11.4938 85.1124 7.22967 81.0386 7.22967 75.5228C7.22967 70.0035 11.4905 65.9333 16.2639 65.9333H58.9427Z" fill="black"/>
<path fill-rule="evenodd" clip-rule="evenodd" d="M72.5287 46.2059C72.4125 33.334 58.3515 33.3339 58.3513 33.3339L15.6661 33.3339C7.33594 33.3339 0.583008 26.13 0.583008 17.2437C0.583008 8.35737 7.32923 1.15356 15.6594 1.15356H58.3513C58.3513 1.15356 102.59 1.15356 102.695 46.2059C102.695 46.2327 102.696 46.2595 102.696 46.2863C102.696 46.3132 102.695 46.34 102.695 46.3668C102.59 91.4191 58.3513 91.4191 58.3513 91.4191H15.6594C7.32923 91.4191 0.583008 84.2153 0.583008 75.329C0.583008 66.4426 7.33594 59.2388 15.6661 59.2388L58.3513 59.2388C58.3515 59.2388 72.4125 59.2387 72.5287 46.3668C72.5289 46.34 72.5291 46.3132 72.5292 46.2863C72.5291 46.2595 72.5289 46.2327 72.5287 46.2059ZM96.6712 46.2863C96.6581 36.0507 94.1542 28.7759 90.7145 23.5278C87.2517 18.2443 82.6018 14.654 77.7822 12.1999C72.9375 9.73297 68.0228 8.46958 64.2697 7.8323C62.4072 7.51605 60.8686 7.36034 59.8197 7.284C59.2962 7.24591 58.8978 7.2278 58.6454 7.21922C58.5192 7.21494 58.4299 7.21305 58.3799 7.21222C58.3585 7.21187 58.3444 7.21172 58.3377 7.21166H15.6594C10.9899 7.21166 6.60735 11.3576 6.60735 17.2437C6.60735 23.1262 10.9933 27.2758 15.6661 27.2758L58.3513 27.2758C58.622 27.2758 63.192 27.2777 67.9143 29.4392C70.3491 30.5537 73.0468 32.343 75.1428 35.2094C77.2871 38.1418 78.5336 41.8397 78.5535 46.259L78.5536 46.2863L78.5535 46.3137C78.5336 50.733 77.2871 54.4309 75.1428 57.3633C73.0468 60.2297 70.3491 62.019 67.9143 63.1335C63.192 65.295 58.622 65.2969 58.3513 65.2969L15.6661 65.2969C10.9933 65.2969 6.60735 69.4465 6.60735 75.329C6.60735 81.2151 10.9899 85.361 15.6594 85.361H58.3382C58.3451 85.361 58.3591 85.3608 58.3799 85.3605C58.4299 85.3596 58.5192 85.3578 58.6454 85.3535C58.8978 85.3449 59.2962 85.3268 59.8197 85.2887C60.8686 85.2123 62.4072 85.0566 64.2697 84.7404C68.0228 84.1031 72.9375 82.8397 77.7822 80.3728C82.6018 77.9187 87.2517 74.3283 90.7145 69.0449C94.1542 63.7968 96.6581 56.5219 96.6712 46.2863Z" fill="black"/>
<path fill-rule="evenodd" clip-rule="evenodd" d="M169.159 130.191V15.6928C169.159 10.6741 165.102 6.6057 160.096 6.6057C155.091 6.6057 151.033 10.6742 151.033 15.6928V130.191C151.033 135.209 155.091 139.278 160.096 139.278C165.102 139.278 169.159 135.209 169.159 130.191ZM160.096 0.547607C151.754 0.547607 144.991 7.32836 144.991 15.6928V130.191C144.991 138.555 151.754 145.336 160.096 145.336C168.439 145.336 175.202 138.555 175.202 130.191V15.6928C175.202 7.32836 168.439 0.547607 160.096 0.547607Z" fill="black"/>
<path fill-rule="evenodd" clip-rule="evenodd" d="M160.096 24.78L227.769 24.78C232.774 24.78 236.832 20.7115 236.832 15.6928C236.832 10.6742 232.774 6.6057 227.769 6.6057L160.096 6.60569C155.091 6.60569 151.033 10.6741 151.033 15.6928C151.033 20.7115 155.091 24.78 160.096 24.78ZM242.874 15.6928C242.874 7.32836 236.111 0.547607 227.769 0.547607L160.096 0.547604C151.754 0.547603 144.991 7.32835 144.991 15.6928C144.991 24.0573 151.754 30.8381 160.096 30.8381L227.769 30.8381C236.111 30.8381 242.874 24.0573 242.874 15.6928Z" fill="black"/>
<path fill-rule="evenodd" clip-rule="evenodd" d="M160.096 81.726L227.769 81.726C232.774 81.726 236.832 77.6576 236.832 72.6389C236.832 67.6202 232.774 63.5517 227.769 63.5517L160.096 63.5517C155.091 63.5517 151.033 67.6202 151.033 72.6389C151.033 77.6576 155.091 81.726 160.096 81.726ZM242.874 72.6389C242.874 64.2744 236.111 57.4937 227.769 57.4937L160.096 57.4936C151.754 57.4936 144.991 64.2744 144.991 72.6389C144.991 81.0034 151.754 87.7841 160.096 87.7841L227.769 87.7841C236.111 87.7841 242.874 81.0034 242.874 72.6389Z" fill="black"/>
<path fill-rule="evenodd" clip-rule="evenodd" d="M160.096 139.278L227.769 139.278C232.774 139.278 236.832 135.21 236.832 130.191C236.832 125.172 232.774 121.104 227.769 121.104L160.096 121.104C155.091 121.104 151.033 125.172 151.033 130.191C151.033 135.21 155.091 139.278 160.096 139.278ZM242.874 130.191C242.874 121.826 236.111 115.046 227.769 115.046L160.096 115.046C151.754 115.046 144.991 121.826 144.991 130.191C144.991 138.555 151.754 145.336 160.096 145.336L227.769 145.336C236.111 145.336 242.874 138.555 242.874 130.191Z" fill="black"/>
<path fill-rule="evenodd" clip-rule="evenodd" d="M456.162 130.191V15.6928C456.162 10.6741 452.105 6.6057 447.099 6.6057C442.094 6.6057 438.036 10.6742 438.036 15.6928V130.191C438.036 135.209 442.094 139.278 447.099 139.278C452.105 139.278 456.162 135.209 456.162 130.191ZM447.099 0.547607C438.757 0.547607 431.994 7.32836 431.994 15.6928V130.191C431.994 138.555 438.757 145.336 447.099 145.336C455.442 145.336 462.204 138.555 462.204 130.191V15.6928C462.204 7.32836 455.442 0.547607 447.099 0.547607Z" fill="black"/>
<path fill-rule="evenodd" clip-rule="evenodd" d="M447.099 24.78L514.772 24.78C519.777 24.78 523.835 20.7115 523.835 15.6928C523.835 10.6742 519.777 6.6057 514.772 6.6057L447.099 6.60569C442.094 6.60569 438.036 10.6741 438.036 15.6928C438.036 20.7115 442.094 24.78 447.099 24.78ZM529.877 15.6928C529.877 7.32836 523.114 0.547607 514.772 0.547607L447.099 0.547604C438.757 0.547603 431.994 7.32835 431.994 15.6928C431.994 24.0573 438.757 30.8381 447.099 30.8381L514.772 30.8381C523.114 30.8381 529.877 24.0573 529.877 15.6928Z" fill="black"/>
<path fill-rule="evenodd" clip-rule="evenodd" d="M447.099 81.726L514.772 81.726C519.777 81.726 523.835 77.6576 523.835 72.6389C523.835 67.6202 519.777 63.5517 514.772 63.5517L447.099 63.5517C442.094 63.5517 438.036 67.6202 438.036 72.6389C438.036 77.6576 442.094 81.726 447.099 81.726ZM529.877 72.6389C529.877 64.2744 523.114 57.4937 514.772 57.4937L447.099 57.4936C438.757 57.4936 431.994 64.2744 431.994 72.6389C431.994 81.0034 438.757 87.7841 447.099 87.7841L514.772 87.7841C523.114 87.7841 529.877 81.0034 529.877 72.6389Z" fill="black"/>
<path fill-rule="evenodd" clip-rule="evenodd" d="M447.099 139.278L514.772 139.278C519.777 139.278 523.835 135.21 523.835 130.191C523.835 125.172 519.777 121.104 514.772 121.104L447.099 121.104C442.094 121.104 438.036 125.172 438.036 130.191C438.036 135.21 442.094 139.278 447.099 139.278ZM529.877 130.191C529.877 121.826 523.114 115.046 514.772 115.046L447.099 115.046C438.757 115.046 431.994 121.826 431.994 130.191C431.994 138.555 438.757 145.336 447.099 145.336L514.772 145.336C523.114 145.336 529.877 138.555 529.877 130.191Z" fill="black"/>
<path fill-rule="evenodd" clip-rule="evenodd" d="M884.552 130.254V16.2354C884.552 11.2377 880.494 7.18631 875.489 7.18631C870.483 7.18631 866.425 11.2377 866.425 16.2354V130.254C866.425 135.252 870.483 139.303 875.489 139.303C880.494 139.303 884.552 135.252 884.552 130.254ZM875.489 1.15356C867.146 1.15356 860.383 7.90594 860.383 16.2354V130.254C860.383 138.584 867.146 145.336 875.489 145.336C883.831 145.336 890.594 138.584 890.594 130.254V16.2354C890.594 7.90594 883.831 1.15356 875.489 1.15356Z" fill="black"/>
<path fill-rule="evenodd" clip-rule="evenodd" d="M875.489 25.3859L943.161 25.3859C948.167 25.3859 952.224 21.3175 952.224 16.2988C952.224 11.2801 948.167 7.21166 943.161 7.21166L875.489 7.21165C870.483 7.21165 866.426 11.2801 866.426 16.2988C866.426 21.3175 870.483 25.3859 875.489 25.3859ZM958.267 16.2988C958.267 7.93432 951.504 1.15356 943.161 1.15356L875.489 1.15356C867.146 1.15356 860.383 7.93431 860.383 16.2988C860.383 24.6633 867.146 31.444 875.489 31.444L943.161 31.444C951.504 31.444 958.267 24.6633 958.267 16.2988Z" fill="black"/>
<path fill-rule="evenodd" clip-rule="evenodd" d="M875.489 82.332L943.161 82.332C948.167 82.332 952.224 78.2635 952.224 73.2448C952.224 68.2262 948.167 64.1577 943.161 64.1577L875.489 64.1577C870.483 64.1577 866.426 68.2261 866.426 73.2448C866.426 78.2635 870.483 82.332 875.489 82.332ZM958.267 73.2448C958.267 64.8804 951.504 58.0996 943.161 58.0996L875.489 58.0996C867.146 58.0996 860.383 64.8804 860.383 73.2448C860.383 81.6093 867.146 88.3901 875.489 88.3901L943.161 88.3901C951.504 88.3901 958.267 81.6093 958.267 73.2448Z" fill="black"/>
<path fill-rule="evenodd" clip-rule="evenodd" d="M875.489 139.399L943.161 139.399C948.167 139.399 952.224 135.412 952.224 130.494C952.224 125.575 948.167 121.588 943.161 121.588L875.489 121.588C870.483 121.588 866.426 125.575 866.426 130.494C866.426 135.412 870.483 139.399 875.489 139.399ZM958.267 130.494C958.267 122.297 951.504 115.651 943.161 115.651L875.489 115.651C867.146 115.651 860.383 122.296 860.383 130.494C860.383 138.691 867.146 145.336 875.489 145.336L943.161 145.336C951.504 145.336 958.267 138.691 958.267 130.494Z" fill="black"/>
<path fill-rule="evenodd" clip-rule="evenodd" d="M302.812 130.223V16.8726C302.812 11.8645 298.836 7.80461 293.93 7.80461C289.025 7.80461 285.048 11.8645 285.048 16.8726V130.223C285.048 135.231 289.025 139.291 293.93 139.291C298.836 139.291 302.812 135.231 302.812 130.223ZM293.93 1.75928C285.755 1.75928 279.127 8.52575 279.127 16.8726V130.223C279.127 138.57 285.755 145.336 293.93 145.336C302.106 145.336 308.734 138.57 308.734 130.223V16.8726C308.734 8.52575 302.106 1.75928 293.93 1.75928Z" fill="black"/>
<path fill-rule="evenodd" clip-rule="evenodd" d="M338.112 72.512L336.456 73.77C332.475 76.7942 331.693 82.4816 334.709 86.4732L371.78 135.53C374.796 139.522 380.468 140.306 384.449 137.282L386.105 136.024C390.086 133 390.869 127.312 387.852 123.321L350.782 74.2636C347.766 70.272 342.093 69.4878 338.112 72.512ZM332.815 68.9518C326.18 73.9921 324.877 83.4711 329.904 90.1238L366.974 139.181C372.001 145.833 381.455 147.14 388.09 142.1L389.746 140.842C396.381 135.802 397.685 126.323 392.658 119.67L355.588 70.613C350.561 63.9604 341.106 62.6534 334.471 67.6938L332.815 68.9518Z" fill="black"/>
<path fill-rule="evenodd" clip-rule="evenodd" d="M294.149 26.5146L344.864 26.5146C345.222 26.5146 349.934 26.5304 354.753 29.2165C357.253 30.6101 359.843 32.7586 361.783 36.0033C363.729 39.2573 364.821 43.2798 364.821 48.1037C364.821 52.9275 363.729 56.95 361.783 60.2041C359.843 63.4487 357.253 65.5972 354.753 66.9909C349.934 69.677 345.222 69.6928 344.864 69.6928L294.149 69.6928C289.29 69.6928 285.136 73.7907 285.136 79.0512C285.136 84.3158 289.286 88.4097 294.142 88.4097H344.849C344.855 88.4097 344.868 88.4095 344.886 88.4092C344.934 88.4084 345.02 88.4065 345.142 88.4021C345.387 88.3935 345.775 88.3751 346.286 88.3363C347.31 88.2586 348.815 88.0999 350.638 87.7772C354.31 87.1269 359.123 85.8373 363.869 83.3165C368.585 80.8118 373.167 77.131 376.591 71.6755C380.001 66.2419 382.481 58.6996 382.481 48.1037C382.481 37.5078 380.001 29.9654 376.591 24.5318C373.167 19.0763 368.585 15.3956 363.869 12.8908C359.123 10.3701 354.31 9.08042 350.638 8.43017C348.815 8.10743 347.31 7.94872 346.286 7.87101C345.775 7.83224 345.387 7.81387 345.142 7.80521C345.02 7.80088 344.934 7.79898 344.886 7.79817C344.868 7.79785 344.855 7.7977 344.849 7.79764L294.142 7.79764C289.286 7.79764 285.136 11.8915 285.136 17.1561C285.136 22.4167 289.29 26.5146 294.149 26.5146ZM344.864 1.75928L294.142 1.75928C285.845 1.75928 279.127 8.68085 279.127 17.1561C279.127 25.6314 285.853 32.5529 294.149 32.5529L344.864 32.553C344.864 32.553 358.812 32.553 358.812 48.1037C358.812 63.6543 344.864 63.6544 344.864 63.6544L294.149 63.6544C285.853 63.6544 279.127 70.576 279.127 79.0512C279.127 87.5265 285.845 94.4481 294.142 94.4481H344.864C344.864 94.4481 388.49 94.4481 388.49 48.1037C388.49 1.75928 344.864 1.75928 344.864 1.75928Z" fill="black"/>
<path fill-rule="evenodd" clip-rule="evenodd" d="M607.163 24.8643L665.201 24.8643C670.213 24.8643 674.277 20.7817 674.277 15.7456C674.277 10.7094 670.213 6.62682 665.201 6.62682L609.441 6.6268C608.803 6.6411 599.09 6.95852 589.678 11.9003C584.999 14.357 580.535 17.8829 577.228 22.9702C573.944 28.0212 571.576 34.9542 571.576 44.6217C571.576 64.1431 578.098 72.9454 583.673 77.1096C589.587 81.527 595.732 81.7005 596.177 81.7049C596.183 81.7049 596.195 81.705 596.223 81.7049L596.276 81.7048C596.297 81.7047 596.323 81.7047 596.352 81.7047L634.951 81.7047C639.712 81.7047 643.572 77.8262 643.572 73.0418C643.572 68.2575 639.712 64.379 634.951 64.379L605.456 64.379L605.456 58.2998L634.951 58.2998C643.054 58.2998 649.622 64.9001 649.622 73.0418C649.622 81.1836 643.054 87.7838 634.951 87.7838L596.352 87.7838C596.271 87.7838 596.199 87.7845 596.117 87.7837C594.097 87.7638 565.526 86.7372 565.526 44.6217C565.526 1.7337 607.853 0.57579 609.348 0.548262C609.386 0.547561 609.405 0.547583 609.435 0.547618L665.201 0.547639C673.555 0.54764 680.327 7.35199 680.327 15.7456C680.327 24.1392 673.555 30.9435 665.201 30.9435L607.163 30.9435C606.029 30.9435 604.892 31.059 603.84 31.4838C600.875 32.6808 594.869 36.1509 594.869 44.6217C594.869 58.2998 605.456 58.2998 605.456 58.2998C605.456 64.379 605.452 64.379 605.449 64.379L605.441 64.379L605.424 64.3789L605.403 64.3788L605.387 64.3787C605.361 64.3784 605.332 64.378 605.301 64.3773C605.237 64.376 605.163 64.3737 605.078 64.3701C604.909 64.3628 604.697 64.3498 604.448 64.3268C603.952 64.2811 603.297 64.1946 602.534 64.0304C601.026 63.7056 598.976 63.0508 596.891 61.7038C592.35 58.7708 588.818 53.328 588.818 44.6217C588.818 32.4309 597.738 27.3956 601.584 25.8429C603.661 25.0046 605.676 24.8643 607.163 24.8643Z" fill="black"/>
<path fill-rule="evenodd" clip-rule="evenodd" d="M638.909 121.104L581.176 121.104C576.19 121.104 572.148 125.172 572.148 130.191C572.148 135.21 576.19 139.278 581.176 139.278L636.643 139.278C637.277 139.264 646.939 138.948 656.302 134.023C660.956 131.575 665.396 128.061 668.686 122.991C671.952 117.958 674.309 111.049 674.309 101.415C674.309 81.6018 667.579 72.7643 661.906 68.6219C655.942 64.2665 649.865 64.1593 649.775 64.1578C649.774 64.1577 649.774 64.1577 649.775 64.1577L649.768 64.1578L611.267 64.1578C606.531 64.1578 602.691 68.0228 602.691 72.7906C602.691 77.5583 606.531 81.4233 611.267 81.4233L640.394 81.4233C640.558 81.4233 640.918 81.4233 641.338 81.4602C642.628 81.5735 646.552 82.1202 650.258 85.0634C654.261 88.2417 657.156 93.5302 657.156 101.415C657.156 113.564 648.284 118.581 644.458 120.129C642.392 120.964 640.388 121.104 638.909 121.104ZM566.13 130.191C566.13 138.555 572.866 145.336 581.176 145.336L636.648 145.336C636.678 145.336 636.697 145.336 636.735 145.336C638.222 145.308 680.327 144.154 680.327 101.415C680.327 58.6384 650.802 58.1056 649.81 58.0998C649.789 58.0996 649.777 58.0997 649.763 58.0997C649.755 58.0997 649.747 58.0997 649.737 58.0997L611.267 58.0997C603.207 58.0997 596.673 64.677 596.673 72.7906C596.673 80.9041 603.207 87.4814 611.267 87.4814L640.391 87.4814C640.535 87.4814 640.672 87.4829 640.815 87.4954C642.294 87.6253 651.138 88.9243 651.138 101.415C651.138 109.856 645.163 113.315 642.214 114.507C641.167 114.931 640.037 115.046 638.909 115.046L581.176 115.046C572.866 115.046 566.13 121.826 566.13 130.191Z" fill="black"/>
<path fill-rule="evenodd" clip-rule="evenodd" d="M818.693 130.254V16.2354C818.693 11.2377 814.635 7.18631 809.629 7.18631C804.624 7.18631 800.566 11.2377 800.566 16.2354V130.254C800.566 135.252 804.624 139.303 809.629 139.303C814.635 139.303 818.693 135.252 818.693 130.254ZM809.629 1.15356C801.287 1.15356 794.524 7.90594 794.524 16.2354V130.254C794.524 138.584 801.287 145.336 809.629 145.336C817.972 145.336 824.735 138.584 824.735 130.254V16.2354C824.735 7.90594 817.972 1.15356 809.629 1.15356Z" fill="black"/>
<path fill-rule="evenodd" clip-rule="evenodd" d="M816.933 126.456L738.682 11.2694C735.926 7.21289 730.337 6.04846 726.198 8.66857C722.058 11.2887 720.937 16.7011 723.692 20.7576L801.943 135.944C804.699 140 810.288 141.165 814.428 138.545C818.567 135.925 819.688 130.512 816.933 126.456ZM722.804 3.67241C715.849 8.07475 713.964 17.1688 718.594 23.9846L796.845 139.171C801.475 145.987 810.867 147.943 817.822 143.541C824.777 139.139 826.661 130.044 822.031 123.229L743.78 8.04236C739.15 1.22656 729.758 -0.72993 722.804 3.67241Z" fill="black"/>
<path fill-rule="evenodd" clip-rule="evenodd" d="M740.144 130.254V16.2354C740.144 11.2377 736.086 7.18631 731.081 7.18631C726.076 7.18631 722.018 11.2377 722.018 16.2354V130.254C722.018 135.252 726.076 139.303 731.081 139.303C736.086 139.303 740.144 135.252 740.144 130.254ZM731.081 1.15356C722.739 1.15356 715.976 7.90594 715.976 16.2354V130.254C715.976 138.584 722.739 145.336 731.081 145.336C739.423 145.336 746.186 138.584 746.186 130.254V16.2354C746.186 7.90594 739.423 1.15356 731.081 1.15356Z" fill="black"/>
<path fill-rule="evenodd" clip-rule="evenodd" d="M1063.3 125.993L1022.01 14.3062C1019.86 8.48863 1013.42 5.52056 1007.61 7.67679C1001.81 9.83302 998.851 16.297 1001 22.1146L1042.29 133.801C1044.44 139.619 1050.89 142.587 1056.69 140.431C1062.49 138.275 1065.45 131.811 1063.3 125.993ZM1005.52 2.00859C996.594 5.32511 992.04 15.2675 995.348 24.2154L1036.64 135.902C1039.94 144.85 1049.86 149.415 1058.78 146.099C1067.71 142.782 1072.26 132.84 1068.95 123.892L1027.67 12.2053C1024.36 3.25729 1014.44 -1.30792 1005.52 2.00859Z" fill="black"/>
<path fill-rule="evenodd" clip-rule="evenodd" d="M1041.77 126.079L1083.05 14.3921C1085.2 8.57457 1091.65 5.6065 1097.45 7.76273C1103.26 9.91896 1106.22 16.383 1104.07 22.2005L1062.78 133.887C1060.63 139.705 1054.18 142.673 1048.38 140.517C1042.58 138.36 1039.62 131.896 1041.77 126.079ZM1099.55 2.09453C1108.47 5.41104 1113.03 15.3534 1109.72 24.3014L1068.43 135.988C1065.12 144.936 1055.21 149.501 1046.28 146.185C1037.36 142.868 1032.81 132.926 1036.11 123.978L1077.4 12.2912C1080.71 3.34323 1090.62 -1.22198 1099.55 2.09453Z" fill="black"/>
<path fill-rule="evenodd" clip-rule="evenodd" d="M1231.98 85.9669H1175.18C1170.17 85.9669 1166.12 90.0353 1166.12 95.054C1166.12 100.073 1170.17 104.141 1175.18 104.141H1231.98C1236.98 104.141 1241.04 100.073 1241.04 95.054C1241.04 90.0353 1236.98 85.9669 1231.98 85.9669ZM1160.07 95.054C1160.07 103.418 1166.84 110.199 1175.18 110.199H1231.98C1240.32 110.199 1247.08 103.418 1247.08 95.054C1247.08 86.6895 1240.32 79.9088 1231.98 79.9088H1175.18C1166.84 79.9088 1160.07 86.6895 1160.07 95.054Z" fill="black"/>
<path fill-rule="evenodd" clip-rule="evenodd" d="M1170.62 133.301L1211.88 19.6859C1213.59 14.9803 1211.17 9.77662 1206.47 8.06322C1201.78 6.34983 1196.59 8.7755 1194.88 13.4811L1153.62 127.096C1151.91 131.801 1154.33 137.005 1159.03 138.719C1163.72 140.432 1168.91 138.006 1170.62 133.301ZM1208.54 2.38304C1200.72 -0.472624 1192.07 3.57017 1189.22 11.4129L1147.96 125.028C1145.11 132.87 1149.14 141.543 1156.96 144.399C1164.79 147.254 1173.44 143.212 1176.28 135.369L1217.54 21.7541C1220.39 13.9114 1216.36 5.23871 1208.54 2.38304Z" fill="black"/>
<path fill-rule="evenodd" clip-rule="evenodd" d="M1211.92 13.4811L1253.18 127.096C1254.89 131.801 1252.47 137.005 1247.77 138.719C1243.08 140.432 1237.89 138.006 1236.18 133.301L1194.92 19.6859C1193.21 14.9803 1195.63 9.77661 1200.33 8.06321C1205.02 6.34981 1210.21 8.77549 1211.92 13.4811ZM1249.84 144.399C1242.01 147.254 1233.36 143.212 1230.52 135.369L1189.26 21.7541C1186.41 13.9114 1190.44 5.23869 1198.26 2.38303C1206.08 -0.472637 1214.73 3.57016 1217.58 11.4129L1258.84 125.028C1261.69 132.87 1257.66 141.543 1249.84 144.399Z" fill="black"/>
</svg>
