<svg width="1045" height="122" viewBox="0 0 1045 122" fill="none" xmlns="http://www.w3.org/2000/svg">
<path fill-rule="evenodd" clip-rule="evenodd" d="M983.604 109.144V13.8564C983.604 9.67971 980.224 6.29386 976.055 6.29386C971.886 6.29386 968.506 9.67971 968.506 13.8564V109.144C968.506 113.321 971.886 116.706 976.055 116.706C980.224 116.706 983.604 113.321 983.604 109.144ZM976.055 1.2522C969.106 1.2522 963.474 6.89528 963.474 13.8564V109.144C963.474 116.105 969.106 121.748 976.055 121.748C983.003 121.748 988.636 116.105 988.636 109.144V13.8564C988.636 6.89528 983.003 1.2522 976.055 1.2522Z" fill="black"/>
<path fill-rule="evenodd" clip-rule="evenodd" d="M976.055 21.4189L1032.42 21.4189C1036.59 21.4189 1039.97 18.033 1039.97 13.8564C1039.97 9.67971 1036.59 6.29386 1032.42 6.29386L976.055 6.29386C971.886 6.29386 968.506 9.67971 968.506 13.8564C968.506 18.033 971.886 21.4189 976.055 21.4189ZM1045 13.8564C1045 6.89528 1039.37 1.2522 1032.42 1.2522L976.055 1.25219C969.106 1.25219 963.473 6.89527 963.473 13.8564C963.473 20.8174 969.106 26.4605 976.055 26.4605L1032.42 26.4605C1039.37 26.4605 1045 20.8175 1045 13.8564Z" fill="black"/>
<path fill-rule="evenodd" clip-rule="evenodd" d="M976.055 68.8105L1032.42 68.8105C1036.59 68.8105 1039.97 65.4246 1039.97 61.248C1039.97 57.0713 1036.59 53.6855 1032.42 53.6855L976.055 53.6855C971.886 53.6855 968.506 57.0713 968.506 61.248C968.506 65.4246 971.886 68.8105 976.055 68.8105ZM1045 61.248C1045 54.2869 1039.37 48.6438 1032.42 48.6438L976.055 48.6438C969.106 48.6438 963.473 54.2869 963.473 61.248C963.473 68.2091 969.106 73.8521 976.055 73.8521L1032.42 73.8521C1039.37 73.8521 1045 68.2091 1045 61.248Z" fill="black"/>
<path fill-rule="evenodd" clip-rule="evenodd" d="M976.055 116.706L1032.42 116.706C1036.59 116.706 1039.97 113.32 1039.97 109.144C1039.97 104.967 1036.59 101.581 1032.42 101.581L976.055 101.581C971.886 101.581 968.506 104.967 968.506 109.144C968.506 113.32 971.886 116.706 976.055 116.706ZM1045 109.144C1045 102.183 1039.37 96.5396 1032.42 96.5396L976.055 96.5395C969.106 96.5395 963.473 102.183 963.473 109.144C963.473 116.105 969.106 121.748 976.055 121.748L1032.42 121.748C1039.37 121.748 1045 116.105 1045 109.144Z" fill="black"/>
<path fill-rule="evenodd" clip-rule="evenodd" d="M506.683 21.1667L554.96 21.1667C559.129 21.1667 562.509 17.7808 562.509 13.6042C562.509 9.42753 559.129 6.04169 554.96 6.04169L508.578 6.04168C508.048 6.05354 499.968 6.31678 492.139 10.4151C488.247 12.4526 484.534 15.3768 481.783 19.5958C479.052 23.7847 477.082 29.5346 477.082 37.5521C477.082 53.7418 482.507 61.0419 487.144 64.4954C492.064 68.1589 497.175 68.3028 497.545 68.3064C497.55 68.3064 497.56 68.3065 497.584 68.3065L497.628 68.3063C497.645 68.3063 497.667 68.3062 497.691 68.3062L529.797 68.3062C533.758 68.3062 536.969 65.0897 536.969 61.1219C536.969 57.154 533.758 53.9375 529.797 53.9375L505.264 53.9375L505.264 48.8958L529.797 48.8958C536.537 48.8958 542.001 54.3696 542.001 61.1219C542.001 67.8741 536.537 73.3479 529.797 73.3479L497.691 73.3479C497.623 73.3479 497.563 73.3485 497.496 73.3478C495.815 73.3313 472.049 72.4798 472.049 37.5521C472.049 1.98366 507.257 1.02337 508.501 1.00054C508.533 0.999961 508.548 0.999979 508.573 1.00001L554.96 1.00003C561.908 1.00003 567.541 6.6431 567.541 13.6042C567.541 20.5653 561.908 26.2083 554.96 26.2083L506.683 26.2083C505.74 26.2083 504.795 26.3041 503.919 26.6564C501.453 27.6491 496.457 30.527 496.457 37.5521C496.457 48.8958 505.264 48.8958 505.264 48.8958C505.264 53.9375 505.261 53.9375 505.257 53.9375L505.251 53.9375L505.237 53.9374L505.219 53.9373L505.206 53.9372C505.184 53.937 505.16 53.9366 505.134 53.9361C505.082 53.935 505.02 53.9331 504.949 53.9301C504.809 53.9241 504.632 53.9133 504.425 53.8942C504.013 53.8563 503.468 53.7846 502.833 53.6483C501.579 53.379 499.874 52.8359 498.139 51.7188C494.362 49.2864 491.424 44.7725 491.424 37.5521C491.424 27.4418 498.844 23.2659 502.043 21.9782C503.77 21.283 505.446 21.1667 506.683 21.1667Z" fill="black"/>
<path fill-rule="evenodd" clip-rule="evenodd" d="M533.158 101.329L484.882 101.329C480.713 101.329 477.333 104.715 477.333 108.892C477.333 113.068 480.713 116.454 484.882 116.454L531.264 116.454C531.794 116.442 539.873 116.179 547.703 112.081C551.595 110.043 555.308 107.119 558.059 102.9C560.79 98.7111 562.76 92.9613 562.76 84.9437C562.76 68.4548 557.132 61.1001 552.389 57.6526C547.402 54.028 542.32 53.9388 542.245 53.9375C542.244 53.9375 542.244 53.9375 542.245 53.9375L542.239 53.9375L510.045 53.9375C506.084 53.9375 502.873 57.1541 502.873 61.1219C502.873 65.0897 506.084 68.3063 510.045 68.3063L534.4 68.3063C534.538 68.3063 534.839 68.3063 535.19 68.337C536.269 68.4313 539.55 68.8862 542.649 71.3356C545.997 73.9806 548.417 78.3818 548.417 84.9437C548.417 95.054 540.998 99.23 537.799 100.518C536.071 101.213 534.396 101.329 533.158 101.329ZM472.301 108.892C472.301 115.853 477.934 121.496 484.882 121.496L531.269 121.496C531.294 121.496 531.309 121.496 531.341 121.495C532.585 121.472 567.793 120.512 567.793 84.9437C567.793 49.3442 543.104 48.9007 542.274 48.8959C542.256 48.8958 542.247 48.8958 542.235 48.8958C542.229 48.8958 542.222 48.8959 542.213 48.8959L510.045 48.8959C503.305 48.8959 497.841 54.3696 497.841 61.1219C497.841 67.8741 503.305 73.3479 510.045 73.3479L534.398 73.3479C534.518 73.3479 534.633 73.3491 534.753 73.3596C535.99 73.4677 543.385 74.5488 543.385 84.9437C543.385 91.9689 538.389 94.8468 535.923 95.8394C535.047 96.1917 534.102 96.2875 533.158 96.2875L484.882 96.2875C477.934 96.2875 472.301 101.931 472.301 108.892Z" fill="black"/>
<path fill-rule="evenodd" clip-rule="evenodd" d="M320.319 108.892V13.6042C320.319 9.42751 316.939 6.04167 312.77 6.04167C308.601 6.04167 305.221 9.42751 305.221 13.6042V108.892C305.221 113.068 308.601 116.454 312.77 116.454C316.939 116.454 320.319 113.068 320.319 108.892ZM312.77 1C305.822 1 300.189 6.64308 300.189 13.6042V108.892C300.189 115.853 305.822 121.496 312.77 121.496C319.719 121.496 325.351 115.853 325.351 108.892V13.6042C325.351 6.64308 319.719 1 312.77 1Z" fill="black"/>
<path fill-rule="evenodd" clip-rule="evenodd" d="M319.066 105.514L253.751 9.44648C251.451 6.06328 246.785 5.09212 243.33 7.27734C239.875 9.46256 238.939 13.9767 241.239 17.3599L306.554 113.428C308.855 116.811 313.52 117.782 316.975 115.597C320.43 113.412 321.367 108.897 319.066 105.514ZM240.497 3.11044C234.691 6.78209 233.118 14.3668 236.983 20.0513L302.299 116.119C306.164 121.804 314.003 123.435 319.808 119.764C325.614 116.092 327.187 108.507 323.322 102.823L258.006 6.75507C254.141 1.07055 246.302 -0.561203 240.497 3.11044Z" fill="black"/>
<path fill-rule="evenodd" clip-rule="evenodd" d="M254.897 108.892V13.6042C254.897 9.42751 251.517 6.04167 247.348 6.04167C243.179 6.04167 239.799 9.42751 239.799 13.6042V108.892C239.799 113.068 243.179 116.454 247.348 116.454C251.517 116.454 254.897 113.068 254.897 108.892ZM247.348 1C240.399 1 234.767 6.64308 234.767 13.6042V108.892C234.767 115.853 240.399 121.496 247.348 121.496C254.296 121.496 259.929 115.853 259.929 108.892V13.6042C259.929 6.64308 254.296 1 247.348 1Z" fill="black"/>
<path fill-rule="evenodd" clip-rule="evenodd" d="M782.051 71.8355H734.746C730.577 71.8355 727.197 75.2214 727.197 79.398C727.197 83.5747 730.577 86.9605 734.746 86.9605H782.051C786.22 86.9605 789.6 83.5747 789.6 79.398C789.6 75.2214 786.22 71.8355 782.051 71.8355ZM722.165 79.398C722.165 86.3591 727.797 92.0022 734.746 92.0022H782.051C789 92.0022 794.633 86.3591 794.633 79.398C794.633 72.4369 789 66.7939 782.051 66.7939H734.746C727.797 66.7939 722.165 72.4369 722.165 79.398Z" fill="black"/>
<path fill-rule="evenodd" clip-rule="evenodd" d="M731.042 111.476L765.482 16.7185C766.908 12.7939 764.889 8.45392 760.971 7.02491C757.054 5.5959 752.722 7.61897 751.295 11.5436L716.855 106.301C715.429 110.225 717.448 114.565 721.366 115.994C725.283 117.423 729.615 115.4 731.042 111.476ZM762.693 2.28752C756.164 -0.0941653 748.944 3.27761 746.567 9.81858L712.126 104.576C709.749 111.117 713.115 118.35 719.644 120.732C726.173 123.113 733.393 119.742 735.77 113.201L770.21 18.4434C772.588 11.9024 769.222 4.6692 762.693 2.28752Z" fill="black"/>
<path fill-rule="evenodd" clip-rule="evenodd" d="M765.514 11.5435L799.954 106.301C801.381 110.225 799.361 114.565 795.444 115.994C791.526 117.423 787.194 115.4 785.768 111.475L751.328 16.7184C749.901 12.7938 751.921 8.45385 755.838 7.02484C759.756 5.59583 764.088 7.61889 765.514 11.5435ZM797.166 120.732C790.637 123.113 783.417 119.741 781.039 113.2L746.599 18.4434C744.222 11.9024 747.587 4.66914 754.116 2.28745C760.646 -0.0942337 767.866 3.27754 770.243 9.81852L804.683 104.576C807.06 111.117 803.695 118.35 797.166 120.732Z" fill="black"/>
<path fill-rule="evenodd" clip-rule="evenodd" d="M184.693 71.5833H137.387C133.218 71.5833 129.839 74.9692 129.839 79.1458C129.839 83.3225 133.218 86.7083 137.387 86.7083H184.693C188.862 86.7083 192.242 83.3225 192.242 79.1458C192.242 74.9692 188.862 71.5833 184.693 71.5833ZM124.806 79.1458C124.806 86.1069 130.439 91.75 137.387 91.75H184.693C191.641 91.75 197.274 86.1069 197.274 79.1458C197.274 72.1847 191.641 66.5417 184.693 66.5417H137.387C130.439 66.5417 124.806 72.1847 124.806 79.1458Z" fill="black"/>
<path fill-rule="evenodd" clip-rule="evenodd" d="M133.683 111.223L168.123 16.4663C169.55 12.5417 167.53 8.20173 163.613 6.77271C159.695 5.3437 155.363 7.36677 153.937 11.2914L119.497 106.048C118.07 109.973 120.09 114.313 124.007 115.742C127.925 117.171 132.257 115.148 133.683 111.223ZM165.335 2.03532C158.806 -0.346363 151.585 3.02541 149.208 9.56639L114.768 104.323C112.391 110.864 115.756 118.098 122.285 120.479C128.815 122.861 136.035 119.489 138.412 112.948L172.852 18.1912C175.229 11.6503 171.864 4.41701 165.335 2.03532Z" fill="black"/>
<path fill-rule="evenodd" clip-rule="evenodd" d="M168.156 11.2915L202.596 106.049C204.022 109.973 202.003 114.313 198.085 115.742C194.168 117.171 189.836 115.148 188.41 111.224L153.969 16.4664C152.543 12.5418 154.562 8.2019 158.48 6.77289C162.397 5.34388 166.729 7.36694 168.156 11.2915ZM199.807 120.48C193.278 122.861 186.058 119.489 183.681 112.949L149.241 18.1914C146.863 11.6504 150.229 4.41718 156.758 2.0355C163.287 -0.346186 170.507 3.02559 172.885 9.56657L207.325 104.324C209.702 110.865 206.336 118.098 199.807 120.48Z" fill="black"/>
<path fill-rule="evenodd" clip-rule="evenodd" d="M20.13 108.892V13.6042C20.13 9.42751 16.7503 6.04167 12.5813 6.04167C8.4122 6.04167 5.03251 9.42751 5.03251 13.6042V108.892C5.03251 113.068 8.4122 116.454 12.5813 116.454C16.7503 116.454 20.13 113.068 20.13 108.892ZM12.5813 1C5.63282 1 0 6.64308 0 13.6042V108.892C0 115.853 5.63282 121.496 12.5813 121.496C19.5297 121.496 25.1625 115.853 25.1625 108.892V13.6042C25.1625 6.64308 19.5297 1 12.5813 1Z" fill="black"/>
<path fill-rule="evenodd" clip-rule="evenodd" d="M68.9453 101.329L12.5813 101.329C8.4122 101.329 5.03251 104.715 5.03251 108.892C5.03251 113.068 8.4122 116.454 12.5813 116.454L68.9453 116.454C73.1144 116.454 76.4941 113.068 76.4941 108.892C76.4941 104.715 73.1144 101.329 68.9453 101.329ZM0 108.892C0 115.853 5.63283 121.496 12.5813 121.496L68.9453 121.496C75.8938 121.496 81.5266 115.853 81.5266 108.892C81.5266 101.931 75.8938 96.2875 68.9453 96.2875L12.5813 96.2875C5.63282 96.2875 0 101.931 0 108.892Z" fill="black"/>
<path fill-rule="evenodd" clip-rule="evenodd" d="M380.206 106.623V13.6042C380.206 9.42751 376.826 6.04167 372.657 6.04167C368.488 6.04167 365.108 9.42751 365.108 13.6042V106.623C365.108 110.8 368.488 114.185 372.657 114.185C376.826 114.185 380.206 110.8 380.206 106.623ZM372.657 1C365.709 1 360.076 6.64308 360.076 13.6042V106.623C360.076 113.584 365.709 119.227 372.657 119.227C379.605 119.227 385.238 113.584 385.238 106.623V13.6042C385.238 6.64308 379.605 1 372.657 1Z" fill="black"/>
<path fill-rule="evenodd" clip-rule="evenodd" d="M681.15 13.8562L681.15 15.1014C681.15 19.278 677.77 22.6639 673.601 22.6639L656.156 22.6639C655.964 22.6639 647.113 22.6638 638.133 26.145C633.601 27.9019 628.745 30.655 624.995 35.0172C621.16 39.4765 618.71 45.3595 618.71 52.8364L618.71 68.1588C618.71 72.3255 615.339 75.7032 611.18 75.7032C607.021 75.7032 603.649 72.3255 603.649 68.1588L603.649 52.8364C603.649 40.9457 606.942 32.3479 611.643 26.0262C616.389 19.644 622.799 15.2798 629.442 12.3021C636.09 9.32181 642.807 7.80675 647.908 7.04453C650.446 6.66532 652.551 6.47723 654.005 6.38416C654.731 6.33767 655.292 6.31503 655.66 6.30403C655.844 6.29853 655.98 6.29594 656.064 6.29472C656.106 6.29412 656.135 6.29385 656.15 6.29375L656.156 6.29368L656.16 6.29368L656.162 6.29367L673.601 6.29368C677.77 6.29368 681.15 9.67952 681.15 13.8562ZM686.182 15.1014L686.182 13.8562C686.182 6.89508 680.549 1.25201 673.601 1.25201L656.156 1.25201C656.156 1.25201 598.617 1.25201 598.617 52.8364L598.617 68.1588C598.617 75.1099 604.241 80.7449 611.18 80.7449C618.118 80.7449 623.743 75.1099 623.743 68.1588L623.743 52.8364C623.743 27.7056 656.156 27.7056 656.156 27.7056L673.601 27.7056C680.549 27.7055 686.182 22.0625 686.182 15.1014Z" fill="black"/>
<path fill-rule="evenodd" clip-rule="evenodd" d="M681.15 109.144L681.15 107.899C681.15 103.722 677.77 100.336 673.601 100.336L656.156 100.336C655.964 100.336 647.113 100.336 638.133 96.855C633.601 95.0981 628.745 92.345 624.995 87.9828C621.16 83.5235 618.71 77.6405 618.71 70.1636L618.71 54.8412C618.71 50.6745 615.339 47.2968 611.18 47.2968C607.021 47.2968 603.649 50.6745 603.649 54.8412L603.649 70.1636C603.649 82.0543 606.942 90.6521 611.643 96.9738C616.389 103.356 622.799 107.72 629.442 110.698C636.09 113.678 642.807 115.193 647.908 115.955C650.446 116.335 652.551 116.523 654.005 116.616C654.731 116.662 655.292 116.685 655.66 116.696C655.844 116.701 655.98 116.704 656.064 116.705C656.106 116.706 656.135 116.706 656.15 116.706L656.156 116.706L656.16 116.706L656.162 116.706L673.601 116.706C677.77 116.706 681.15 113.32 681.15 109.144ZM686.182 107.899L686.182 109.144C686.182 116.105 680.549 121.748 673.601 121.748L656.156 121.748C656.156 121.748 598.617 121.748 598.617 70.1636L598.617 54.8412C598.617 47.8901 604.241 42.2551 611.18 42.2551C618.118 42.2551 623.743 47.8901 623.743 54.8412L623.743 70.1636C623.743 95.2944 656.156 95.2944 656.156 95.2944L673.601 95.2944C680.549 95.2945 686.182 100.938 686.182 107.899Z" fill="black"/>
<path fill-rule="evenodd" clip-rule="evenodd" d="M860.559 109.396V13.8564C860.559 9.67971 857.179 6.29386 853.01 6.29386C848.841 6.29386 845.461 9.67971 845.461 13.8564V109.396C845.461 113.573 848.841 116.958 853.01 116.958C857.179 116.958 860.559 113.573 860.559 109.396ZM853.01 1.2522C846.062 1.2522 840.429 6.89527 840.429 13.8564V109.396C840.429 116.357 846.062 122 853.01 122C859.958 122 865.591 116.357 865.591 109.396V13.8564C865.591 6.89528 859.958 1.2522 853.01 1.2522Z" fill="black"/>
<path fill-rule="evenodd" clip-rule="evenodd" d="M935.795 40.3859C935.71 1.2522 897.752 1.2522 897.752 1.2522L853.359 1.2522C846.213 1.2522 840.429 7.09247 840.429 14.2968C840.429 21.5011 846.222 27.3414 853.368 27.3414L897.752 27.3414C897.752 27.3414 909.835 27.3415 909.915 40.3859C909.915 40.4076 909.915 40.4294 909.915 40.4512C909.915 40.4729 909.915 40.4947 909.915 40.5164C909.835 53.5609 897.752 53.5609 897.752 53.5609L853.368 53.5609C846.222 53.5609 840.429 59.4012 840.429 66.6055C840.429 73.8098 846.213 79.6501 853.359 79.6501H897.752C897.752 79.6501 935.71 79.6501 935.795 40.5164C935.795 40.4946 935.795 40.4729 935.795 40.4511C935.795 40.4294 935.795 40.4077 935.795 40.3859ZM897.74 6.29386C897.746 6.29392 897.758 6.29405 897.777 6.29437C897.82 6.29508 897.897 6.29674 898.006 6.30047C898.223 6.30794 898.566 6.3237 899.016 6.35685C899.917 6.42326 901.239 6.55869 902.839 6.83374C906.062 7.3878 910.287 8.48673 914.455 10.6351C918.6 12.7718 922.615 15.9056 925.61 20.5326C928.589 25.1341 930.752 31.5069 930.762 40.4511C930.752 49.3954 928.589 55.7682 925.61 60.3697C922.615 64.9967 918.6 68.1305 914.455 70.2672C910.287 72.4156 906.062 73.5145 902.839 74.0686C901.239 74.3436 899.917 74.479 899.016 74.5455C898.566 74.5786 898.223 74.5944 898.006 74.6018C897.897 74.6056 897.82 74.6072 897.777 74.6079C897.758 74.6083 897.746 74.6084 897.74 74.6084H853.359C849.026 74.6084 845.461 71.0599 845.461 66.6055C845.461 62.1559 849.031 58.6026 853.368 58.6026L897.752 58.6026C898.041 58.6026 902.073 58.5915 906.206 56.3605C908.347 55.2047 910.585 53.414 912.274 50.689C913.97 47.95 914.935 44.5511 914.948 40.4666L914.948 40.4512L914.948 40.4357C914.935 36.3512 913.97 32.9523 912.274 30.2134C910.585 27.4883 908.347 25.6976 906.206 24.5418C902.073 22.3109 898.041 22.2997 897.752 22.2997L853.368 22.2997C849.031 22.2997 845.461 18.7465 845.461 14.2968C845.461 9.84245 849.026 6.29386 853.359 6.29386L897.74 6.29386Z" fill="black"/>
<path fill-rule="evenodd" clip-rule="evenodd" d="M375.173 30.7461C366.835 30.7461 360.076 23.9744 360.076 15.6211C360.076 7.26782 366.835 0.496113 375.173 0.496113L392.637 0.496094L392.68 0.495949C393.543 0.492329 408.429 0.528355 423.185 8.13495C430.6 11.9575 438.033 17.7181 443.605 26.3813C449.183 35.0557 452.8 46.4913 452.8 61.5002L447.767 61.5002C447.767 47.3361 444.366 36.8741 439.374 29.1119C434.375 21.3386 427.683 16.1238 420.882 12.6179C407.206 5.56778 393.294 5.53508 392.701 5.53757C392.651 5.53778 392.641 5.53778 392.595 5.53778L375.173 5.53778C369.614 5.53778 365.108 10.0522 365.108 15.6211C365.108 21.19 369.614 25.7045 375.173 25.7045L392.539 25.7045C392.621 25.7045 392.631 25.7043 392.643 25.7041C392.656 25.7039 392.67 25.7037 392.773 25.7037C393.963 25.7028 402.551 25.8434 410.926 30.3681C415.152 32.6508 419.36 36.0697 422.502 41.1668C425.648 46.2706 427.637 52.9137 427.637 61.5002L422.605 61.5002C422.605 53.7201 420.812 48.0203 418.22 43.8159C415.624 39.6048 412.138 36.7503 408.538 34.8056C401.263 30.8753 393.678 30.7447 392.777 30.7453C392.743 30.7454 392.71 30.7455 392.671 30.7457L392.67 30.7457C392.649 30.7458 392.627 30.7459 392.603 30.746C392.583 30.7461 392.561 30.7461 392.539 30.7461L375.173 30.7461Z" fill="black"/>
<path fill-rule="evenodd" clip-rule="evenodd" d="M375.173 90.1116C366.835 90.1117 360.076 96.8834 360.076 105.237C360.076 113.59 366.835 120.362 375.173 120.362L392.359 120.362C392.526 120.362 392.669 120.365 392.865 120.37C395.131 120.43 409.975 120.539 424.342 113.245C431.566 109.577 438.713 104.016 444.045 95.6113C449.381 87.1997 452.8 76.094 452.8 61.5002L447.767 61.5002C447.767 75.2779 444.55 85.4157 439.797 92.9071C435.041 100.406 428.649 105.406 422.067 108.748C408.823 115.471 394.991 115.383 392.999 115.33C392.792 115.325 392.595 115.32 392.359 115.32L375.173 115.32C369.614 115.32 365.108 110.806 365.108 105.237C365.108 99.6678 369.614 95.1533 375.173 95.1533L392.126 95.1533C392.42 95.1533 392.705 95.1652 393.068 95.1809C395.288 95.277 403.809 95.3487 411.866 91.1506C415.937 89.0288 419.916 85.8023 422.864 80.9391C425.811 76.0759 427.637 69.726 427.637 61.5002L422.605 61.5002C422.605 68.9618 420.956 74.3733 418.562 78.3224C416.169 82.2715 412.939 84.9083 409.544 86.6778C402.665 90.262 395.214 90.2275 393.285 90.1439L393.272 90.1434C392.926 90.1284 392.54 90.1116 392.126 90.1116L375.173 90.1116Z" fill="black"/>
</svg>
