<svg width="18" height="18" viewBox="0 0 18 18" fill="none" xmlns="http://www.w3.org/2000/svg">
<path fill-rule="evenodd" clip-rule="evenodd" d="M8.78234 0.666504C13.2573 0.666504 16.8973 4.3065 16.8973 8.7815C16.8973 10.8928 16.0871 12.8184 14.7612 14.2636L17.3702 16.8671C17.6143 17.1113 17.6152 17.5063 17.371 17.7504C17.2493 17.8738 17.0885 17.9346 16.9285 17.9346C16.7693 17.9346 16.6093 17.8738 16.4868 17.7521L13.8464 15.119C12.4574 16.2314 10.6962 16.8973 8.78234 16.8973C4.30734 16.8973 0.666504 13.2565 0.666504 8.7815C0.666504 4.3065 4.30734 0.666504 8.78234 0.666504ZM8.78234 1.9165C4.9965 1.9165 1.9165 4.99567 1.9165 8.7815C1.9165 12.5673 4.9965 15.6473 8.78234 15.6473C12.5673 15.6473 15.6473 12.5673 15.6473 8.7815C15.6473 4.99567 12.5673 1.9165 8.78234 1.9165Z" fill="#9393C1"/>
</svg>
