<svg width="26" height="26" viewBox="0 0 26 26" fill="none" xmlns="http://www.w3.org/2000/svg">
<path d="M12.7617 0.972778C5.85814 0.972778 0.261719 6.5692 0.261719 13.4728C0.261719 20.3764 5.85814 25.9728 12.7617 25.9728C19.6653 25.9728 25.2617 20.3764 25.2617 13.4728C25.2617 6.5692 19.6653 0.972778 12.7617 0.972778ZM18.5557 9.47379C18.3676 11.4503 17.5536 16.2469 17.1393 18.4607C16.9641 19.3974 16.6191 19.7115 16.2851 19.7422C15.5593 19.809 15.008 19.2625 14.3049 18.8016C13.2048 18.0804 12.5832 17.6315 11.5153 16.9278C10.2812 16.1145 11.0812 15.6677 11.7846 14.9368C11.9686 14.7457 15.167 11.8365 15.2289 11.5726C15.2366 11.5396 15.244 11.4164 15.1707 11.3517C15.0974 11.2869 14.9897 11.3089 14.9119 11.3265C14.8016 11.3515 13.044 12.5132 9.63929 14.8114C9.14046 15.154 8.68862 15.3209 8.28374 15.3121C7.83742 15.3025 6.97891 15.0598 6.34065 14.8523C5.55784 14.5979 4.93566 14.4634 4.98984 14.0312C5.01807 13.8061 5.32805 13.5759 5.91978 13.3407C9.5638 11.753 11.9937 10.7063 13.2095 10.2005C16.6809 8.75665 17.4022 8.50584 17.8724 8.49748C17.9758 8.49576 18.207 8.52137 18.3567 8.64289C18.4563 8.72946 18.5198 8.85026 18.5347 8.9814C18.56 9.14423 18.5671 9.30939 18.5557 9.47379Z" fill="white"/>
</svg>
